{
	"patcher" : 	{
		"fileversion" : 1,
		"appversion" : 		{
			"major" : 5,
			"minor" : 1,
			"revision" : 9
		}
,
		"rect" : [ 539.0, 287.0, 1141.0, 501.0 ],
		"bglocked" : 0,
		"defrect" : [ 539.0, 287.0, 1141.0, 501.0 ],
		"openrect" : [ 0.0, 0.0, 0.0, 0.0 ],
		"openinpresentation" : 1,
		"default_fontsize" : 12.0,
		"default_fontface" : 0,
		"default_fontname" : "Arial",
		"gridonopen" : 0,
		"gridsize" : [ 15.0, 15.0 ],
		"gridsnaponopen" : 0,
		"toolbarvisible" : 1,
		"boxanimatetime" : 200,
		"imprint" : 0,
		"enablehscroll" : 1,
		"enablevscroll" : 1,
		"devicewidth" : 0.0,
		"boxes" : [ 			{
				"box" : 				{
					"maxclass" : "newobj",
					"text" : "send~ #0-c_dry",
					"linecount" : 2,
					"fontsize" : 12.0,
					"numinlets" : 1,
					"numoutlets" : 0,
					"patching_rect" : [ 72.0, 197.0, 64.0, 34.0 ],
					"fontname" : "Arial",
					"id" : "obj-13"
				}

			}
, 			{
				"box" : 				{
					"maxclass" : "live.line",
					"numinlets" : 1,
					"presentation_rect" : [ 26.0, 48.0, 55.0, 5.0 ],
					"numoutlets" : 0,
					"patching_rect" : [ 136.0, 264.0, 5.0, 100.0 ],
					"presentation" : 1,
					"id" : "obj-15"
				}

			}
, 			{
				"box" : 				{
					"maxclass" : "newobj",
					"text" : "receive~ #0-c_dry",
					"fontsize" : 12.0,
					"numinlets" : 1,
					"numoutlets" : 1,
					"outlettype" : [ "signal" ],
					"patching_rect" : [ 86.0, 463.0, 106.0, 20.0 ],
					"fontname" : "Arial",
					"id" : "obj-120"
				}

			}
, 			{
				"box" : 				{
					"maxclass" : "newobj",
					"text" : "*~",
					"fontsize" : 12.0,
					"numinlets" : 2,
					"numoutlets" : 1,
					"outlettype" : [ "signal" ],
					"patching_rect" : [ 86.0, 495.0, 126.5, 20.0 ],
					"fontname" : "Arial",
					"id" : "obj-118"
				}

			}
, 			{
				"box" : 				{
					"maxclass" : "newobj",
					"text" : "!-~ 1.",
					"fontsize" : 12.0,
					"numinlets" : 2,
					"numoutlets" : 1,
					"outlettype" : [ "signal" ],
					"patching_rect" : [ 194.0, 463.0, 38.0, 20.0 ],
					"fontname" : "Arial",
					"id" : "obj-117"
				}

			}
, 			{
				"box" : 				{
					"maxclass" : "newobj",
					"text" : "line~",
					"fontsize" : 12.0,
					"numinlets" : 2,
					"numoutlets" : 2,
					"outlettype" : [ "signal", "bang" ],
					"patching_rect" : [ 60.0, 427.0, 36.0, 20.0 ],
					"fontname" : "Arial",
					"id" : "obj-115"
				}

			}
, 			{
				"box" : 				{
					"maxclass" : "message",
					"text" : "$1 50",
					"fontsize" : 12.0,
					"numinlets" : 2,
					"numoutlets" : 1,
					"outlettype" : [ "" ],
					"patching_rect" : [ 60.0, 404.0, 41.0, 18.0 ],
					"fontname" : "Arial",
					"id" : "obj-114"
				}

			}
, 			{
				"box" : 				{
					"maxclass" : "newobj",
					"text" : "/ 100.",
					"fontsize" : 12.0,
					"numinlets" : 2,
					"numoutlets" : 1,
					"outlettype" : [ "float" ],
					"patching_rect" : [ 60.0, 379.0, 41.0, 20.0 ],
					"fontname" : "Arial",
					"id" : "obj-110"
				}

			}
, 			{
				"box" : 				{
					"maxclass" : "newobj",
					"text" : "*~",
					"fontsize" : 12.0,
					"numinlets" : 2,
					"numoutlets" : 1,
					"outlettype" : [ "signal" ],
					"patching_rect" : [ 40.0, 599.0, 112.5, 20.0 ],
					"fontname" : "Arial",
					"id" : "obj-108"
				}

			}
, 			{
				"box" : 				{
					"maxclass" : "newobj",
					"text" : "dbtoa",
					"fontsize" : 12.0,
					"numinlets" : 1,
					"numoutlets" : 1,
					"outlettype" : [ "" ],
					"patching_rect" : [ 134.0, 573.0, 41.0, 20.0 ],
					"fontname" : "Arial",
					"id" : "obj-104"
				}

			}
, 			{
				"box" : 				{
					"maxclass" : "newobj",
					"text" : "*~",
					"fontsize" : 12.0,
					"numinlets" : 2,
					"numoutlets" : 1,
					"outlettype" : [ "signal" ],
					"patching_rect" : [ 40.0, 495.0, 38.5, 20.0 ],
					"fontname" : "Arial",
					"id" : "obj-102"
				}

			}
, 			{
				"box" : 				{
					"maxclass" : "live.dial",
					"varname" : "live.dial[5]",
					"parameter_enable" : 1,
					"numinlets" : 1,
					"presentation_rect" : [ 30.0, 60.0, 44.0, 47.0 ],
					"numoutlets" : 2,
					"outlettype" : [ "", "float" ],
					"patching_rect" : [ 134.0, 523.0, 44.0, 47.0 ],
					"presentation" : 1,
					"id" : "obj-34",
					"saved_attribute_attributes" : 					{
						"valueof" : 						{
							"parameter_longname" : "live.dial[18]",
							"parameter_modmin" : 0.0,
							"parameter_linknames" : 0,
							"parameter_modmode" : 0,
							"parameter_info" : "",
							"parameter_units" : "",
							"parameter_order" : 0,
							"parameter_defer" : 0,
							"parameter_speedlim" : 1.0,
							"parameter_steps" : 0,
							"parameter_invisible" : 0,
							"parameter_exponent" : 1.0,
							"parameter_annotation_name" : "",
							"parameter_unitstyle" : 4,
							"parameter_mmax" : 0.0,
							"parameter_mmin" : -70.0,
							"parameter_initial" : [ -6.0 ],
							"parameter_type" : 0,
							"parameter_initial_enable" : 1,
							"parameter_shortname" : "Volume",
							"parameter_modmax" : 127.0
						}

					}

				}

			}
, 			{
				"box" : 				{
					"maxclass" : "live.dial",
					"varname" : "live.dial[3]",
					"parameter_enable" : 1,
					"numinlets" : 1,
					"presentation_rect" : [ 30.0, 113.0, 44.0, 47.0 ],
					"numoutlets" : 2,
					"outlettype" : [ "", "float" ],
					"patching_rect" : [ 60.0, 326.0, 44.0, 47.0 ],
					"presentation" : 1,
					"id" : "obj-35",
					"saved_attribute_attributes" : 					{
						"valueof" : 						{
							"parameter_longname" : "live.dial[14]",
							"parameter_modmin" : 0.0,
							"parameter_linknames" : 0,
							"parameter_modmode" : 0,
							"parameter_info" : "",
							"parameter_units" : "",
							"parameter_order" : 0,
							"parameter_defer" : 0,
							"parameter_speedlim" : 1.0,
							"parameter_steps" : 0,
							"parameter_invisible" : 0,
							"parameter_exponent" : 1.0,
							"parameter_annotation_name" : "",
							"parameter_unitstyle" : 5,
							"parameter_mmax" : 100.0,
							"parameter_mmin" : 0.0,
							"parameter_initial" : [ 50 ],
							"parameter_type" : 0,
							"parameter_initial_enable" : 1,
							"parameter_shortname" : "Dry/Wet",
							"parameter_modmax" : 127.0
						}

					}

				}

			}
, 			{
				"box" : 				{
					"maxclass" : "comment",
					"text" : "Need to change phase of generated wavetables to avoid clipping!!!",
					"linecount" : 3,
					"fontsize" : 12.0,
					"numinlets" : 1,
					"numoutlets" : 0,
					"patching_rect" : [ 419.0, 36.0, 150.0, 48.0 ],
					"fontname" : "Arial",
					"id" : "obj-14"
				}

			}
, 			{
				"box" : 				{
					"maxclass" : "message",
					"text" : "set sawdown_w",
					"fontsize" : 12.0,
					"numinlets" : 2,
					"numoutlets" : 1,
					"outlettype" : [ "" ],
					"patching_rect" : [ 389.0, 231.0, 95.0, 18.0 ],
					"fontname" : "Arial",
					"id" : "obj-12"
				}

			}
, 			{
				"box" : 				{
					"maxclass" : "message",
					"text" : "set sawup_w",
					"fontsize" : 12.0,
					"numinlets" : 2,
					"numoutlets" : 1,
					"outlettype" : [ "" ],
					"patching_rect" : [ 368.0, 198.0, 80.0, 18.0 ],
					"fontname" : "Arial",
					"id" : "obj-8"
				}

			}
, 			{
				"box" : 				{
					"maxclass" : "message",
					"text" : "set tri_w",
					"fontsize" : 12.0,
					"numinlets" : 2,
					"numoutlets" : 1,
					"outlettype" : [ "" ],
					"patching_rect" : [ 300.0, 198.0, 55.0, 18.0 ],
					"fontname" : "Arial",
					"id" : "obj-6"
				}

			}
, 			{
				"box" : 				{
					"maxclass" : "message",
					"text" : "set square_w",
					"linecount" : 2,
					"fontsize" : 12.0,
					"numinlets" : 2,
					"numoutlets" : 1,
					"outlettype" : [ "" ],
					"patching_rect" : [ 233.0, 195.0, 64.0, 32.0 ],
					"fontname" : "Arial",
					"id" : "obj-5"
				}

			}
, 			{
				"box" : 				{
					"maxclass" : "comment",
					"text" : "Waveshaper:",
					"fontface" : 1,
					"fontsize" : 10.0,
					"numinlets" : 1,
					"presentation_rect" : [ 20.0, 5.0, 75.0, 18.0 ],
					"numoutlets" : 0,
					"patching_rect" : [ 165.0, 124.0, 98.0, 18.0 ],
					"fontname" : "Arial",
					"presentation" : 1,
					"id" : "obj-4"
				}

			}
, 			{
				"box" : 				{
					"maxclass" : "outlet",
					"numinlets" : 1,
					"numoutlets" : 0,
					"patching_rect" : [ 40.0, 633.0, 25.0, 25.0 ],
					"id" : "obj-3",
					"comment" : ""
				}

			}
, 			{
				"box" : 				{
					"maxclass" : "inlet",
					"numinlets" : 0,
					"numoutlets" : 1,
					"outlettype" : [ "" ],
					"patching_rect" : [ 40.0, 161.0, 25.0, 25.0 ],
					"id" : "obj-1",
					"comment" : ""
				}

			}
, 			{
				"box" : 				{
					"maxclass" : "newobj",
					"text" : "p load_file",
					"fontsize" : 12.0,
					"numinlets" : 1,
					"numoutlets" : 1,
					"outlettype" : [ "" ],
					"patching_rect" : [ 503.0, 192.0, 178.0, 20.0 ],
					"fontname" : "Arial",
					"id" : "obj-61",
					"patcher" : 					{
						"fileversion" : 1,
						"appversion" : 						{
							"major" : 5,
							"minor" : 1,
							"revision" : 9
						}
,
						"rect" : [ 717.0, 262.0, 127.0, 155.0 ],
						"bglocked" : 0,
						"defrect" : [ 717.0, 262.0, 127.0, 155.0 ],
						"openrect" : [ 0.0, 0.0, 0.0, 0.0 ],
						"openinpresentation" : 0,
						"default_fontsize" : 12.0,
						"default_fontface" : 0,
						"default_fontname" : "Arial",
						"gridonopen" : 0,
						"gridsize" : [ 15.0, 15.0 ],
						"gridsnaponopen" : 0,
						"toolbarvisible" : 1,
						"boxanimatetime" : 200,
						"imprint" : 0,
						"enablehscroll" : 1,
						"enablevscroll" : 1,
						"devicewidth" : 0.0,
						"boxes" : [ 							{
								"box" : 								{
									"maxclass" : "button",
									"numinlets" : 1,
									"numoutlets" : 1,
									"outlettype" : [ "bang" ],
									"patching_rect" : [ 4.0, 31.0, 20.0, 20.0 ],
									"id" : "obj-4"
								}

							}
, 							{
								"box" : 								{
									"maxclass" : "newobj",
									"text" : "append 0",
									"fontsize" : 12.0,
									"numinlets" : 1,
									"numoutlets" : 1,
									"outlettype" : [ "" ],
									"patching_rect" : [ 4.0, 101.0, 61.0, 20.0 ],
									"fontname" : "Arial",
									"id" : "obj-36"
								}

							}
, 							{
								"box" : 								{
									"maxclass" : "newobj",
									"text" : "prepend read",
									"fontsize" : 12.0,
									"numinlets" : 1,
									"numoutlets" : 1,
									"outlettype" : [ "" ],
									"patching_rect" : [ 4.0, 79.0, 82.0, 20.0 ],
									"fontname" : "Arial",
									"id" : "obj-38"
								}

							}
, 							{
								"box" : 								{
									"maxclass" : "newobj",
									"text" : "opendialog sound",
									"fontsize" : 12.0,
									"numinlets" : 1,
									"numoutlets" : 2,
									"outlettype" : [ "", "bang" ],
									"patching_rect" : [ 4.0, 54.0, 105.0, 20.0 ],
									"fontname" : "Arial",
									"id" : "obj-18"
								}

							}
, 							{
								"box" : 								{
									"maxclass" : "outlet",
									"numinlets" : 1,
									"numoutlets" : 0,
									"patching_rect" : [ 4.0, 124.0, 25.0, 25.0 ],
									"id" : "obj-2",
									"comment" : ""
								}

							}
, 							{
								"box" : 								{
									"maxclass" : "inlet",
									"numinlets" : 0,
									"numoutlets" : 1,
									"outlettype" : [ "" ],
									"patching_rect" : [ 4.0, 2.0, 25.0, 25.0 ],
									"id" : "obj-1",
									"comment" : ""
								}

							}
 ],
						"lines" : [ 							{
								"patchline" : 								{
									"source" : [ "obj-4", 0 ],
									"destination" : [ "obj-18", 0 ],
									"hidden" : 0,
									"midpoints" : [  ]
								}

							}
, 							{
								"patchline" : 								{
									"source" : [ "obj-1", 0 ],
									"destination" : [ "obj-4", 0 ],
									"hidden" : 0,
									"midpoints" : [  ]
								}

							}
, 							{
								"patchline" : 								{
									"source" : [ "obj-38", 0 ],
									"destination" : [ "obj-36", 0 ],
									"hidden" : 0,
									"midpoints" : [  ]
								}

							}
, 							{
								"patchline" : 								{
									"source" : [ "obj-18", 0 ],
									"destination" : [ "obj-38", 0 ],
									"hidden" : 0,
									"midpoints" : [  ]
								}

							}
, 							{
								"patchline" : 								{
									"source" : [ "obj-36", 0 ],
									"destination" : [ "obj-2", 0 ],
									"hidden" : 0,
									"midpoints" : [  ]
								}

							}
 ]
					}
,
					"saved_object_attributes" : 					{
						"globalpatchername" : "",
						"fontface" : 0,
						"fontsize" : 12.0,
						"default_fontface" : 0,
						"default_fontname" : "Arial",
						"fontname" : "Arial",
						"default_fontsize" : 12.0
					}

				}

			}
, 			{
				"box" : 				{
					"maxclass" : "newobj",
					"text" : "t s b",
					"fontsize" : 12.0,
					"numinlets" : 1,
					"numoutlets" : 2,
					"outlettype" : [ "", "bang" ],
					"patching_rect" : [ 503.0, 220.0, 178.0, 20.0 ],
					"fontname" : "Arial",
					"id" : "obj-63"
				}

			}
, 			{
				"box" : 				{
					"maxclass" : "newobj",
					"text" : "buffer~ loaded_sample",
					"fontsize" : 12.0,
					"numinlets" : 1,
					"numoutlets" : 2,
					"outlettype" : [ "float", "bang" ],
					"patching_rect" : [ 503.0, 255.0, 133.0, 20.0 ],
					"fontname" : "Arial",
					"id" : "obj-66"
				}

			}
, 			{
				"box" : 				{
					"maxclass" : "newobj",
					"text" : "route 0 1 2 3 4 5",
					"fontsize" : 12.0,
					"numinlets" : 1,
					"numoutlets" : 7,
					"outlettype" : [ "", "", "", "", "", "", "" ],
					"patching_rect" : [ 165.0, 166.0, 424.0, 20.0 ],
					"fontname" : "Arial",
					"id" : "obj-59"
				}

			}
, 			{
				"box" : 				{
					"maxclass" : "message",
					"text" : "set loaded_sample",
					"fontsize" : 12.0,
					"numinlets" : 2,
					"numoutlets" : 1,
					"outlettype" : [ "" ],
					"patching_rect" : [ 662.0, 258.0, 111.0, 18.0 ],
					"fontname" : "Arial",
					"id" : "obj-65"
				}

			}
, 			{
				"box" : 				{
					"maxclass" : "message",
					"text" : "set sine_w",
					"fontsize" : 12.0,
					"numinlets" : 2,
					"numoutlets" : 1,
					"outlettype" : [ "" ],
					"patching_rect" : [ 165.0, 195.0, 67.0, 18.0 ],
					"fontname" : "Arial",
					"id" : "obj-67"
				}

			}
, 			{
				"box" : 				{
					"maxclass" : "live.menu",
					"varname" : "live.menu[3]",
					"parameter_enable" : 1,
					"numinlets" : 1,
					"presentation_rect" : [ 22.0, 21.0, 64.0, 15.0 ],
					"numoutlets" : 3,
					"pictures" : [  ],
					"outlettype" : [ "", "", "float" ],
					"patching_rect" : [ 165.0, 144.0, 108.0, 15.0 ],
					"presentation" : 1,
					"id" : "obj-68",
					"saved_attribute_attributes" : 					{
						"valueof" : 						{
							"parameter_longname" : "live.menu[3]",
							"parameter_modmin" : 0.0,
							"parameter_linknames" : 0,
							"parameter_modmode" : 0,
							"parameter_info" : "",
							"parameter_units" : "",
							"parameter_order" : 0,
							"parameter_defer" : 0,
							"parameter_speedlim" : 1.0,
							"parameter_steps" : 0,
							"parameter_invisible" : 0,
							"parameter_enum" : [ "Sine", "Square", "Triangle", "SawUp", "SawDown", "Load..." ],
							"parameter_exponent" : 1.0,
							"parameter_annotation_name" : "",
							"parameter_unitstyle" : 10,
							"parameter_mmax" : 127.0,
							"parameter_mmin" : 0.0,
							"parameter_type" : 2,
							"parameter_initial_enable" : 0,
							"parameter_shortname" : "live.menu",
							"parameter_modmax" : 127.0
						}

					}

				}

			}
, 			{
				"box" : 				{
					"maxclass" : "newobj",
					"text" : "lookup~ sine_w",
					"fontsize" : 12.0,
					"numinlets" : 3,
					"numoutlets" : 1,
					"outlettype" : [ "signal" ],
					"patching_rect" : [ 40.0, 292.0, 94.0, 20.0 ],
					"fontname" : "Arial",
					"id" : "obj-76"
				}

			}
, 			{
				"box" : 				{
					"maxclass" : "comment",
					"text" : "Load wavetable on open",
					"fontsize" : 12.0,
					"numinlets" : 1,
					"numoutlets" : 0,
					"patching_rect" : [ 101.0, 15.0, 150.0, 20.0 ],
					"fontname" : "Arial",
					"id" : "obj-7"
				}

			}
, 			{
				"box" : 				{
					"maxclass" : "newobj",
					"text" : "loadmess 512",
					"fontsize" : 12.0,
					"numinlets" : 1,
					"numoutlets" : 1,
					"outlettype" : [ "" ],
					"patching_rect" : [ 15.0, 15.0, 85.0, 20.0 ],
					"fontname" : "Arial",
					"id" : "obj-9"
				}

			}
, 			{
				"box" : 				{
					"maxclass" : "comment",
					"text" : "Functions to fill wavetable buffers",
					"fontsize" : 12.0,
					"numinlets" : 1,
					"numoutlets" : 0,
					"patching_rect" : [ 151.0, 38.0, 188.0, 20.0 ],
					"fontname" : "Arial",
					"id" : "obj-10"
				}

			}
, 			{
				"box" : 				{
					"maxclass" : "newobj",
					"text" : "p generate_wavetables",
					"fontsize" : 12.0,
					"numinlets" : 1,
					"numoutlets" : 0,
					"patching_rect" : [ 15.0, 38.0, 135.0, 20.0 ],
					"fontname" : "Arial",
					"id" : "obj-11",
					"patcher" : 					{
						"fileversion" : 1,
						"appversion" : 						{
							"major" : 5,
							"minor" : 1,
							"revision" : 9
						}
,
						"rect" : [ 182.0, 517.0, 813.0, 316.0 ],
						"bglocked" : 0,
						"defrect" : [ 182.0, 517.0, 813.0, 316.0 ],
						"openrect" : [ 0.0, 0.0, 0.0, 0.0 ],
						"openinpresentation" : 0,
						"default_fontsize" : 12.0,
						"default_fontface" : 0,
						"default_fontname" : "Arial",
						"gridonopen" : 0,
						"gridsize" : [ 15.0, 15.0 ],
						"gridsnaponopen" : 0,
						"toolbarvisible" : 1,
						"boxanimatetime" : 200,
						"imprint" : 0,
						"enablehscroll" : 1,
						"enablevscroll" : 1,
						"devicewidth" : 0.0,
						"boxes" : [ 							{
								"box" : 								{
									"maxclass" : "newobj",
									"text" : "buffer~ sawdown_w",
									"fontsize" : 11.595187,
									"numinlets" : 1,
									"numoutlets" : 2,
									"outlettype" : [ "float", "bang" ],
									"patching_rect" : [ 719.0, 85.0, 113.0, 20.0 ],
									"fontname" : "Arial",
									"id" : "obj-14"
								}

							}
, 							{
								"box" : 								{
									"maxclass" : "newobj",
									"text" : "p sawdown",
									"fontsize" : 12.0,
									"numinlets" : 1,
									"numoutlets" : 0,
									"patching_rect" : [ 8.0, 219.0, 71.0, 20.0 ],
									"fontname" : "Arial",
									"id" : "obj-13",
									"patcher" : 									{
										"fileversion" : 1,
										"appversion" : 										{
											"major" : 5,
											"minor" : 1,
											"revision" : 9
										}
,
										"rect" : [ 1025.0, 306.0, 571.0, 333.0 ],
										"bglocked" : 0,
										"defrect" : [ 1025.0, 306.0, 571.0, 333.0 ],
										"openrect" : [ 0.0, 0.0, 0.0, 0.0 ],
										"openinpresentation" : 0,
										"default_fontsize" : 12.0,
										"default_fontface" : 0,
										"default_fontname" : "Arial",
										"gridonopen" : 0,
										"gridsize" : [ 15.0, 15.0 ],
										"gridsnaponopen" : 0,
										"toolbarvisible" : 1,
										"boxanimatetime" : 200,
										"imprint" : 0,
										"enablehscroll" : 1,
										"enablevscroll" : 1,
										"devicewidth" : 0.0,
										"boxes" : [ 											{
												"box" : 												{
													"maxclass" : "newobj",
													"text" : "* -1.",
													"fontsize" : 12.0,
													"numinlets" : 2,
													"numoutlets" : 1,
													"outlettype" : [ "float" ],
													"patching_rect" : [ 125.0, 202.0, 33.0, 20.0 ],
													"fontname" : "Arial",
													"id" : "obj-3"
												}

											}
, 											{
												"box" : 												{
													"maxclass" : "newobj",
													"text" : "expr $f1*2/$f2-1",
													"fontsize" : 12.0,
													"numinlets" : 2,
													"numoutlets" : 1,
													"outlettype" : [ "" ],
													"patching_rect" : [ 125.0, 153.0, 96.0, 20.0 ],
													"fontname" : "Arial",
													"id" : "obj-1"
												}

											}
, 											{
												"box" : 												{
													"maxclass" : "comment",
													"text" : "Input: Number of samples for wavetable",
													"fontsize" : 12.0,
													"numinlets" : 1,
													"numoutlets" : 0,
													"patching_rect" : [ 37.0, 9.0, 221.0, 20.0 ],
													"fontname" : "Arial",
													"id" : "obj-2"
												}

											}
, 											{
												"box" : 												{
													"maxclass" : "comment",
													"text" : "Pair the amplitude value with the wavetable index",
													"linecount" : 2,
													"fontsize" : 12.0,
													"numinlets" : 1,
													"numoutlets" : 0,
													"patching_rect" : [ 197.0, 265.0, 151.0, 34.0 ],
													"fontname" : "Arial",
													"id" : "obj-21"
												}

											}
, 											{
												"box" : 												{
													"maxclass" : "newobj",
													"text" : "peek~ sawdown_w",
													"fontsize" : 11.595187,
													"numinlets" : 3,
													"numoutlets" : 1,
													"outlettype" : [ "float" ],
													"patching_rect" : [ 50.0, 297.799988, 109.0, 20.0 ],
													"fontname" : "Arial",
													"id" : "obj-14"
												}

											}
, 											{
												"box" : 												{
													"maxclass" : "newobj",
													"text" : "pack 0 0.",
													"fontsize" : 11.595187,
													"numinlets" : 2,
													"numoutlets" : 1,
													"outlettype" : [ "" ],
													"patching_rect" : [ 50.0, 250.799988, 94.0, 20.0 ],
													"fontname" : "Arial",
													"id" : "obj-13"
												}

											}
, 											{
												"box" : 												{
													"maxclass" : "inlet",
													"numinlets" : 0,
													"numoutlets" : 1,
													"outlettype" : [ "" ],
													"patching_rect" : [ 11.0, 7.0, 25.0, 25.0 ],
													"id" : "obj-7",
													"comment" : ""
												}

											}
, 											{
												"box" : 												{
													"maxclass" : "newobj",
													"text" : "t i f",
													"fontsize" : 12.0,
													"numinlets" : 1,
													"numoutlets" : 2,
													"outlettype" : [ "int", "float" ],
													"patching_rect" : [ 11.0, 42.0, 57.5, 20.0 ],
													"fontname" : "Arial",
													"id" : "obj-8"
												}

											}
, 											{
												"box" : 												{
													"maxclass" : "comment",
													"text" : "output index values for wave table (from 0-512)",
													"linecount" : 2,
													"fontsize" : 12.0,
													"numinlets" : 1,
													"numoutlets" : 0,
													"patching_rect" : [ 69.0, 70.0, 135.0, 34.0 ],
													"fontname" : "Arial",
													"id" : "obj-9"
												}

											}
, 											{
												"box" : 												{
													"maxclass" : "newobj",
													"text" : "t i i",
													"fontsize" : 11.595187,
													"numinlets" : 1,
													"numoutlets" : 2,
													"outlettype" : [ "int", "int" ],
													"patching_rect" : [ 50.0, 109.0, 93.5, 20.0 ],
													"fontname" : "Arial",
													"id" : "obj-10"
												}

											}
, 											{
												"box" : 												{
													"maxclass" : "newobj",
													"text" : "uzi 512 0",
													"fontsize" : 11.595187,
													"numinlets" : 2,
													"numoutlets" : 3,
													"outlettype" : [ "bang", "bang", "int" ],
													"patching_rect" : [ 11.0, 71.0, 58.0, 20.0 ],
													"fontname" : "Arial",
													"id" : "obj-11"
												}

											}
 ],
										"lines" : [ 											{
												"patchline" : 												{
													"source" : [ "obj-8", 1 ],
													"destination" : [ "obj-11", 1 ],
													"hidden" : 0,
													"midpoints" : [  ]
												}

											}
, 											{
												"patchline" : 												{
													"source" : [ "obj-8", 0 ],
													"destination" : [ "obj-11", 0 ],
													"hidden" : 0,
													"midpoints" : [  ]
												}

											}
, 											{
												"patchline" : 												{
													"source" : [ "obj-7", 0 ],
													"destination" : [ "obj-8", 0 ],
													"hidden" : 0,
													"midpoints" : [  ]
												}

											}
, 											{
												"patchline" : 												{
													"source" : [ "obj-11", 2 ],
													"destination" : [ "obj-10", 0 ],
													"hidden" : 0,
													"midpoints" : [  ]
												}

											}
, 											{
												"patchline" : 												{
													"source" : [ "obj-10", 0 ],
													"destination" : [ "obj-13", 0 ],
													"hidden" : 0,
													"midpoints" : [  ]
												}

											}
, 											{
												"patchline" : 												{
													"source" : [ "obj-10", 1 ],
													"destination" : [ "obj-1", 0 ],
													"hidden" : 0,
													"midpoints" : [  ]
												}

											}
, 											{
												"patchline" : 												{
													"source" : [ "obj-7", 0 ],
													"destination" : [ "obj-1", 1 ],
													"hidden" : 0,
													"midpoints" : [ 20.5, 37.0, 211.5, 37.0 ]
												}

											}
, 											{
												"patchline" : 												{
													"source" : [ "obj-1", 0 ],
													"destination" : [ "obj-3", 0 ],
													"hidden" : 0,
													"midpoints" : [  ]
												}

											}
, 											{
												"patchline" : 												{
													"source" : [ "obj-3", 0 ],
													"destination" : [ "obj-13", 1 ],
													"hidden" : 0,
													"midpoints" : [  ]
												}

											}
, 											{
												"patchline" : 												{
													"source" : [ "obj-13", 0 ],
													"destination" : [ "obj-14", 0 ],
													"hidden" : 0,
													"midpoints" : [  ]
												}

											}
 ]
									}
,
									"saved_object_attributes" : 									{
										"globalpatchername" : "",
										"fontface" : 0,
										"fontsize" : 12.0,
										"default_fontface" : 0,
										"default_fontname" : "Arial",
										"fontname" : "Arial",
										"default_fontsize" : 12.0
									}

								}

							}
, 							{
								"box" : 								{
									"maxclass" : "newobj",
									"text" : "buffer~ sawup_w",
									"fontsize" : 11.595187,
									"numinlets" : 1,
									"numoutlets" : 2,
									"outlettype" : [ "float", "bang" ],
									"patching_rect" : [ 619.0, 86.0, 98.0, 20.0 ],
									"fontname" : "Arial",
									"id" : "obj-12"
								}

							}
, 							{
								"box" : 								{
									"maxclass" : "newobj",
									"text" : "p sawup",
									"fontsize" : 12.0,
									"numinlets" : 1,
									"numoutlets" : 0,
									"patching_rect" : [ 21.0, 185.0, 55.0, 20.0 ],
									"fontname" : "Arial",
									"id" : "obj-11",
									"patcher" : 									{
										"fileversion" : 1,
										"appversion" : 										{
											"major" : 5,
											"minor" : 1,
											"revision" : 9
										}
,
										"rect" : [ 266.0, 199.0, 571.0, 333.0 ],
										"bglocked" : 0,
										"defrect" : [ 266.0, 199.0, 571.0, 333.0 ],
										"openrect" : [ 0.0, 0.0, 0.0, 0.0 ],
										"openinpresentation" : 0,
										"default_fontsize" : 12.0,
										"default_fontface" : 0,
										"default_fontname" : "Arial",
										"gridonopen" : 0,
										"gridsize" : [ 15.0, 15.0 ],
										"gridsnaponopen" : 0,
										"toolbarvisible" : 1,
										"boxanimatetime" : 200,
										"imprint" : 0,
										"enablehscroll" : 1,
										"enablevscroll" : 1,
										"devicewidth" : 0.0,
										"boxes" : [ 											{
												"box" : 												{
													"maxclass" : "newobj",
													"text" : "expr $f1*2/$f2-1",
													"fontsize" : 12.0,
													"numinlets" : 2,
													"numoutlets" : 1,
													"outlettype" : [ "" ],
													"patching_rect" : [ 125.0, 153.0, 96.0, 20.0 ],
													"fontname" : "Arial",
													"id" : "obj-1"
												}

											}
, 											{
												"box" : 												{
													"maxclass" : "comment",
													"text" : "Input: Number of samples for wavetable",
													"fontsize" : 12.0,
													"numinlets" : 1,
													"numoutlets" : 0,
													"patching_rect" : [ 37.0, 9.0, 221.0, 20.0 ],
													"fontname" : "Arial",
													"id" : "obj-2"
												}

											}
, 											{
												"box" : 												{
													"maxclass" : "comment",
													"text" : "Pair the amplitude value with the wavetable index",
													"linecount" : 2,
													"fontsize" : 12.0,
													"numinlets" : 1,
													"numoutlets" : 0,
													"patching_rect" : [ 197.0, 265.0, 151.0, 34.0 ],
													"fontname" : "Arial",
													"id" : "obj-21"
												}

											}
, 											{
												"box" : 												{
													"maxclass" : "newobj",
													"text" : "peek~ sawup_w",
													"fontsize" : 11.595187,
													"numinlets" : 3,
													"numoutlets" : 1,
													"outlettype" : [ "float" ],
													"patching_rect" : [ 50.0, 297.799988, 94.0, 20.0 ],
													"fontname" : "Arial",
													"id" : "obj-14"
												}

											}
, 											{
												"box" : 												{
													"maxclass" : "newobj",
													"text" : "pack 0 0.",
													"fontsize" : 11.595187,
													"numinlets" : 2,
													"numoutlets" : 1,
													"outlettype" : [ "" ],
													"patching_rect" : [ 50.0, 250.799988, 94.0, 20.0 ],
													"fontname" : "Arial",
													"id" : "obj-13"
												}

											}
, 											{
												"box" : 												{
													"maxclass" : "inlet",
													"numinlets" : 0,
													"numoutlets" : 1,
													"outlettype" : [ "" ],
													"patching_rect" : [ 11.0, 7.0, 25.0, 25.0 ],
													"id" : "obj-7",
													"comment" : ""
												}

											}
, 											{
												"box" : 												{
													"maxclass" : "newobj",
													"text" : "t i f",
													"fontsize" : 12.0,
													"numinlets" : 1,
													"numoutlets" : 2,
													"outlettype" : [ "int", "float" ],
													"patching_rect" : [ 11.0, 42.0, 57.5, 20.0 ],
													"fontname" : "Arial",
													"id" : "obj-8"
												}

											}
, 											{
												"box" : 												{
													"maxclass" : "comment",
													"text" : "output index values for wave table (from 0-512)",
													"linecount" : 2,
													"fontsize" : 12.0,
													"numinlets" : 1,
													"numoutlets" : 0,
													"patching_rect" : [ 69.0, 70.0, 135.0, 34.0 ],
													"fontname" : "Arial",
													"id" : "obj-9"
												}

											}
, 											{
												"box" : 												{
													"maxclass" : "newobj",
													"text" : "t i i",
													"fontsize" : 11.595187,
													"numinlets" : 1,
													"numoutlets" : 2,
													"outlettype" : [ "int", "int" ],
													"patching_rect" : [ 50.0, 109.0, 93.5, 20.0 ],
													"fontname" : "Arial",
													"id" : "obj-10"
												}

											}
, 											{
												"box" : 												{
													"maxclass" : "newobj",
													"text" : "uzi 512 0",
													"fontsize" : 11.595187,
													"numinlets" : 2,
													"numoutlets" : 3,
													"outlettype" : [ "bang", "bang", "int" ],
													"patching_rect" : [ 11.0, 71.0, 58.0, 20.0 ],
													"fontname" : "Arial",
													"id" : "obj-11"
												}

											}
 ],
										"lines" : [ 											{
												"patchline" : 												{
													"source" : [ "obj-13", 0 ],
													"destination" : [ "obj-14", 0 ],
													"hidden" : 0,
													"midpoints" : [  ]
												}

											}
, 											{
												"patchline" : 												{
													"source" : [ "obj-1", 0 ],
													"destination" : [ "obj-13", 1 ],
													"hidden" : 0,
													"midpoints" : [  ]
												}

											}
, 											{
												"patchline" : 												{
													"source" : [ "obj-7", 0 ],
													"destination" : [ "obj-1", 1 ],
													"hidden" : 0,
													"midpoints" : [ 20.5, 37.0, 211.5, 37.0 ]
												}

											}
, 											{
												"patchline" : 												{
													"source" : [ "obj-10", 1 ],
													"destination" : [ "obj-1", 0 ],
													"hidden" : 0,
													"midpoints" : [  ]
												}

											}
, 											{
												"patchline" : 												{
													"source" : [ "obj-10", 0 ],
													"destination" : [ "obj-13", 0 ],
													"hidden" : 0,
													"midpoints" : [  ]
												}

											}
, 											{
												"patchline" : 												{
													"source" : [ "obj-11", 2 ],
													"destination" : [ "obj-10", 0 ],
													"hidden" : 0,
													"midpoints" : [  ]
												}

											}
, 											{
												"patchline" : 												{
													"source" : [ "obj-7", 0 ],
													"destination" : [ "obj-8", 0 ],
													"hidden" : 0,
													"midpoints" : [  ]
												}

											}
, 											{
												"patchline" : 												{
													"source" : [ "obj-8", 0 ],
													"destination" : [ "obj-11", 0 ],
													"hidden" : 0,
													"midpoints" : [  ]
												}

											}
, 											{
												"patchline" : 												{
													"source" : [ "obj-8", 1 ],
													"destination" : [ "obj-11", 1 ],
													"hidden" : 0,
													"midpoints" : [  ]
												}

											}
 ]
									}
,
									"saved_object_attributes" : 									{
										"globalpatchername" : "",
										"fontface" : 0,
										"fontsize" : 12.0,
										"default_fontface" : 0,
										"default_fontname" : "Arial",
										"fontname" : "Arial",
										"default_fontsize" : 12.0
									}

								}

							}
, 							{
								"box" : 								{
									"maxclass" : "newobj",
									"text" : "buffer~ square_w",
									"fontsize" : 11.595187,
									"numinlets" : 1,
									"numoutlets" : 2,
									"outlettype" : [ "float", "bang" ],
									"patching_rect" : [ 428.0, 86.0, 100.0, 20.0 ],
									"fontname" : "Arial",
									"id" : "obj-10"
								}

							}
, 							{
								"box" : 								{
									"maxclass" : "comment",
									"text" : "Generate square wave",
									"fontsize" : 12.0,
									"numinlets" : 1,
									"numoutlets" : 0,
									"patching_rect" : [ 92.0, 84.0, 139.0, 20.0 ],
									"fontname" : "Arial",
									"id" : "obj-9"
								}

							}
, 							{
								"box" : 								{
									"maxclass" : "newobj",
									"text" : "p square",
									"fontsize" : 12.0,
									"numinlets" : 1,
									"numoutlets" : 0,
									"patching_rect" : [ 33.0, 86.0, 57.0, 20.0 ],
									"fontname" : "Arial",
									"id" : "obj-8",
									"patcher" : 									{
										"fileversion" : 1,
										"appversion" : 										{
											"major" : 5,
											"minor" : 1,
											"revision" : 9
										}
,
										"rect" : [ 237.0, 334.0, 511.0, 379.0 ],
										"bglocked" : 0,
										"defrect" : [ 237.0, 334.0, 511.0, 379.0 ],
										"openrect" : [ 0.0, 0.0, 0.0, 0.0 ],
										"openinpresentation" : 0,
										"default_fontsize" : 12.0,
										"default_fontface" : 0,
										"default_fontname" : "Arial",
										"gridonopen" : 0,
										"gridsize" : [ 15.0, 15.0 ],
										"gridsnaponopen" : 0,
										"toolbarvisible" : 1,
										"boxanimatetime" : 200,
										"imprint" : 0,
										"enablehscroll" : 1,
										"enablevscroll" : 1,
										"devicewidth" : 0.0,
										"boxes" : [ 											{
												"box" : 												{
													"maxclass" : "newobj",
													"text" : "if $i1+1 < $f2/2.0 then 1 else -1",
													"linecount" : 2,
													"fontsize" : 12.0,
													"numinlets" : 2,
													"numoutlets" : 1,
													"outlettype" : [ "" ],
													"patching_rect" : [ 198.0, 130.0, 107.0, 34.0 ],
													"fontname" : "Arial",
													"id" : "obj-1"
												}

											}
, 											{
												"box" : 												{
													"maxclass" : "comment",
													"text" : "Input: Number of samples for wavetable",
													"fontsize" : 12.0,
													"numinlets" : 1,
													"numoutlets" : 0,
													"patching_rect" : [ 62.0, 11.0, 221.0, 20.0 ],
													"fontname" : "Arial",
													"id" : "obj-2"
												}

											}
, 											{
												"box" : 												{
													"maxclass" : "comment",
													"text" : "Pair the amplitude value with the wavetable index",
													"linecount" : 2,
													"fontsize" : 12.0,
													"numinlets" : 1,
													"numoutlets" : 0,
													"patching_rect" : [ 218.0, 187.0, 151.0, 34.0 ],
													"fontname" : "Arial",
													"id" : "obj-21"
												}

											}
, 											{
												"box" : 												{
													"maxclass" : "newobj",
													"text" : "peek~ square_w",
													"fontsize" : 11.595187,
													"numinlets" : 3,
													"numoutlets" : 1,
													"outlettype" : [ "float" ],
													"patching_rect" : [ 161.0, 222.799988, 96.0, 20.0 ],
													"fontname" : "Arial",
													"id" : "obj-14"
												}

											}
, 											{
												"box" : 												{
													"maxclass" : "newobj",
													"text" : "pack 0 0.",
													"fontsize" : 11.595187,
													"numinlets" : 2,
													"numoutlets" : 1,
													"outlettype" : [ "" ],
													"patching_rect" : [ 161.0, 187.799988, 56.0, 20.0 ],
													"fontname" : "Arial",
													"id" : "obj-13"
												}

											}
, 											{
												"box" : 												{
													"maxclass" : "inlet",
													"numinlets" : 0,
													"numoutlets" : 1,
													"outlettype" : [ "" ],
													"patching_rect" : [ 36.0, 9.0, 25.0, 25.0 ],
													"id" : "obj-7",
													"comment" : ""
												}

											}
, 											{
												"box" : 												{
													"maxclass" : "newobj",
													"text" : "t i f f",
													"fontsize" : 12.0,
													"numinlets" : 1,
													"numoutlets" : 3,
													"outlettype" : [ "int", "float", "float" ],
													"patching_rect" : [ 36.0, 44.0, 269.0, 20.0 ],
													"fontname" : "Arial",
													"id" : "obj-8"
												}

											}
, 											{
												"box" : 												{
													"maxclass" : "comment",
													"text" : "output index values for wave table (from 0-512)",
													"linecount" : 2,
													"fontsize" : 12.0,
													"numinlets" : 1,
													"numoutlets" : 0,
													"patching_rect" : [ 22.0, 105.0, 135.0, 34.0 ],
													"fontname" : "Arial",
													"id" : "obj-9"
												}

											}
, 											{
												"box" : 												{
													"maxclass" : "newobj",
													"text" : "t i i",
													"fontsize" : 11.595187,
													"numinlets" : 1,
													"numoutlets" : 2,
													"outlettype" : [ "int", "int" ],
													"patching_rect" : [ 161.0, 103.0, 55.5, 20.0 ],
													"fontname" : "Arial",
													"id" : "obj-10"
												}

											}
, 											{
												"box" : 												{
													"maxclass" : "newobj",
													"text" : "uzi 512 0",
													"fontsize" : 11.595187,
													"numinlets" : 2,
													"numoutlets" : 3,
													"outlettype" : [ "bang", "bang", "int" ],
													"patching_rect" : [ 36.0, 73.0, 144.0, 20.0 ],
													"fontname" : "Arial",
													"id" : "obj-11"
												}

											}
 ],
										"lines" : [ 											{
												"patchline" : 												{
													"source" : [ "obj-11", 2 ],
													"destination" : [ "obj-10", 0 ],
													"hidden" : 0,
													"midpoints" : [  ]
												}

											}
, 											{
												"patchline" : 												{
													"source" : [ "obj-10", 0 ],
													"destination" : [ "obj-13", 0 ],
													"hidden" : 0,
													"midpoints" : [  ]
												}

											}
, 											{
												"patchline" : 												{
													"source" : [ "obj-10", 1 ],
													"destination" : [ "obj-1", 0 ],
													"hidden" : 0,
													"midpoints" : [  ]
												}

											}
, 											{
												"patchline" : 												{
													"source" : [ "obj-1", 0 ],
													"destination" : [ "obj-13", 1 ],
													"hidden" : 0,
													"midpoints" : [  ]
												}

											}
, 											{
												"patchline" : 												{
													"source" : [ "obj-8", 2 ],
													"destination" : [ "obj-1", 1 ],
													"hidden" : 0,
													"midpoints" : [  ]
												}

											}
, 											{
												"patchline" : 												{
													"source" : [ "obj-8", 1 ],
													"destination" : [ "obj-11", 1 ],
													"hidden" : 0,
													"midpoints" : [  ]
												}

											}
, 											{
												"patchline" : 												{
													"source" : [ "obj-8", 0 ],
													"destination" : [ "obj-11", 0 ],
													"hidden" : 0,
													"midpoints" : [  ]
												}

											}
, 											{
												"patchline" : 												{
													"source" : [ "obj-7", 0 ],
													"destination" : [ "obj-8", 0 ],
													"hidden" : 0,
													"midpoints" : [  ]
												}

											}
, 											{
												"patchline" : 												{
													"source" : [ "obj-13", 0 ],
													"destination" : [ "obj-14", 0 ],
													"hidden" : 0,
													"midpoints" : [  ]
												}

											}
 ]
									}
,
									"saved_object_attributes" : 									{
										"globalpatchername" : "",
										"fontface" : 0,
										"fontsize" : 12.0,
										"default_fontface" : 0,
										"default_fontname" : "Arial",
										"fontname" : "Arial",
										"default_fontsize" : 12.0
									}

								}

							}
, 							{
								"box" : 								{
									"maxclass" : "comment",
									"text" : "Generate triangle wave",
									"fontsize" : 12.0,
									"numinlets" : 1,
									"numoutlets" : 0,
									"patching_rect" : [ 91.0, 134.0, 183.0, 20.0 ],
									"fontname" : "Arial",
									"id" : "obj-7"
								}

							}
, 							{
								"box" : 								{
									"maxclass" : "newobj",
									"text" : "buffer~ tri_w 256",
									"fontsize" : 11.595187,
									"numinlets" : 1,
									"numoutlets" : 2,
									"outlettype" : [ "float", "bang" ],
									"patching_rect" : [ 530.0, 108.0, 97.0, 20.0 ],
									"fontname" : "Arial",
									"id" : "obj-6"
								}

							}
, 							{
								"box" : 								{
									"maxclass" : "newobj",
									"text" : "p triangle",
									"fontsize" : 12.0,
									"numinlets" : 1,
									"numoutlets" : 0,
									"patching_rect" : [ 25.0, 130.0, 60.0, 20.0 ],
									"fontname" : "Arial",
									"id" : "obj-5",
									"patcher" : 									{
										"fileversion" : 1,
										"appversion" : 										{
											"major" : 5,
											"minor" : 1,
											"revision" : 9
										}
,
										"rect" : [ 578.0, 270.0, 407.0, 402.0 ],
										"bglocked" : 0,
										"defrect" : [ 578.0, 270.0, 407.0, 402.0 ],
										"openrect" : [ 0.0, 0.0, 0.0, 0.0 ],
										"openinpresentation" : 0,
										"default_fontsize" : 12.0,
										"default_fontface" : 0,
										"default_fontname" : "Arial",
										"gridonopen" : 0,
										"gridsize" : [ 15.0, 15.0 ],
										"gridsnaponopen" : 0,
										"toolbarvisible" : 1,
										"boxanimatetime" : 200,
										"imprint" : 0,
										"enablehscroll" : 1,
										"enablevscroll" : 1,
										"devicewidth" : 0.0,
										"boxes" : [ 											{
												"box" : 												{
													"maxclass" : "newobj",
													"text" : "t i f",
													"fontsize" : 11.595187,
													"numinlets" : 1,
													"numoutlets" : 2,
													"outlettype" : [ "int", "float" ],
													"patching_rect" : [ 241.0, 273.0, 55.5, 20.0 ],
													"fontname" : "Arial",
													"id" : "obj-24"
												}

											}
, 											{
												"box" : 												{
													"maxclass" : "newobj",
													"text" : "t i f",
													"fontsize" : 11.595187,
													"numinlets" : 1,
													"numoutlets" : 2,
													"outlettype" : [ "int", "float" ],
													"patching_rect" : [ 50.0, 273.0, 55.5, 20.0 ],
													"fontname" : "Arial",
													"id" : "obj-10"
												}

											}
, 											{
												"box" : 												{
													"maxclass" : "newobj",
													"text" : "expr -4.0*$f1/$f2+3",
													"fontsize" : 12.0,
													"numinlets" : 2,
													"numoutlets" : 1,
													"outlettype" : [ "" ],
													"patching_rect" : [ 278.0, 302.0, 113.0, 20.0 ],
													"fontname" : "Arial",
													"id" : "obj-20"
												}

											}
, 											{
												"box" : 												{
													"maxclass" : "newobj",
													"text" : "expr $f1*4/$f2-1",
													"fontsize" : 12.0,
													"numinlets" : 2,
													"numoutlets" : 1,
													"outlettype" : [ "" ],
													"patching_rect" : [ 87.0, 302.0, 96.0, 20.0 ],
													"fontname" : "Arial",
													"id" : "obj-12"
												}

											}
, 											{
												"box" : 												{
													"maxclass" : "newobj",
													"text" : "if $i1>=$i2/2 then $i1",
													"fontsize" : 12.0,
													"numinlets" : 2,
													"numoutlets" : 1,
													"outlettype" : [ "" ],
													"patching_rect" : [ 241.0, 248.0, 122.0, 20.0 ],
													"fontname" : "Arial",
													"id" : "obj-5"
												}

											}
, 											{
												"box" : 												{
													"maxclass" : "newobj",
													"text" : "if $i1<$i2/2 then $i1",
													"fontsize" : 12.0,
													"numinlets" : 2,
													"numoutlets" : 1,
													"outlettype" : [ "" ],
													"patching_rect" : [ 50.0, 248.0, 115.0, 20.0 ],
													"fontname" : "Arial",
													"id" : "obj-1"
												}

											}
, 											{
												"box" : 												{
													"maxclass" : "comment",
													"text" : "Input: Number of samples for wavetable",
													"fontsize" : 12.0,
													"numinlets" : 1,
													"numoutlets" : 0,
													"patching_rect" : [ 37.0, 9.0, 221.0, 20.0 ],
													"fontname" : "Arial",
													"id" : "obj-2"
												}

											}
, 											{
												"box" : 												{
													"maxclass" : "newobj",
													"text" : "peek~ tri_w",
													"fontsize" : 11.595187,
													"numinlets" : 3,
													"numoutlets" : 1,
													"outlettype" : [ "float" ],
													"patching_rect" : [ 50.0, 370.799988, 70.0, 20.0 ],
													"fontname" : "Arial",
													"id" : "obj-14"
												}

											}
, 											{
												"box" : 												{
													"maxclass" : "newobj",
													"text" : "pack 0 0.",
													"fontsize" : 11.595187,
													"numinlets" : 2,
													"numoutlets" : 1,
													"outlettype" : [ "" ],
													"patching_rect" : [ 50.0, 343.799988, 247.0, 20.0 ],
													"fontname" : "Arial",
													"id" : "obj-13"
												}

											}
, 											{
												"box" : 												{
													"maxclass" : "inlet",
													"numinlets" : 0,
													"numoutlets" : 1,
													"outlettype" : [ "" ],
													"patching_rect" : [ 11.0, 7.0, 25.0, 25.0 ],
													"id" : "obj-7",
													"comment" : ""
												}

											}
, 											{
												"box" : 												{
													"maxclass" : "newobj",
													"text" : "t i f",
													"fontsize" : 12.0,
													"numinlets" : 1,
													"numoutlets" : 2,
													"outlettype" : [ "int", "float" ],
													"patching_rect" : [ 11.0, 42.0, 57.5, 20.0 ],
													"fontname" : "Arial",
													"id" : "obj-8"
												}

											}
, 											{
												"box" : 												{
													"maxclass" : "comment",
													"text" : "output index values for wave table (from 0-512)",
													"linecount" : 4,
													"fontsize" : 12.0,
													"numinlets" : 1,
													"numoutlets" : 0,
													"patching_rect" : [ 68.0, 71.0, 86.0, 62.0 ],
													"fontname" : "Arial",
													"id" : "obj-9"
												}

											}
, 											{
												"box" : 												{
													"maxclass" : "newobj",
													"text" : "uzi 512 0",
													"fontsize" : 11.595187,
													"numinlets" : 2,
													"numoutlets" : 3,
													"outlettype" : [ "bang", "bang", "int" ],
													"patching_rect" : [ 11.0, 71.0, 58.0, 20.0 ],
													"fontname" : "Arial",
													"id" : "obj-11"
												}

											}
 ],
										"lines" : [ 											{
												"patchline" : 												{
													"source" : [ "obj-13", 0 ],
													"destination" : [ "obj-14", 0 ],
													"hidden" : 0,
													"midpoints" : [  ]
												}

											}
, 											{
												"patchline" : 												{
													"source" : [ "obj-8", 1 ],
													"destination" : [ "obj-11", 1 ],
													"hidden" : 0,
													"midpoints" : [  ]
												}

											}
, 											{
												"patchline" : 												{
													"source" : [ "obj-8", 0 ],
													"destination" : [ "obj-11", 0 ],
													"hidden" : 0,
													"midpoints" : [  ]
												}

											}
, 											{
												"patchline" : 												{
													"source" : [ "obj-7", 0 ],
													"destination" : [ "obj-8", 0 ],
													"hidden" : 0,
													"midpoints" : [  ]
												}

											}
, 											{
												"patchline" : 												{
													"source" : [ "obj-7", 0 ],
													"destination" : [ "obj-1", 1 ],
													"hidden" : 0,
													"midpoints" : [ 20.5, 38.5, 155.5, 38.5 ]
												}

											}
, 											{
												"patchline" : 												{
													"source" : [ "obj-7", 0 ],
													"destination" : [ "obj-5", 1 ],
													"hidden" : 0,
													"midpoints" : [ 20.5, 38.0, 353.5, 38.0 ]
												}

											}
, 											{
												"patchline" : 												{
													"source" : [ "obj-7", 0 ],
													"destination" : [ "obj-12", 1 ],
													"hidden" : 0,
													"midpoints" : [ 20.5, 38.5, 173.5, 38.5 ]
												}

											}
, 											{
												"patchline" : 												{
													"source" : [ "obj-12", 0 ],
													"destination" : [ "obj-13", 1 ],
													"hidden" : 0,
													"midpoints" : [  ]
												}

											}
, 											{
												"patchline" : 												{
													"source" : [ "obj-20", 0 ],
													"destination" : [ "obj-13", 1 ],
													"hidden" : 0,
													"midpoints" : [  ]
												}

											}
, 											{
												"patchline" : 												{
													"source" : [ "obj-7", 0 ],
													"destination" : [ "obj-20", 1 ],
													"hidden" : 0,
													"midpoints" : [ 20.5, 38.5, 381.5, 38.5 ]
												}

											}
, 											{
												"patchline" : 												{
													"source" : [ "obj-11", 2 ],
													"destination" : [ "obj-1", 0 ],
													"hidden" : 0,
													"midpoints" : [  ]
												}

											}
, 											{
												"patchline" : 												{
													"source" : [ "obj-11", 2 ],
													"destination" : [ "obj-5", 0 ],
													"hidden" : 0,
													"midpoints" : [ 59.5, 136.0, 250.5, 136.0 ]
												}

											}
, 											{
												"patchline" : 												{
													"source" : [ "obj-1", 0 ],
													"destination" : [ "obj-10", 0 ],
													"hidden" : 0,
													"midpoints" : [  ]
												}

											}
, 											{
												"patchline" : 												{
													"source" : [ "obj-10", 0 ],
													"destination" : [ "obj-13", 0 ],
													"hidden" : 0,
													"midpoints" : [  ]
												}

											}
, 											{
												"patchline" : 												{
													"source" : [ "obj-10", 1 ],
													"destination" : [ "obj-12", 0 ],
													"hidden" : 0,
													"midpoints" : [  ]
												}

											}
, 											{
												"patchline" : 												{
													"source" : [ "obj-5", 0 ],
													"destination" : [ "obj-24", 0 ],
													"hidden" : 0,
													"midpoints" : [  ]
												}

											}
, 											{
												"patchline" : 												{
													"source" : [ "obj-24", 1 ],
													"destination" : [ "obj-20", 0 ],
													"hidden" : 0,
													"midpoints" : [  ]
												}

											}
, 											{
												"patchline" : 												{
													"source" : [ "obj-24", 0 ],
													"destination" : [ "obj-13", 0 ],
													"hidden" : 0,
													"midpoints" : [  ]
												}

											}
 ]
									}
,
									"saved_object_attributes" : 									{
										"globalpatchername" : "",
										"fontface" : 0,
										"fontsize" : 12.0,
										"default_fontface" : 0,
										"default_fontname" : "Arial",
										"fontname" : "Arial",
										"default_fontsize" : 12.0
									}

								}

							}
, 							{
								"box" : 								{
									"maxclass" : "inlet",
									"numinlets" : 0,
									"numoutlets" : 1,
									"outlettype" : [ "" ],
									"patching_rect" : [ 8.0, 4.0, 25.0, 25.0 ],
									"id" : "obj-3",
									"comment" : ""
								}

							}
, 							{
								"box" : 								{
									"maxclass" : "comment",
									"text" : "Generate sine wave",
									"fontsize" : 12.0,
									"numinlets" : 1,
									"numoutlets" : 0,
									"patching_rect" : [ 94.0, 44.0, 125.0, 20.0 ],
									"fontname" : "Arial",
									"id" : "obj-4"
								}

							}
, 							{
								"box" : 								{
									"maxclass" : "newobj",
									"text" : "prepend sizeinsamps",
									"fontsize" : 12.0,
									"numinlets" : 1,
									"numoutlets" : 1,
									"outlettype" : [ "" ],
									"patching_rect" : [ 339.0, 50.0, 124.0, 20.0 ],
									"fontname" : "Arial",
									"id" : "obj-17"
								}

							}
, 							{
								"box" : 								{
									"maxclass" : "newobj",
									"text" : "buffer~ sine_w",
									"fontsize" : 11.595187,
									"numinlets" : 1,
									"numoutlets" : 2,
									"outlettype" : [ "float", "bang" ],
									"patching_rect" : [ 339.0, 86.0, 86.0, 20.0 ],
									"fontname" : "Arial",
									"id" : "obj-2"
								}

							}
, 							{
								"box" : 								{
									"maxclass" : "newobj",
									"text" : "p sine",
									"fontsize" : 12.0,
									"numinlets" : 1,
									"numoutlets" : 0,
									"patching_rect" : [ 31.0, 44.0, 43.0, 20.0 ],
									"fontname" : "Arial",
									"id" : "obj-1",
									"patcher" : 									{
										"fileversion" : 1,
										"appversion" : 										{
											"major" : 5,
											"minor" : 1,
											"revision" : 9
										}
,
										"rect" : [ 812.0, 192.0, 307.0, 229.0 ],
										"bglocked" : 0,
										"defrect" : [ 812.0, 192.0, 307.0, 229.0 ],
										"openrect" : [ 0.0, 0.0, 0.0, 0.0 ],
										"openinpresentation" : 0,
										"default_fontsize" : 12.0,
										"default_fontface" : 0,
										"default_fontname" : "Arial",
										"gridonopen" : 0,
										"gridsize" : [ 15.0, 15.0 ],
										"gridsnaponopen" : 0,
										"toolbarvisible" : 1,
										"boxanimatetime" : 200,
										"imprint" : 0,
										"enablehscroll" : 1,
										"enablevscroll" : 1,
										"devicewidth" : 0.0,
										"boxes" : [ 											{
												"box" : 												{
													"maxclass" : "inlet",
													"numinlets" : 0,
													"numoutlets" : 1,
													"outlettype" : [ "" ],
													"patching_rect" : [ 5.0, 3.0, 25.0, 25.0 ],
													"id" : "obj-1",
													"comment" : ""
												}

											}
, 											{
												"box" : 												{
													"maxclass" : "newobj",
													"text" : "t i f",
													"fontsize" : 12.0,
													"numinlets" : 1,
													"numoutlets" : 2,
													"outlettype" : [ "int", "float" ],
													"patching_rect" : [ 5.0, 30.0, 57.5, 20.0 ],
													"fontname" : "Arial",
													"id" : "obj-18"
												}

											}
, 											{
												"box" : 												{
													"maxclass" : "comment",
													"text" : "Pair the amplitude value with the wavetable index",
													"linecount" : 2,
													"fontsize" : 12.0,
													"numinlets" : 1,
													"numoutlets" : 0,
													"patching_rect" : [ 100.0, 169.0, 151.0, 34.0 ],
													"fontname" : "Arial",
													"id" : "obj-21"
												}

											}
, 											{
												"box" : 												{
													"maxclass" : "newobj",
													"text" : "expr sin(1.0/$f2*2*3.14159265359*$i1)",
													"fontsize" : 12.0,
													"numinlets" : 2,
													"numoutlets" : 1,
													"outlettype" : [ "" ],
													"patching_rect" : [ 81.0, 136.0, 222.0, 20.0 ],
													"fontname" : "Arial",
													"id" : "obj-15"
												}

											}
, 											{
												"box" : 												{
													"maxclass" : "comment",
													"text" : "output index values for wave table (from 0-512)",
													"linecount" : 2,
													"fontsize" : 12.0,
													"numinlets" : 1,
													"numoutlets" : 0,
													"patching_rect" : [ 63.0, 66.0, 135.0, 34.0 ],
													"fontname" : "Arial",
													"id" : "obj-12"
												}

											}
, 											{
												"box" : 												{
													"maxclass" : "newobj",
													"text" : "pack 0 0.",
													"fontsize" : 11.595187,
													"numinlets" : 2,
													"numoutlets" : 1,
													"outlettype" : [ "" ],
													"patching_rect" : [ 44.0, 167.799988, 56.0, 20.0 ],
													"fontname" : "Arial",
													"id" : "obj-3"
												}

											}
, 											{
												"box" : 												{
													"maxclass" : "newobj",
													"text" : "peek~ sine_w",
													"fontsize" : 11.595187,
													"numinlets" : 3,
													"numoutlets" : 1,
													"outlettype" : [ "float" ],
													"patching_rect" : [ 44.0, 205.799988, 82.0, 20.0 ],
													"fontname" : "Arial",
													"id" : "obj-4"
												}

											}
, 											{
												"box" : 												{
													"maxclass" : "newobj",
													"text" : "t i i",
													"fontsize" : 11.595187,
													"numinlets" : 1,
													"numoutlets" : 2,
													"outlettype" : [ "int", "int" ],
													"patching_rect" : [ 44.0, 105.0, 56.0, 20.0 ],
													"fontname" : "Arial",
													"id" : "obj-5"
												}

											}
, 											{
												"box" : 												{
													"maxclass" : "newobj",
													"text" : "uzi 512 0",
													"fontsize" : 11.595187,
													"numinlets" : 2,
													"numoutlets" : 3,
													"outlettype" : [ "bang", "bang", "int" ],
													"patching_rect" : [ 5.0, 67.0, 58.0, 20.0 ],
													"fontname" : "Arial",
													"id" : "obj-6"
												}

											}
 ],
										"lines" : [ 											{
												"patchline" : 												{
													"source" : [ "obj-6", 2 ],
													"destination" : [ "obj-5", 0 ],
													"hidden" : 0,
													"midpoints" : [  ]
												}

											}
, 											{
												"patchline" : 												{
													"source" : [ "obj-18", 1 ],
													"destination" : [ "obj-6", 1 ],
													"hidden" : 0,
													"midpoints" : [  ]
												}

											}
, 											{
												"patchline" : 												{
													"source" : [ "obj-18", 0 ],
													"destination" : [ "obj-6", 0 ],
													"hidden" : 0,
													"midpoints" : [  ]
												}

											}
, 											{
												"patchline" : 												{
													"source" : [ "obj-1", 0 ],
													"destination" : [ "obj-18", 0 ],
													"hidden" : 0,
													"midpoints" : [  ]
												}

											}
, 											{
												"patchline" : 												{
													"source" : [ "obj-18", 1 ],
													"destination" : [ "obj-15", 1 ],
													"hidden" : 0,
													"midpoints" : [ 53.0, 60.5, 293.5, 60.5 ]
												}

											}
, 											{
												"patchline" : 												{
													"source" : [ "obj-3", 0 ],
													"destination" : [ "obj-4", 0 ],
													"hidden" : 0,
													"midpoints" : [  ]
												}

											}
, 											{
												"patchline" : 												{
													"source" : [ "obj-5", 0 ],
													"destination" : [ "obj-3", 0 ],
													"hidden" : 0,
													"midpoints" : [  ]
												}

											}
, 											{
												"patchline" : 												{
													"source" : [ "obj-5", 1 ],
													"destination" : [ "obj-15", 0 ],
													"hidden" : 0,
													"midpoints" : [  ]
												}

											}
, 											{
												"patchline" : 												{
													"source" : [ "obj-15", 0 ],
													"destination" : [ "obj-3", 1 ],
													"hidden" : 0,
													"midpoints" : [  ]
												}

											}
 ]
									}
,
									"saved_object_attributes" : 									{
										"globalpatchername" : "",
										"fontface" : 0,
										"fontsize" : 12.0,
										"default_fontface" : 0,
										"default_fontname" : "Arial",
										"fontname" : "Arial",
										"default_fontsize" : 12.0
									}

								}

							}
 ],
						"lines" : [ 							{
								"patchline" : 								{
									"source" : [ "obj-3", 0 ],
									"destination" : [ "obj-11", 0 ],
									"hidden" : 0,
									"midpoints" : [ 17.5, 168.0, 30.5, 168.0 ]
								}

							}
, 							{
								"patchline" : 								{
									"source" : [ "obj-17", 0 ],
									"destination" : [ "obj-12", 0 ],
									"hidden" : 0,
									"midpoints" : [ 348.5, 80.0, 628.5, 80.0 ]
								}

							}
, 							{
								"patchline" : 								{
									"source" : [ "obj-17", 0 ],
									"destination" : [ "obj-10", 0 ],
									"hidden" : 0,
									"midpoints" : [ 348.5, 80.0, 437.5, 80.0 ]
								}

							}
, 							{
								"patchline" : 								{
									"source" : [ "obj-3", 0 ],
									"destination" : [ "obj-8", 0 ],
									"hidden" : 0,
									"midpoints" : [ 17.5, 73.0, 42.5, 73.0 ]
								}

							}
, 							{
								"patchline" : 								{
									"source" : [ "obj-3", 0 ],
									"destination" : [ "obj-17", 0 ],
									"hidden" : 0,
									"midpoints" : [ 17.5, 34.0, 348.5, 34.0 ]
								}

							}
, 							{
								"patchline" : 								{
									"source" : [ "obj-17", 0 ],
									"destination" : [ "obj-2", 0 ],
									"hidden" : 0,
									"midpoints" : [  ]
								}

							}
, 							{
								"patchline" : 								{
									"source" : [ "obj-3", 0 ],
									"destination" : [ "obj-5", 0 ],
									"hidden" : 0,
									"midpoints" : [ 17.5, 119.5, 34.5, 119.5 ]
								}

							}
, 							{
								"patchline" : 								{
									"source" : [ "obj-3", 0 ],
									"destination" : [ "obj-1", 0 ],
									"hidden" : 0,
									"midpoints" : [ 17.5, 34.5, 40.5, 34.5 ]
								}

							}
, 							{
								"patchline" : 								{
									"source" : [ "obj-3", 0 ],
									"destination" : [ "obj-13", 0 ],
									"hidden" : 0,
									"midpoints" : [  ]
								}

							}
, 							{
								"patchline" : 								{
									"source" : [ "obj-17", 0 ],
									"destination" : [ "obj-14", 0 ],
									"hidden" : 0,
									"midpoints" : [ 348.5, 80.0, 728.5, 80.0 ]
								}

							}
, 							{
								"patchline" : 								{
									"source" : [ "obj-17", 0 ],
									"destination" : [ "obj-6", 0 ],
									"hidden" : 0,
									"midpoints" : [ 348.5, 80.899994, 539.5, 80.899994 ]
								}

							}
 ]
					}
,
					"saved_object_attributes" : 					{
						"globalpatchername" : "",
						"fontface" : 0,
						"fontsize" : 12.0,
						"default_fontface" : 0,
						"default_fontname" : "Arial",
						"fontname" : "Arial",
						"default_fontsize" : 12.0
					}

				}

			}
, 			{
				"box" : 				{
					"maxclass" : "meter~",
					"numinlets" : 1,
					"presentation_rect" : [ 2.0, 2.0, 15.0, 166.0 ],
					"numoutlets" : 1,
					"outlettype" : [ "float" ],
					"patching_rect" : [ 53.0, 195.0, 15.0, 74.0 ],
					"presentation" : 1,
					"id" : "obj-36"
				}

			}
, 			{
				"box" : 				{
					"maxclass" : "meter~",
					"numinlets" : 1,
					"presentation_rect" : [ 91.0, 2.0, 15.0, 166.0 ],
					"numoutlets" : 1,
					"outlettype" : [ "float" ],
					"patching_rect" : [ 68.0, 634.0, 15.0, 74.0 ],
					"presentation" : 1,
					"id" : "obj-26"
				}

			}
, 			{
				"box" : 				{
					"maxclass" : "panel",
					"rounded" : 10,
					"numinlets" : 1,
					"presentation_rect" : [ 18.0, 2.0, 72.0, 166.0 ],
					"numoutlets" : 0,
					"bgcolor" : [ 0.784314, 0.784314, 0.784314, 1.0 ],
					"patching_rect" : [ 86.0, 635.0, 30.0, 26.0 ],
					"presentation" : 1,
					"id" : "obj-2"
				}

			}
 ],
		"lines" : [ 			{
				"patchline" : 				{
					"source" : [ "obj-1", 0 ],
					"destination" : [ "obj-13", 0 ],
					"hidden" : 0,
					"midpoints" : [  ]
				}

			}
, 			{
				"patchline" : 				{
					"source" : [ "obj-9", 0 ],
					"destination" : [ "obj-11", 0 ],
					"hidden" : 0,
					"midpoints" : [  ]
				}

			}
, 			{
				"patchline" : 				{
					"source" : [ "obj-65", 0 ],
					"destination" : [ "obj-76", 0 ],
					"hidden" : 0,
					"midpoints" : [ 671.5, 281.0, 49.5, 281.0 ]
				}

			}
, 			{
				"patchline" : 				{
					"source" : [ "obj-67", 0 ],
					"destination" : [ "obj-76", 0 ],
					"hidden" : 0,
					"midpoints" : [ 174.5, 281.5, 49.5, 281.5 ]
				}

			}
, 			{
				"patchline" : 				{
					"source" : [ "obj-63", 1 ],
					"destination" : [ "obj-65", 0 ],
					"hidden" : 0,
					"midpoints" : [  ]
				}

			}
, 			{
				"patchline" : 				{
					"source" : [ "obj-63", 0 ],
					"destination" : [ "obj-66", 0 ],
					"hidden" : 0,
					"midpoints" : [  ]
				}

			}
, 			{
				"patchline" : 				{
					"source" : [ "obj-61", 0 ],
					"destination" : [ "obj-63", 0 ],
					"hidden" : 0,
					"midpoints" : [  ]
				}

			}
, 			{
				"patchline" : 				{
					"source" : [ "obj-1", 0 ],
					"destination" : [ "obj-76", 0 ],
					"hidden" : 0,
					"midpoints" : [  ]
				}

			}
, 			{
				"patchline" : 				{
					"source" : [ "obj-1", 0 ],
					"destination" : [ "obj-36", 0 ],
					"hidden" : 0,
					"midpoints" : [  ]
				}

			}
, 			{
				"patchline" : 				{
					"source" : [ "obj-59", 0 ],
					"destination" : [ "obj-67", 0 ],
					"hidden" : 0,
					"midpoints" : [  ]
				}

			}
, 			{
				"patchline" : 				{
					"source" : [ "obj-68", 0 ],
					"destination" : [ "obj-59", 0 ],
					"hidden" : 0,
					"midpoints" : [  ]
				}

			}
, 			{
				"patchline" : 				{
					"source" : [ "obj-59", 5 ],
					"destination" : [ "obj-61", 0 ],
					"hidden" : 0,
					"midpoints" : [  ]
				}

			}
, 			{
				"patchline" : 				{
					"source" : [ "obj-59", 1 ],
					"destination" : [ "obj-5", 0 ],
					"hidden" : 0,
					"midpoints" : [  ]
				}

			}
, 			{
				"patchline" : 				{
					"source" : [ "obj-59", 2 ],
					"destination" : [ "obj-6", 0 ],
					"hidden" : 0,
					"midpoints" : [  ]
				}

			}
, 			{
				"patchline" : 				{
					"source" : [ "obj-5", 0 ],
					"destination" : [ "obj-76", 0 ],
					"hidden" : 0,
					"midpoints" : [ 242.5, 281.0, 49.5, 281.0 ]
				}

			}
, 			{
				"patchline" : 				{
					"source" : [ "obj-6", 0 ],
					"destination" : [ "obj-76", 0 ],
					"hidden" : 0,
					"midpoints" : [ 309.5, 281.5, 49.5, 281.5 ]
				}

			}
, 			{
				"patchline" : 				{
					"source" : [ "obj-59", 3 ],
					"destination" : [ "obj-8", 0 ],
					"hidden" : 0,
					"midpoints" : [  ]
				}

			}
, 			{
				"patchline" : 				{
					"source" : [ "obj-8", 0 ],
					"destination" : [ "obj-76", 0 ],
					"hidden" : 0,
					"midpoints" : [ 377.5, 281.5, 49.5, 281.5 ]
				}

			}
, 			{
				"patchline" : 				{
					"source" : [ "obj-59", 4 ],
					"destination" : [ "obj-12", 0 ],
					"hidden" : 0,
					"midpoints" : [ 444.5, 223.0, 398.5, 223.0 ]
				}

			}
, 			{
				"patchline" : 				{
					"source" : [ "obj-12", 0 ],
					"destination" : [ "obj-76", 0 ],
					"hidden" : 0,
					"midpoints" : [ 398.5, 281.0, 49.5, 281.0 ]
				}

			}
, 			{
				"patchline" : 				{
					"source" : [ "obj-102", 0 ],
					"destination" : [ "obj-108", 0 ],
					"hidden" : 0,
					"midpoints" : [  ]
				}

			}
, 			{
				"patchline" : 				{
					"source" : [ "obj-118", 0 ],
					"destination" : [ "obj-108", 0 ],
					"hidden" : 0,
					"midpoints" : [ 95.5, 587.0, 49.5, 587.0 ]
				}

			}
, 			{
				"patchline" : 				{
					"source" : [ "obj-115", 0 ],
					"destination" : [ "obj-102", 1 ],
					"hidden" : 0,
					"midpoints" : [  ]
				}

			}
, 			{
				"patchline" : 				{
					"source" : [ "obj-117", 0 ],
					"destination" : [ "obj-118", 1 ],
					"hidden" : 0,
					"midpoints" : [  ]
				}

			}
, 			{
				"patchline" : 				{
					"source" : [ "obj-115", 0 ],
					"destination" : [ "obj-117", 0 ],
					"hidden" : 0,
					"midpoints" : [ 69.5, 453.5, 203.5, 453.5 ]
				}

			}
, 			{
				"patchline" : 				{
					"source" : [ "obj-114", 0 ],
					"destination" : [ "obj-115", 0 ],
					"hidden" : 0,
					"midpoints" : [  ]
				}

			}
, 			{
				"patchline" : 				{
					"source" : [ "obj-110", 0 ],
					"destination" : [ "obj-114", 0 ],
					"hidden" : 0,
					"midpoints" : [  ]
				}

			}
, 			{
				"patchline" : 				{
					"source" : [ "obj-35", 0 ],
					"destination" : [ "obj-110", 0 ],
					"hidden" : 0,
					"midpoints" : [  ]
				}

			}
, 			{
				"patchline" : 				{
					"source" : [ "obj-104", 0 ],
					"destination" : [ "obj-108", 1 ],
					"hidden" : 0,
					"midpoints" : [  ]
				}

			}
, 			{
				"patchline" : 				{
					"source" : [ "obj-34", 0 ],
					"destination" : [ "obj-104", 0 ],
					"hidden" : 0,
					"midpoints" : [  ]
				}

			}
, 			{
				"patchline" : 				{
					"source" : [ "obj-120", 0 ],
					"destination" : [ "obj-118", 0 ],
					"hidden" : 0,
					"midpoints" : [  ]
				}

			}
, 			{
				"patchline" : 				{
					"source" : [ "obj-108", 0 ],
					"destination" : [ "obj-3", 0 ],
					"hidden" : 0,
					"midpoints" : [  ]
				}

			}
, 			{
				"patchline" : 				{
					"source" : [ "obj-108", 0 ],
					"destination" : [ "obj-26", 0 ],
					"hidden" : 0,
					"midpoints" : [ 49.5, 628.0, 77.0, 628.0 ]
				}

			}
, 			{
				"patchline" : 				{
					"source" : [ "obj-76", 0 ],
					"destination" : [ "obj-102", 0 ],
					"hidden" : 0,
					"midpoints" : [  ]
				}

			}
 ],
		"parameters" : 		{
			"obj-34" : [ "live.dial[18]", "Volume", 0 ],
			"obj-68" : [ "live.menu[3]", "live.menu", 0 ],
			"obj-35" : [ "live.dial[14]", "Dry/Wet", 0 ]
		}

	}

}
