{
	"patcher" : 	{
		"fileversion" : 1,
		"rect" : [ 709.0, 252.0, 810.0, 511.0 ],
		"bglocked" : 0,
		"defrect" : [ 709.0, 252.0, 810.0, 511.0 ],
		"openrect" : [ 0.0, 0.0, 0.0, 0.0 ],
		"openinpresentation" : 1,
		"default_fontsize" : 12.0,
		"default_fontface" : 0,
		"default_fontname" : "Arial",
		"gridonopen" : 0,
		"gridsize" : [ 15.0, 15.0 ],
		"gridsnaponopen" : 0,
		"toolbarvisible" : 1,
		"boxanimatetime" : 200,
		"imprint" : 0,
		"enablehscroll" : 1,
		"enablevscroll" : 1,
		"devicewidth" : 0.0,
		"boxes" : [ 			{
				"box" : 				{
					"maxclass" : "newobj",
					"text" : "send~ #0-c_dry",
					"numinlets" : 1,
					"numoutlets" : 0,
					"patching_rect" : [ 142.0, 102.0, 94.0, 20.0 ],
					"id" : "obj-13",
					"fontname" : "Arial",
					"fontsize" : 12.0
				}

			}
, 			{
				"box" : 				{
					"maxclass" : "live.line",
					"numinlets" : 1,
					"numoutlets" : 0,
					"patching_rect" : [ 381.0, 178.0, 5.0, 100.0 ],
					"presentation" : 1,
					"id" : "obj-11",
					"presentation_rect" : [ 24.0, 79.0, 56.0, 5.0 ]
				}

			}
, 			{
				"box" : 				{
					"maxclass" : "meter~",
					"numinlets" : 1,
					"numoutlets" : 1,
					"patching_rect" : [ 89.0, 656.0, 15.0, 74.0 ],
					"presentation" : 1,
					"id" : "obj-4",
					"outlettype" : [ "float" ],
					"presentation_rect" : [ 88.0, 0.0, 15.0, 166.0 ]
				}

			}
, 			{
				"box" : 				{
					"maxclass" : "outlet",
					"numinlets" : 1,
					"numoutlets" : 0,
					"patching_rect" : [ 109.0, 659.0, 25.0, 25.0 ],
					"id" : "obj-46",
					"comment" : ""
				}

			}
, 			{
				"box" : 				{
					"maxclass" : "newobj",
					"text" : "receive~ #0-c_dry",
					"numinlets" : 1,
					"numoutlets" : 1,
					"patching_rect" : [ 155.0, 483.0, 106.0, 20.0 ],
					"id" : "obj-120",
					"fontname" : "Arial",
					"outlettype" : [ "signal" ],
					"fontsize" : 12.0
				}

			}
, 			{
				"box" : 				{
					"maxclass" : "newobj",
					"text" : "*~",
					"numinlets" : 2,
					"numoutlets" : 1,
					"patching_rect" : [ 155.0, 515.0, 126.5, 20.0 ],
					"id" : "obj-118",
					"fontname" : "Arial",
					"outlettype" : [ "signal" ],
					"fontsize" : 12.0
				}

			}
, 			{
				"box" : 				{
					"maxclass" : "newobj",
					"text" : "!-~ 1.",
					"numinlets" : 2,
					"numoutlets" : 1,
					"patching_rect" : [ 263.0, 483.0, 38.0, 20.0 ],
					"id" : "obj-117",
					"fontname" : "Arial",
					"outlettype" : [ "signal" ],
					"fontsize" : 12.0
				}

			}
, 			{
				"box" : 				{
					"maxclass" : "newobj",
					"text" : "line~",
					"numinlets" : 2,
					"numoutlets" : 2,
					"patching_rect" : [ 129.0, 447.0, 36.0, 20.0 ],
					"id" : "obj-115",
					"fontname" : "Arial",
					"outlettype" : [ "signal", "bang" ],
					"fontsize" : 12.0
				}

			}
, 			{
				"box" : 				{
					"maxclass" : "message",
					"text" : "$1 50",
					"numinlets" : 2,
					"numoutlets" : 1,
					"patching_rect" : [ 129.0, 424.0, 41.0, 18.0 ],
					"id" : "obj-114",
					"fontname" : "Arial",
					"outlettype" : [ "" ],
					"fontsize" : 12.0
				}

			}
, 			{
				"box" : 				{
					"maxclass" : "newobj",
					"text" : "/ 100.",
					"numinlets" : 2,
					"numoutlets" : 1,
					"patching_rect" : [ 129.0, 399.0, 41.0, 20.0 ],
					"id" : "obj-110",
					"fontname" : "Arial",
					"outlettype" : [ "float" ],
					"fontsize" : 12.0
				}

			}
, 			{
				"box" : 				{
					"maxclass" : "newobj",
					"text" : "*~ 1.",
					"numinlets" : 2,
					"numoutlets" : 1,
					"patching_rect" : [ 109.0, 619.0, 36.0, 20.0 ],
					"id" : "obj-108",
					"fontname" : "Arial",
					"outlettype" : [ "signal" ],
					"fontsize" : 12.0
				}

			}
, 			{
				"box" : 				{
					"maxclass" : "newobj",
					"text" : "*~",
					"numinlets" : 2,
					"numoutlets" : 1,
					"patching_rect" : [ 109.0, 515.0, 38.5, 20.0 ],
					"id" : "obj-102",
					"fontname" : "Arial",
					"outlettype" : [ "signal" ],
					"fontsize" : 12.0
				}

			}
, 			{
				"box" : 				{
					"maxclass" : "live.dial",
					"varname" : "live.dial[3]",
					"numinlets" : 1,
					"numoutlets" : 2,
					"patching_rect" : [ 129.0, 346.0, 44.0, 47.0 ],
					"presentation" : 1,
					"id" : "obj-35",
					"parameter_enable" : 1,
					"outlettype" : [ "", "float" ],
					"presentation_rect" : [ 30.0, 115.0, 44.0, 47.0 ],
					"saved_attribute_attributes" : 					{
						"valueof" : 						{
							"parameter_speedlim" : 1.0,
							"parameter_steps" : 0,
							"parameter_invisible" : 0,
							"parameter_exponent" : 1.0,
							"parameter_annotation_name" : "",
							"parameter_unitstyle" : 5,
							"parameter_mmax" : 100.0,
							"parameter_mmin" : 0.0,
							"parameter_initial" : [ 50 ],
							"parameter_type" : 0,
							"parameter_initial_enable" : 1,
							"parameter_shortname" : "Dry/Wet",
							"parameter_modmax" : 127.0,
							"parameter_longname" : "live.dial[14]",
							"parameter_modmin" : 0.0,
							"parameter_linknames" : 0,
							"parameter_modmode" : 0,
							"parameter_info" : "",
							"parameter_units" : "",
							"parameter_order" : 0,
							"parameter_defer" : 0
						}

					}

				}

			}
, 			{
				"box" : 				{
					"maxclass" : "panel",
					"bgcolor" : [ 0.784314, 0.784314, 0.784314, 1.0 ],
					"numinlets" : 1,
					"numoutlets" : 0,
					"patching_rect" : [ 106.0, 658.0, 30.0, 26.0 ],
					"id" : "obj-6",
					"rounded" : 10
				}

			}
, 			{
				"box" : 				{
					"maxclass" : "message",
					"text" : "start",
					"numinlets" : 2,
					"numoutlets" : 1,
					"patching_rect" : [ 163.0, 236.0, 34.0, 18.0 ],
					"id" : "obj-3",
					"fontname" : "Arial",
					"outlettype" : [ "" ],
					"fontsize" : 12.0
				}

			}
, 			{
				"box" : 				{
					"maxclass" : "inlet",
					"numinlets" : 0,
					"numoutlets" : 1,
					"patching_rect" : [ 109.0, 66.0, 25.0, 25.0 ],
					"id" : "obj-30",
					"outlettype" : [ "" ],
					"comment" : ""
				}

			}
, 			{
				"box" : 				{
					"maxclass" : "live.dial",
					"varname" : "live.dial",
					"numinlets" : 1,
					"numoutlets" : 2,
					"patching_rect" : [ 9.0, 160.0, 47.0, 36.0 ],
					"presentation" : 1,
					"id" : "obj-29",
					"parameter_enable" : 1,
					"outlettype" : [ "", "float" ],
					"appearance" : 1,
					"presentation_rect" : [ 21.0, 6.0, 69.0, 36.0 ],
					"saved_attribute_attributes" : 					{
						"valueof" : 						{
							"parameter_speedlim" : 1.0,
							"parameter_steps" : 0,
							"parameter_invisible" : 0,
							"parameter_exponent" : 1.0,
							"parameter_annotation_name" : "",
							"parameter_unitstyle" : 1,
							"parameter_mmax" : 2.0,
							"parameter_mmin" : 0.1,
							"parameter_initial" : [ 1.0 ],
							"parameter_type" : 0,
							"parameter_initial_enable" : 1,
							"parameter_shortname" : "Tranposition",
							"parameter_modmax" : 127.0,
							"parameter_longname" : "live.dial",
							"parameter_modmin" : 0.0,
							"parameter_linknames" : 0,
							"parameter_modmode" : 0,
							"parameter_info" : "",
							"parameter_units" : "",
							"parameter_order" : 0,
							"parameter_defer" : 0
						}

					}

				}

			}
, 			{
				"box" : 				{
					"maxclass" : "comment",
					"text" : "Window Size",
					"numinlets" : 1,
					"numoutlets" : 0,
					"patching_rect" : [ 201.0, 155.0, 75.0, 18.0 ],
					"presentation" : 1,
					"id" : "obj-23",
					"fontname" : "Arial",
					"fontface" : 1,
					"fontsize" : 10.0,
					"presentation_rect" : [ 17.0, 44.0, 71.0, 18.0 ]
				}

			}
, 			{
				"box" : 				{
					"maxclass" : "live.menu",
					"varname" : "live.menu",
					"numinlets" : 1,
					"pictures" : [  ],
					"numoutlets" : 3,
					"patching_rect" : [ 143.0, 156.0, 58.0, 15.0 ],
					"presentation" : 1,
					"id" : "obj-19",
					"parameter_enable" : 1,
					"outlettype" : [ "", "", "float" ],
					"presentation_rect" : [ 21.0, 60.0, 58.0, 15.0 ],
					"saved_attribute_attributes" : 					{
						"valueof" : 						{
							"parameter_speedlim" : 1.0,
							"parameter_steps" : 0,
							"parameter_invisible" : 0,
							"parameter_enum" : [ "256", "512", "1024", "2048", "4096" ],
							"parameter_exponent" : 1.0,
							"parameter_annotation_name" : "",
							"parameter_unitstyle" : 10,
							"parameter_mmax" : 127.0,
							"parameter_mmin" : 0.0,
							"parameter_initial" : [ 2 ],
							"parameter_type" : 2,
							"parameter_initial_enable" : 1,
							"parameter_shortname" : "live.menu",
							"parameter_modmax" : 127.0,
							"parameter_longname" : "live.menu",
							"parameter_modmin" : 0.0,
							"parameter_linknames" : 0,
							"parameter_modmode" : 0,
							"parameter_info" : "",
							"parameter_units" : "",
							"parameter_order" : 0,
							"parameter_defer" : 0
						}

					}

				}

			}
, 			{
				"box" : 				{
					"maxclass" : "comment",
					"text" : "Overlap",
					"numinlets" : 1,
					"numoutlets" : 0,
					"patching_rect" : [ 322.0, 155.0, 86.0, 18.0 ],
					"presentation" : 1,
					"id" : "obj-12",
					"fontname" : "Arial",
					"fontface" : 1,
					"fontsize" : 10.0,
					"presentation_rect" : [ 29.0, 83.0, 47.0, 18.0 ]
				}

			}
, 			{
				"box" : 				{
					"maxclass" : "live.numbox",
					"varname" : "live.numbox",
					"numinlets" : 1,
					"numoutlets" : 2,
					"patching_rect" : [ 284.0, 156.0, 36.0, 15.0 ],
					"presentation" : 1,
					"id" : "obj-9",
					"parameter_enable" : 1,
					"outlettype" : [ "", "float" ],
					"presentation_rect" : [ 29.0, 99.0, 42.0, 15.0 ],
					"saved_attribute_attributes" : 					{
						"valueof" : 						{
							"parameter_speedlim" : 1.0,
							"parameter_steps" : 0,
							"parameter_invisible" : 0,
							"parameter_exponent" : 1.0,
							"parameter_annotation_name" : "",
							"parameter_unitstyle" : 0,
							"parameter_mmax" : 16.0,
							"parameter_mmin" : 1.0,
							"parameter_initial" : [ 4 ],
							"parameter_type" : 1,
							"parameter_initial_enable" : 1,
							"parameter_shortname" : "live.numbox",
							"parameter_modmax" : 127.0,
							"parameter_longname" : "live.numbox",
							"parameter_modmin" : 0.0,
							"parameter_linknames" : 0,
							"parameter_modmode" : 0,
							"parameter_info" : "",
							"parameter_units" : "",
							"parameter_order" : 0,
							"parameter_defer" : 0
						}

					}

				}

			}
, 			{
				"box" : 				{
					"maxclass" : "message",
					"text" : "c overlapfactor $1",
					"numinlets" : 2,
					"numoutlets" : 1,
					"patching_rect" : [ 284.0, 179.0, 106.0, 18.0 ],
					"id" : "obj-8",
					"fontname" : "Arial",
					"outlettype" : [ "" ],
					"fontsize" : 12.0
				}

			}
, 			{
				"box" : 				{
					"maxclass" : "message",
					"text" : "c windowsize $1",
					"numinlets" : 2,
					"numoutlets" : 1,
					"patching_rect" : [ 163.0, 179.0, 98.0, 18.0 ],
					"id" : "obj-5",
					"fontname" : "Arial",
					"outlettype" : [ "" ],
					"fontsize" : 12.0
				}

			}
, 			{
				"box" : 				{
					"maxclass" : "message",
					"text" : "c transposition $1",
					"numinlets" : 2,
					"numoutlets" : 1,
					"patching_rect" : [ 9.0, 211.0, 105.0, 18.0 ],
					"id" : "obj-7",
					"fontname" : "Arial",
					"outlettype" : [ "" ],
					"fontsize" : 12.0
				}

			}
, 			{
				"box" : 				{
					"maxclass" : "comment",
					"text" : "To Do: \n- set sample rate and ksamps for all files using variables from max msp\n- fix transposition scaling",
					"linecount" : 3,
					"numinlets" : 1,
					"numoutlets" : 0,
					"patching_rect" : [ 269.0, 293.0, 411.0, 48.0 ],
					"id" : "obj-10",
					"fontname" : "Arial",
					"fontsize" : 12.0
				}

			}
, 			{
				"box" : 				{
					"maxclass" : "newobj",
					"text" : "csound~ @args cs_phasevocoder.csd @i 1 @o 1 @autostart 1",
					"numinlets" : 1,
					"numoutlets" : 5,
					"patching_rect" : [ 109.0, 269.0, 346.0, 20.0 ],
					"id" : "obj-1",
					"fontname" : "Arial",
					"outlettype" : [ "signal", "list", "int", "bang", "bang" ],
					"fontsize" : 12.0,
					"saved_object_attributes" : 					{
						"autostart" : 1,
						"matchsr" : 1,
						"bypass" : 0,
						"output" : 1,
						"overdrive" : 0,
						"interval" : 10,
						"message" : 1,
						"args" : "cs_phasevocoder.csd",
						"input" : 1
					}

				}

			}
, 			{
				"box" : 				{
					"maxclass" : "meter~",
					"numinlets" : 1,
					"numoutlets" : 1,
					"patching_rect" : [ 123.0, 99.0, 15.0, 74.0 ],
					"presentation" : 1,
					"id" : "obj-36",
					"outlettype" : [ "float" ],
					"presentation_rect" : [ 1.0, 1.0, 15.0, 166.0 ]
				}

			}
, 			{
				"box" : 				{
					"maxclass" : "panel",
					"bgcolor" : [ 0.784314, 0.784314, 0.784314, 1.0 ],
					"numinlets" : 1,
					"numoutlets" : 0,
					"patching_rect" : [ 201.0, 236.0, 30.0, 26.0 ],
					"presentation" : 1,
					"id" : "obj-2",
					"rounded" : 10,
					"presentation_rect" : [ 18.0, 1.0, 68.0, 166.0 ]
				}

			}
 ],
		"lines" : [ 			{
				"patchline" : 				{
					"source" : [ "obj-3", 0 ],
					"destination" : [ "obj-1", 0 ],
					"hidden" : 0,
					"midpoints" : [ 172.5, 261.0, 118.5, 261.0 ]
				}

			}
, 			{
				"patchline" : 				{
					"source" : [ "obj-30", 0 ],
					"destination" : [ "obj-1", 0 ],
					"hidden" : 0,
					"midpoints" : [  ]
				}

			}
, 			{
				"patchline" : 				{
					"source" : [ "obj-8", 0 ],
					"destination" : [ "obj-1", 0 ],
					"hidden" : 0,
					"midpoints" : [ 293.5, 230.0, 118.5, 230.0 ]
				}

			}
, 			{
				"patchline" : 				{
					"source" : [ "obj-5", 0 ],
					"destination" : [ "obj-1", 0 ],
					"hidden" : 0,
					"midpoints" : [ 172.5, 230.0, 118.5, 230.0 ]
				}

			}
, 			{
				"patchline" : 				{
					"source" : [ "obj-7", 0 ],
					"destination" : [ "obj-1", 0 ],
					"hidden" : 0,
					"midpoints" : [ 18.5, 234.0, 118.5, 234.0 ]
				}

			}
, 			{
				"patchline" : 				{
					"source" : [ "obj-1", 0 ],
					"destination" : [ "obj-102", 0 ],
					"hidden" : 0,
					"midpoints" : [  ]
				}

			}
, 			{
				"patchline" : 				{
					"source" : [ "obj-108", 0 ],
					"destination" : [ "obj-4", 0 ],
					"hidden" : 0,
					"midpoints" : [  ]
				}

			}
, 			{
				"patchline" : 				{
					"source" : [ "obj-108", 0 ],
					"destination" : [ "obj-46", 0 ],
					"hidden" : 0,
					"midpoints" : [  ]
				}

			}
, 			{
				"patchline" : 				{
					"source" : [ "obj-102", 0 ],
					"destination" : [ "obj-108", 0 ],
					"hidden" : 0,
					"midpoints" : [  ]
				}

			}
, 			{
				"patchline" : 				{
					"source" : [ "obj-118", 0 ],
					"destination" : [ "obj-108", 0 ],
					"hidden" : 0,
					"midpoints" : [ 164.5, 607.0, 118.5, 607.0 ]
				}

			}
, 			{
				"patchline" : 				{
					"source" : [ "obj-120", 0 ],
					"destination" : [ "obj-118", 0 ],
					"hidden" : 0,
					"midpoints" : [  ]
				}

			}
, 			{
				"patchline" : 				{
					"source" : [ "obj-35", 0 ],
					"destination" : [ "obj-110", 0 ],
					"hidden" : 0,
					"midpoints" : [  ]
				}

			}
, 			{
				"patchline" : 				{
					"source" : [ "obj-110", 0 ],
					"destination" : [ "obj-114", 0 ],
					"hidden" : 0,
					"midpoints" : [  ]
				}

			}
, 			{
				"patchline" : 				{
					"source" : [ "obj-114", 0 ],
					"destination" : [ "obj-115", 0 ],
					"hidden" : 0,
					"midpoints" : [  ]
				}

			}
, 			{
				"patchline" : 				{
					"source" : [ "obj-115", 0 ],
					"destination" : [ "obj-117", 0 ],
					"hidden" : 0,
					"midpoints" : [ 138.5, 473.5, 272.5, 473.5 ]
				}

			}
, 			{
				"patchline" : 				{
					"source" : [ "obj-117", 0 ],
					"destination" : [ "obj-118", 1 ],
					"hidden" : 0,
					"midpoints" : [  ]
				}

			}
, 			{
				"patchline" : 				{
					"source" : [ "obj-115", 0 ],
					"destination" : [ "obj-102", 1 ],
					"hidden" : 0,
					"midpoints" : [  ]
				}

			}
, 			{
				"patchline" : 				{
					"source" : [ "obj-30", 0 ],
					"destination" : [ "obj-36", 0 ],
					"hidden" : 0,
					"midpoints" : [ 118.5, 94.5, 132.0, 94.5 ]
				}

			}
, 			{
				"patchline" : 				{
					"source" : [ "obj-9", 0 ],
					"destination" : [ "obj-8", 0 ],
					"hidden" : 0,
					"midpoints" : [  ]
				}

			}
, 			{
				"patchline" : 				{
					"source" : [ "obj-19", 1 ],
					"destination" : [ "obj-5", 0 ],
					"hidden" : 0,
					"midpoints" : [  ]
				}

			}
, 			{
				"patchline" : 				{
					"source" : [ "obj-29", 0 ],
					"destination" : [ "obj-7", 0 ],
					"hidden" : 0,
					"midpoints" : [  ]
				}

			}
, 			{
				"patchline" : 				{
					"source" : [ "obj-5", 0 ],
					"destination" : [ "obj-3", 0 ],
					"hidden" : 0,
					"midpoints" : [  ]
				}

			}
, 			{
				"patchline" : 				{
					"source" : [ "obj-8", 0 ],
					"destination" : [ "obj-3", 0 ],
					"hidden" : 0,
					"midpoints" : [ 293.5, 230.0, 172.5, 230.0 ]
				}

			}
, 			{
				"patchline" : 				{
					"source" : [ "obj-30", 0 ],
					"destination" : [ "obj-13", 0 ],
					"hidden" : 0,
					"midpoints" : [ 118.5, 94.5, 151.5, 94.5 ]
				}

			}
 ],
		"parameters" : 		{
			"obj-29" : [ "live.dial", "Tranposition", 0 ],
			"obj-9" : [ "live.numbox", "live.numbox", 0 ],
			"obj-35" : [ "live.dial[14]", "Dry/Wet", 0 ],
			"obj-19" : [ "live.menu", "live.menu", 0 ]
		}

	}

}
