{
	"patcher" : 	{
		"fileversion" : 1,
		"rect" : [ 190.0, 209.0, 1730.0, 806.0 ],
		"bglocked" : 0,
		"defrect" : [ 190.0, 209.0, 1730.0, 806.0 ],
		"openrect" : [ 0.0, 0.0, 0.0, 0.0 ],
		"openinpresentation" : 1,
		"default_fontsize" : 12.0,
		"default_fontface" : 0,
		"default_fontname" : "Arial",
		"gridonopen" : 0,
		"gridsize" : [ 15.0, 15.0 ],
		"gridsnaponopen" : 0,
		"toolbarvisible" : 1,
		"boxanimatetime" : 200,
		"imprint" : 0,
		"enablehscroll" : 1,
		"enablevscroll" : 1,
		"devicewidth" : 0.0,
		"boxes" : [ 			{
				"box" : 				{
					"maxclass" : "newobj",
					"varname" : "harmstate",
					"text" : "autopattr harmstate @autoname 1",
					"numoutlets" : 4,
					"fontsize" : 12.0,
					"outlettype" : [ "", "", "", "" ],
					"patching_rect" : [ 990.0, 1115.0, 193.0, 20.0 ],
					"fontname" : "Arial",
					"numinlets" : 1,
					"id" : "obj-18",
					"restore" : 					{
						"live.dial" : [ -12.0 ],
						"live.dial[1]" : [ -12.0 ],
						"live.dial[2]" : [ -12.0 ],
						"live.dial[3]" : [ 0.0 ],
						"live.dial[4]" : [ -12.0 ],
						"live.dial[5]" : [ -6.0 ],
						"live.text[1]" : [ 0.0 ],
						"live.text[2]" : [ 0.0 ],
						"live.text[3]" : [ 0.0 ],
						"live.text[4]" : [ 0.0 ],
						"live.toggle" : [ 0.0 ],
						"live.toggle[1]" : [ 0.0 ],
						"live.toggle[2]" : [ 0.0 ],
						"live.toggle[3]" : [ 0.0 ]
					}

				}

			}
, 			{
				"box" : 				{
					"maxclass" : "newobj",
					"text" : "loadmess 0",
					"numoutlets" : 1,
					"fontsize" : 12.0,
					"outlettype" : [ "" ],
					"patching_rect" : [ 1377.0, 595.0, 72.0, 20.0 ],
					"fontname" : "Arial",
					"numinlets" : 1,
					"id" : "obj-17"
				}

			}
, 			{
				"box" : 				{
					"maxclass" : "newobj",
					"text" : "loadmess 0",
					"numoutlets" : 1,
					"fontsize" : 12.0,
					"outlettype" : [ "" ],
					"patching_rect" : [ 908.0, 599.0, 72.0, 20.0 ],
					"fontname" : "Arial",
					"numinlets" : 1,
					"id" : "obj-4"
				}

			}
, 			{
				"box" : 				{
					"maxclass" : "newobj",
					"text" : "loadmess 0",
					"numoutlets" : 1,
					"fontsize" : 12.0,
					"outlettype" : [ "" ],
					"patching_rect" : [ 313.0, 587.0, 72.0, 20.0 ],
					"fontname" : "Arial",
					"numinlets" : 1,
					"id" : "obj-2"
				}

			}
, 			{
				"box" : 				{
					"maxclass" : "newobj",
					"text" : "loadmess 0",
					"numoutlets" : 1,
					"fontsize" : 12.0,
					"outlettype" : [ "" ],
					"patching_rect" : [ -257.0, 617.0, 72.0, 20.0 ],
					"fontname" : "Arial",
					"numinlets" : 1,
					"id" : "obj-1"
				}

			}
, 			{
				"box" : 				{
					"maxclass" : "newobj",
					"text" : "r #0-b_active",
					"numoutlets" : 1,
					"fontsize" : 12.0,
					"outlettype" : [ "" ],
					"patching_rect" : [ 430.0, 599.0, 80.0, 20.0 ],
					"fontname" : "Arial",
					"numinlets" : 0,
					"id" : "obj-29"
				}

			}
, 			{
				"box" : 				{
					"maxclass" : "newobj",
					"text" : "r #0-c_active",
					"numoutlets" : 1,
					"fontsize" : 12.0,
					"outlettype" : [ "" ],
					"patching_rect" : [ 1005.0, 599.0, 79.0, 20.0 ],
					"fontname" : "Arial",
					"numinlets" : 0,
					"id" : "obj-28"
				}

			}
, 			{
				"box" : 				{
					"maxclass" : "newobj",
					"text" : "r #0-d_active",
					"numoutlets" : 1,
					"fontsize" : 12.0,
					"outlettype" : [ "" ],
					"patching_rect" : [ 1505.0, 598.0, 80.0, 20.0 ],
					"fontname" : "Arial",
					"numinlets" : 0,
					"id" : "obj-27"
				}

			}
, 			{
				"box" : 				{
					"maxclass" : "newobj",
					"text" : "r #0-d_active",
					"numoutlets" : 1,
					"fontsize" : 12.0,
					"outlettype" : [ "" ],
					"patching_rect" : [ 1580.0, 456.0, 80.0, 20.0 ],
					"fontname" : "Arial",
					"numinlets" : 0,
					"id" : "obj-26"
				}

			}
, 			{
				"box" : 				{
					"maxclass" : "newobj",
					"text" : "r #0-c_active",
					"numoutlets" : 1,
					"fontsize" : 12.0,
					"outlettype" : [ "" ],
					"patching_rect" : [ 1065.0, 420.0, 79.0, 20.0 ],
					"fontname" : "Arial",
					"numinlets" : 0,
					"id" : "obj-25"
				}

			}
, 			{
				"box" : 				{
					"maxclass" : "newobj",
					"text" : "r #0-b_active",
					"numoutlets" : 1,
					"fontsize" : 12.0,
					"outlettype" : [ "" ],
					"patching_rect" : [ 479.0, 428.0, 80.0, 20.0 ],
					"fontname" : "Arial",
					"numinlets" : 0,
					"id" : "obj-23"
				}

			}
, 			{
				"box" : 				{
					"maxclass" : "newobj",
					"text" : "r #0-a_active",
					"numoutlets" : 1,
					"fontsize" : 12.0,
					"outlettype" : [ "" ],
					"patching_rect" : [ -85.0, 430.0, 80.0, 20.0 ],
					"fontname" : "Arial",
					"numinlets" : 0,
					"id" : "obj-21"
				}

			}
, 			{
				"box" : 				{
					"maxclass" : "newobj",
					"text" : "r #0-a_active",
					"numoutlets" : 1,
					"fontsize" : 12.0,
					"outlettype" : [ "" ],
					"patching_rect" : [ -137.0, 611.0, 80.0, 20.0 ],
					"fontname" : "Arial",
					"numinlets" : 0,
					"id" : "obj-19"
				}

			}
, 			{
				"box" : 				{
					"maxclass" : "newobj",
					"text" : "s #0-d_active",
					"numoutlets" : 0,
					"fontsize" : 12.0,
					"patching_rect" : [ 1390.0, 695.0, 82.0, 20.0 ],
					"fontname" : "Arial",
					"numinlets" : 1,
					"id" : "obj-15"
				}

			}
, 			{
				"box" : 				{
					"maxclass" : "message",
					"text" : "active $1",
					"numoutlets" : 1,
					"fontsize" : 12.0,
					"outlettype" : [ "" ],
					"patching_rect" : [ 1390.0, 674.0, 59.0, 18.0 ],
					"fontname" : "Arial",
					"numinlets" : 2,
					"id" : "obj-16"
				}

			}
, 			{
				"box" : 				{
					"maxclass" : "newobj",
					"text" : "s #0-c_active",
					"numoutlets" : 0,
					"fontsize" : 12.0,
					"patching_rect" : [ 920.0, 685.0, 81.0, 20.0 ],
					"fontname" : "Arial",
					"numinlets" : 1,
					"id" : "obj-13"
				}

			}
, 			{
				"box" : 				{
					"maxclass" : "message",
					"text" : "active $1",
					"numoutlets" : 1,
					"fontsize" : 12.0,
					"outlettype" : [ "" ],
					"patching_rect" : [ 920.0, 664.0, 59.0, 18.0 ],
					"fontname" : "Arial",
					"numinlets" : 2,
					"id" : "obj-14"
				}

			}
, 			{
				"box" : 				{
					"maxclass" : "newobj",
					"text" : "s #0-b_active",
					"numoutlets" : 0,
					"fontsize" : 12.0,
					"patching_rect" : [ 325.0, 673.0, 82.0, 20.0 ],
					"fontname" : "Arial",
					"numinlets" : 1,
					"id" : "obj-7"
				}

			}
, 			{
				"box" : 				{
					"maxclass" : "message",
					"text" : "active $1",
					"numoutlets" : 1,
					"fontsize" : 12.0,
					"outlettype" : [ "" ],
					"patching_rect" : [ 325.0, 652.0, 59.0, 18.0 ],
					"fontname" : "Arial",
					"numinlets" : 2,
					"id" : "obj-12"
				}

			}
, 			{
				"box" : 				{
					"maxclass" : "newobj",
					"text" : "s #0-a_active",
					"numoutlets" : 0,
					"fontsize" : 12.0,
					"patching_rect" : [ -246.0, 699.0, 82.0, 20.0 ],
					"fontname" : "Arial",
					"numinlets" : 1,
					"id" : "obj-6"
				}

			}
, 			{
				"box" : 				{
					"maxclass" : "message",
					"text" : "active $1",
					"numoutlets" : 1,
					"fontsize" : 12.0,
					"outlettype" : [ "" ],
					"patching_rect" : [ -246.0, 678.0, 59.0, 18.0 ],
					"fontname" : "Arial",
					"numinlets" : 2,
					"id" : "obj-5"
				}

			}
, 			{
				"box" : 				{
					"maxclass" : "newobj",
					"text" : "send~ #0-s_dry",
					"numoutlets" : 0,
					"fontsize" : 12.0,
					"patching_rect" : [ 1021.0, 309.0, 94.0, 20.0 ],
					"fontname" : "Arial",
					"numinlets" : 1,
					"id" : "obj-45"
				}

			}
, 			{
				"box" : 				{
					"maxclass" : "live.line",
					"numoutlets" : 0,
					"patching_rect" : [ 980.0, 310.0, 5.0, 58.0 ],
					"presentation" : 1,
					"numinlets" : 1,
					"id" : "obj-122",
					"presentation_rect" : [ 185.0, 8.0, 5.0, 150.0 ]
				}

			}
, 			{
				"box" : 				{
					"maxclass" : "newobj",
					"text" : "receive~ #0-s_dry",
					"numoutlets" : 1,
					"fontsize" : 12.0,
					"outlettype" : [ "signal" ],
					"patching_rect" : [ 1006.0, 913.0, 106.0, 20.0 ],
					"fontname" : "Arial",
					"numinlets" : 1,
					"id" : "obj-120"
				}

			}
, 			{
				"box" : 				{
					"maxclass" : "newobj",
					"text" : "*~",
					"numoutlets" : 1,
					"fontsize" : 12.0,
					"outlettype" : [ "signal" ],
					"patching_rect" : [ 1006.0, 945.0, 126.5, 20.0 ],
					"fontname" : "Arial",
					"numinlets" : 2,
					"id" : "obj-118"
				}

			}
, 			{
				"box" : 				{
					"maxclass" : "newobj",
					"text" : "!-~ 1.",
					"numoutlets" : 1,
					"fontsize" : 12.0,
					"outlettype" : [ "signal" ],
					"patching_rect" : [ 1114.0, 913.0, 38.0, 20.0 ],
					"fontname" : "Arial",
					"numinlets" : 2,
					"id" : "obj-117"
				}

			}
, 			{
				"box" : 				{
					"maxclass" : "newobj",
					"text" : "line~",
					"numoutlets" : 2,
					"fontsize" : 12.0,
					"outlettype" : [ "signal", "bang" ],
					"patching_rect" : [ 980.0, 877.0, 36.0, 20.0 ],
					"fontname" : "Arial",
					"numinlets" : 2,
					"id" : "obj-115"
				}

			}
, 			{
				"box" : 				{
					"maxclass" : "message",
					"text" : "$1 50",
					"numoutlets" : 1,
					"fontsize" : 12.0,
					"outlettype" : [ "" ],
					"patching_rect" : [ 980.0, 854.0, 41.0, 18.0 ],
					"fontname" : "Arial",
					"numinlets" : 2,
					"id" : "obj-114"
				}

			}
, 			{
				"box" : 				{
					"maxclass" : "newobj",
					"text" : "/ 100.",
					"numoutlets" : 1,
					"fontsize" : 12.0,
					"outlettype" : [ "float" ],
					"patching_rect" : [ 980.0, 829.0, 41.0, 20.0 ],
					"fontname" : "Arial",
					"numinlets" : 2,
					"id" : "obj-110"
				}

			}
, 			{
				"box" : 				{
					"maxclass" : "newobj",
					"text" : "*~",
					"numoutlets" : 1,
					"fontsize" : 12.0,
					"outlettype" : [ "signal" ],
					"patching_rect" : [ 960.0, 1070.0, 112.5, 20.0 ],
					"fontname" : "Arial",
					"numinlets" : 2,
					"id" : "obj-108"
				}

			}
, 			{
				"box" : 				{
					"maxclass" : "newobj",
					"text" : "dbtoa",
					"numoutlets" : 1,
					"fontsize" : 12.0,
					"outlettype" : [ "" ],
					"patching_rect" : [ 1054.0, 1044.0, 41.0, 20.0 ],
					"fontname" : "Arial",
					"numinlets" : 1,
					"id" : "obj-104"
				}

			}
, 			{
				"box" : 				{
					"maxclass" : "newobj",
					"text" : "*~",
					"numoutlets" : 1,
					"fontsize" : 12.0,
					"outlettype" : [ "signal" ],
					"patching_rect" : [ 960.0, 945.0, 38.5, 20.0 ],
					"fontname" : "Arial",
					"numinlets" : 2,
					"id" : "obj-102"
				}

			}
, 			{
				"box" : 				{
					"maxclass" : "newobj",
					"text" : "dbtoa",
					"numoutlets" : 1,
					"fontsize" : 12.0,
					"outlettype" : [ "" ],
					"patching_rect" : [ 1505.0, 676.0, 41.0, 20.0 ],
					"fontname" : "Arial",
					"numinlets" : 1,
					"id" : "obj-84"
				}

			}
, 			{
				"box" : 				{
					"maxclass" : "newobj",
					"text" : "gate~",
					"numoutlets" : 1,
					"fontsize" : 12.0,
					"outlettype" : [ "signal" ],
					"patching_rect" : [ 1460.0, 727.0, 41.0, 20.0 ],
					"fontname" : "Arial",
					"numinlets" : 2,
					"id" : "obj-85"
				}

			}
, 			{
				"box" : 				{
					"maxclass" : "live.text",
					"varname" : "live.text[4]",
					"numoutlets" : 2,
					"fontface" : 0,
					"outlettype" : [ "", "" ],
					"patching_rect" : [ 1377.0, 618.0, 30.0, 30.0 ],
					"presentation" : 1,
					"text" : "D",
					"parameter_enable" : 1,
					"texton" : "D",
					"activebgoncolor" : [ 0.976471, 0.580392, 0.0, 1.0 ],
					"numinlets" : 1,
					"id" : "obj-86",
					"presentation_rect" : [ 160.0, 24.0, 15.0, 15.0 ],
					"saved_attribute_attributes" : 					{
						"valueof" : 						{
							"parameter_linknames" : 0,
							"parameter_modmode" : 0,
							"parameter_info" : "",
							"parameter_units" : "",
							"parameter_order" : 0,
							"parameter_defer" : 0,
							"parameter_speedlim" : 1.0,
							"parameter_steps" : 0,
							"parameter_invisible" : 0,
							"parameter_enum" : [ "val1", "val2" ],
							"parameter_exponent" : 1.0,
							"parameter_annotation_name" : "",
							"parameter_unitstyle" : 10,
							"parameter_mmax" : 1.0,
							"parameter_mmin" : 0.0,
							"parameter_type" : 2,
							"parameter_initial_enable" : 0,
							"parameter_shortname" : "live.text",
							"parameter_modmax" : 127.0,
							"parameter_longname" : "live.text[6]",
							"parameter_modmin" : 0.0
						}

					}

				}

			}
, 			{
				"box" : 				{
					"maxclass" : "live.dial",
					"varname" : "live.dial[4]",
					"numoutlets" : 2,
					"fontface" : 0,
					"outlettype" : [ "", "float" ],
					"patching_rect" : [ 1505.0, 626.0, 47.0, 36.0 ],
					"presentation" : 1,
					"appearance" : 1,
					"parameter_enable" : 1,
					"numinlets" : 1,
					"id" : "obj-87",
					"presentation_rect" : [ 95.0, 10.0, 47.0, 36.0 ],
					"saved_attribute_attributes" : 					{
						"valueof" : 						{
							"parameter_linknames" : 0,
							"parameter_modmode" : 0,
							"parameter_info" : "",
							"parameter_units" : "",
							"parameter_order" : 0,
							"parameter_defer" : 0,
							"parameter_speedlim" : 1.0,
							"parameter_steps" : 0,
							"parameter_invisible" : 0,
							"parameter_exponent" : 1.0,
							"parameter_annotation_name" : "",
							"parameter_unitstyle" : 4,
							"parameter_mmax" : 0.0,
							"parameter_mmin" : -70.0,
							"parameter_initial" : [ -12.0 ],
							"parameter_type" : 0,
							"parameter_initial_enable" : 1,
							"parameter_shortname" : "Level",
							"parameter_modmax" : 127.0,
							"parameter_longname" : "live.dial[6]",
							"parameter_modmin" : 0.0
						}

					}

				}

			}
, 			{
				"box" : 				{
					"maxclass" : "comment",
					"text" : "Free",
					"numoutlets" : 0,
					"fontsize" : 10.0,
					"patching_rect" : [ 1714.0, 390.0, 37.0, 18.0 ],
					"presentation" : 1,
					"fontname" : "Arial",
					"numinlets" : 1,
					"id" : "obj-88",
					"presentation_rect" : [ 58.0, 7.0, 29.0, 18.0 ]
				}

			}
, 			{
				"box" : 				{
					"maxclass" : "newobj",
					"text" : "*~ 0.",
					"numoutlets" : 1,
					"fontsize" : 12.0,
					"outlettype" : [ "signal" ],
					"patching_rect" : [ 1482.0, 703.0, 42.0, 20.0 ],
					"fontname" : "Arial",
					"numinlets" : 2,
					"id" : "obj-89"
				}

			}
, 			{
				"box" : 				{
					"maxclass" : "message",
					"text" : "0.",
					"numoutlets" : 1,
					"fontsize" : 12.0,
					"outlettype" : [ "" ],
					"patching_rect" : [ 1659.0, 456.0, 32.5, 18.0 ],
					"fontname" : "Arial",
					"numinlets" : 2,
					"id" : "obj-90"
				}

			}
, 			{
				"box" : 				{
					"maxclass" : "newobj",
					"text" : "pfft~ harmonizer_child~ 4096 4",
					"numoutlets" : 1,
					"fontsize" : 12.0,
					"outlettype" : [ "signal" ],
					"patching_rect" : [ 1482.0, 573.0, 176.0, 20.0 ],
					"fontname" : "Arial",
					"numinlets" : 2,
					"id" : "obj-91"
				}

			}
, 			{
				"box" : 				{
					"maxclass" : "message",
					"text" : "mode $1",
					"numoutlets" : 1,
					"fontsize" : 12.0,
					"outlettype" : [ "" ],
					"patching_rect" : [ 1518.0, 539.0, 57.0, 18.0 ],
					"fontname" : "Arial",
					"numinlets" : 2,
					"id" : "obj-92"
				}

			}
, 			{
				"box" : 				{
					"maxclass" : "comment",
					"text" : "Selection logic for modulating frequency",
					"linecount" : 2,
					"numoutlets" : 0,
					"fontsize" : 12.0,
					"patching_rect" : [ 1842.0, 433.0, 130.0, 34.0 ],
					"fontname" : "Arial",
					"numinlets" : 1,
					"id" : "obj-93"
				}

			}
, 			{
				"box" : 				{
					"maxclass" : "bpatcher",
					"varname" : "frequency_dial_switcher",
					"name" : "frequency_dial_switcher.maxpat",
					"numoutlets" : 1,
					"embed" : 1,
					"outlettype" : [ "" ],
					"patching_rect" : [ 1659.0, 501.0, 58.0, 38.0 ],
					"presentation" : 1,
					"numinlets" : 2,
					"args" : [  ],
					"id" : "obj-94",
					"presentation_rect" : [ 9.0, 10.0, 50.0, 38.0 ],
					"patcher" : 					{
						"fileversion" : 1,
						"rect" : [ 1659.0, 501.0, 58.0, 38.0 ],
						"bgcolor" : [ 1.0, 1.0, 1.0, 0.0 ],
						"bglocked" : 0,
						"defrect" : [ 1659.0, 501.0, 58.0, 38.0 ],
						"openrect" : [ 0.0, 0.0, 0.0, 0.0 ],
						"openinpresentation" : 1,
						"default_fontsize" : 11.595187,
						"default_fontface" : 0,
						"default_fontname" : "Arial",
						"gridonopen" : 0,
						"gridsize" : [ 15.0, 15.0 ],
						"gridsnaponopen" : 0,
						"toolbarvisible" : 1,
						"boxanimatetime" : 200,
						"imprint" : 0,
						"enablehscroll" : 1,
						"enablevscroll" : 1,
						"devicewidth" : 0.0,
						"boxes" : [ 							{
								"box" : 								{
									"maxclass" : "newobj",
									"varname" : "freqstate",
									"text" : "autopattr freqstate @autoname 1",
									"numoutlets" : 4,
									"fontsize" : 11.595187,
									"outlettype" : [ "", "", "", "" ],
									"patching_rect" : [ 41.0, 164.0, 181.0, 20.0 ],
									"fontname" : "Arial",
									"numinlets" : 1,
									"id" : "obj-2",
									"restore" : 									{
										"live.dial" : [ 0.0 ],
										"live.dial[12]" : [ 0.0 ]
									}

								}

							}
, 							{
								"box" : 								{
									"maxclass" : "inlet",
									"numoutlets" : 1,
									"outlettype" : [ "" ],
									"patching_rect" : [ 13.0, 34.0, 25.0, 25.0 ],
									"numinlets" : 0,
									"id" : "obj-11",
									"comment" : ""
								}

							}
, 							{
								"box" : 								{
									"maxclass" : "live.dial",
									"varname" : "live.dial",
									"numoutlets" : 2,
									"fontface" : 0,
									"outlettype" : [ "", "float" ],
									"patching_rect" : [ 13.0, 81.0, 47.0, 36.0 ],
									"presentation" : 1,
									"appearance" : 1,
									"parameter_enable" : 1,
									"triangle" : 1,
									"numinlets" : 1,
									"id" : "obj-15",
									"presentation_rect" : [ 1.0, 36.0, 52.0, 36.0 ],
									"saved_attribute_attributes" : 									{
										"valueof" : 										{
											"parameter_linknames" : 0,
											"parameter_modmode" : 0,
											"parameter_info" : "",
											"parameter_units" : "",
											"parameter_order" : 0,
											"parameter_defer" : 0,
											"parameter_speedlim" : 1.0,
											"parameter_steps" : 0,
											"parameter_invisible" : 0,
											"parameter_exponent" : 1.0,
											"parameter_annotation_name" : "",
											"parameter_unitstyle" : 3,
											"parameter_mmax" : 500.0,
											"parameter_mmin" : -500.0,
											"parameter_initial" : [ 0.0 ],
											"parameter_type" : 0,
											"parameter_initial_enable" : 1,
											"parameter_shortname" : "Freq",
											"parameter_modmax" : 127.0,
											"parameter_longname" : "live.dial[22]",
											"parameter_modmin" : 0.0
										}

									}

								}

							}
, 							{
								"box" : 								{
									"maxclass" : "comment",
									"text" : "Controls for frequency shifting",
									"linecount" : 2,
									"numoutlets" : 0,
									"fontsize" : 11.595187,
									"patching_rect" : [ 133.0, 81.0, 134.0, 33.0 ],
									"fontname" : "Arial",
									"numinlets" : 1,
									"id" : "obj-5"
								}

							}
, 							{
								"box" : 								{
									"maxclass" : "comment",
									"text" : "input for bpatcher",
									"numoutlets" : 0,
									"fontsize" : 11.595187,
									"patching_rect" : [ 169.0, 11.0, 104.0, 20.0 ],
									"fontname" : "Arial",
									"numinlets" : 1,
									"id" : "obj-4"
								}

							}
, 							{
								"box" : 								{
									"maxclass" : "outlet",
									"numoutlets" : 0,
									"patching_rect" : [ 13.0, 161.0, 25.0, 25.0 ],
									"numinlets" : 1,
									"id" : "obj-1",
									"comment" : ""
								}

							}
, 							{
								"box" : 								{
									"maxclass" : "inlet",
									"numoutlets" : 1,
									"outlettype" : [ "" ],
									"patching_rect" : [ 142.0, 11.0, 25.0, 25.0 ],
									"numinlets" : 0,
									"id" : "obj-7",
									"comment" : ""
								}

							}
, 							{
								"box" : 								{
									"maxclass" : "newobj",
									"text" : "thispatcher",
									"numoutlets" : 2,
									"fontsize" : 11.595187,
									"outlettype" : [ "", "" ],
									"patching_rect" : [ 142.0, 42.0, 67.0, 20.0 ],
									"fontname" : "Arial",
									"numinlets" : 1,
									"id" : "obj-8",
									"save" : [ "#N", "thispatcher", ";", "#Q", "end", ";" ]
								}

							}
, 							{
								"box" : 								{
									"maxclass" : "live.dial",
									"varname" : "live.dial[12]",
									"numoutlets" : 2,
									"fontface" : 0,
									"outlettype" : [ "", "float" ],
									"patching_rect" : [ 75.0, 80.0, 47.0, 36.0 ],
									"presentation" : 1,
									"appearance" : 1,
									"parameter_enable" : 1,
									"triangle" : 1,
									"numinlets" : 1,
									"id" : "obj-84",
									"presentation_rect" : [ 1.0, 0.0, 47.0, 36.0 ],
									"saved_attribute_attributes" : 									{
										"valueof" : 										{
											"parameter_linknames" : 0,
											"parameter_modmode" : 0,
											"parameter_info" : "",
											"parameter_units" : "",
											"parameter_order" : 0,
											"parameter_defer" : 0,
											"parameter_speedlim" : 1.0,
											"parameter_steps" : 0,
											"parameter_invisible" : 0,
											"parameter_exponent" : 1.0,
											"parameter_annotation_name" : "",
											"parameter_unitstyle" : 7,
											"parameter_mmax" : 24.0,
											"parameter_mmin" : -24.0,
											"parameter_initial" : [ 0 ],
											"parameter_type" : 1,
											"parameter_initial_enable" : 1,
											"parameter_shortname" : "Semi",
											"parameter_modmax" : 127.0,
											"parameter_longname" : "live.dial[5]",
											"parameter_modmin" : 0.0
										}

									}

								}

							}
 ],
						"lines" : [ 							{
								"patchline" : 								{
									"source" : [ "obj-84", 0 ],
									"destination" : [ "obj-1", 0 ],
									"hidden" : 0,
									"midpoints" : [ 84.5, 142.5, 22.5, 142.5 ]
								}

							}
, 							{
								"patchline" : 								{
									"source" : [ "obj-7", 0 ],
									"destination" : [ "obj-8", 0 ],
									"hidden" : 0,
									"midpoints" : [  ]
								}

							}
, 							{
								"patchline" : 								{
									"source" : [ "obj-15", 0 ],
									"destination" : [ "obj-1", 0 ],
									"hidden" : 0,
									"midpoints" : [  ]
								}

							}
, 							{
								"patchline" : 								{
									"source" : [ "obj-11", 0 ],
									"destination" : [ "obj-84", 0 ],
									"hidden" : 0,
									"midpoints" : [ 22.5, 70.0, 84.5, 70.0 ]
								}

							}
, 							{
								"patchline" : 								{
									"source" : [ "obj-11", 0 ],
									"destination" : [ "obj-15", 0 ],
									"hidden" : 0,
									"midpoints" : [  ]
								}

							}
 ]
					}

				}

			}
, 			{
				"box" : 				{
					"maxclass" : "comment",
					"text" : "Follow note frequency or use a fixed value",
					"linecount" : 3,
					"numoutlets" : 0,
					"fontsize" : 12.0,
					"patching_rect" : [ 1724.0, 505.0, 113.0, 48.0 ],
					"fontname" : "Arial",
					"numinlets" : 1,
					"id" : "obj-95"
				}

			}
, 			{
				"box" : 				{
					"maxclass" : "message",
					"text" : "offset 0 -36",
					"numoutlets" : 1,
					"fontsize" : 12.0,
					"outlettype" : [ "" ],
					"patching_rect" : [ 1759.0, 456.0, 70.0, 18.0 ],
					"fontname" : "Arial",
					"numinlets" : 2,
					"id" : "obj-96"
				}

			}
, 			{
				"box" : 				{
					"maxclass" : "message",
					"text" : "offset 0 0",
					"numoutlets" : 1,
					"fontsize" : 12.0,
					"outlettype" : [ "" ],
					"patching_rect" : [ 1698.0, 456.0, 60.0, 18.0 ],
					"fontname" : "Arial",
					"numinlets" : 2,
					"id" : "obj-97"
				}

			}
, 			{
				"box" : 				{
					"maxclass" : "newobj",
					"text" : "sel 0 1",
					"numoutlets" : 3,
					"fontsize" : 12.0,
					"outlettype" : [ "bang", "bang", "" ],
					"patching_rect" : [ 1698.0, 431.0, 143.0, 20.0 ],
					"fontname" : "Arial",
					"numinlets" : 1,
					"id" : "obj-99"
				}

			}
, 			{
				"box" : 				{
					"maxclass" : "live.toggle",
					"varname" : "live.toggle[3]",
					"numoutlets" : 1,
					"outlettype" : [ "" ],
					"patching_rect" : [ 1698.0, 390.0, 15.0, 15.0 ],
					"presentation" : 1,
					"parameter_enable" : 1,
					"numinlets" : 1,
					"id" : "obj-100",
					"presentation_rect" : [ 69.0, 24.0, 10.0, 10.0 ],
					"saved_attribute_attributes" : 					{
						"valueof" : 						{
							"parameter_linknames" : 0,
							"parameter_modmode" : 0,
							"parameter_info" : "",
							"parameter_units" : "",
							"parameter_order" : 0,
							"parameter_defer" : 0,
							"parameter_speedlim" : 1.0,
							"parameter_steps" : 0,
							"parameter_invisible" : 0,
							"parameter_enum" : [ "off", "on" ],
							"parameter_exponent" : 1.0,
							"parameter_annotation_name" : "",
							"parameter_unitstyle" : 10,
							"parameter_mmax" : 1.0,
							"parameter_mmin" : 0.0,
							"parameter_type" : 2,
							"parameter_initial_enable" : 0,
							"parameter_shortname" : "live.toggle[2]",
							"parameter_modmax" : 127.0,
							"parameter_longname" : "live.toggle[4]",
							"parameter_modmin" : 0.0
						}

					}

				}

			}
, 			{
				"box" : 				{
					"maxclass" : "newobj",
					"text" : "dbtoa",
					"numoutlets" : 1,
					"fontsize" : 12.0,
					"outlettype" : [ "" ],
					"patching_rect" : [ -137.0, 675.0, 41.0, 20.0 ],
					"fontname" : "Arial",
					"numinlets" : 1,
					"id" : "obj-68"
				}

			}
, 			{
				"box" : 				{
					"maxclass" : "newobj",
					"text" : "gate~",
					"numoutlets" : 1,
					"fontsize" : 12.0,
					"outlettype" : [ "signal" ],
					"patching_rect" : [ -182.0, 727.0, 41.0, 20.0 ],
					"fontname" : "Arial",
					"numinlets" : 2,
					"id" : "obj-69"
				}

			}
, 			{
				"box" : 				{
					"maxclass" : "live.text",
					"varname" : "live.text[3]",
					"numoutlets" : 2,
					"fontface" : 0,
					"outlettype" : [ "", "" ],
					"patching_rect" : [ -257.0, 642.0, 33.0, 27.0 ],
					"presentation" : 1,
					"parameter_enable" : 1,
					"texton" : "A",
					"numinlets" : 1,
					"id" : "obj-70",
					"presentation_rect" : [ 160.0, 138.0, 15.0, 15.0 ],
					"saved_attribute_attributes" : 					{
						"valueof" : 						{
							"parameter_linknames" : 0,
							"parameter_modmode" : 0,
							"parameter_info" : "",
							"parameter_units" : "",
							"parameter_order" : 0,
							"parameter_defer" : 0,
							"parameter_speedlim" : 1.0,
							"parameter_steps" : 0,
							"parameter_invisible" : 0,
							"parameter_enum" : [ "val1", "val2" ],
							"parameter_exponent" : 1.0,
							"parameter_annotation_name" : "",
							"parameter_unitstyle" : 10,
							"parameter_mmax" : 1.0,
							"parameter_mmin" : 0.0,
							"parameter_type" : 2,
							"parameter_initial_enable" : 0,
							"parameter_shortname" : "live.text",
							"parameter_modmax" : 127.0,
							"parameter_longname" : "live.text[5]",
							"parameter_modmin" : 0.0
						}

					}

				}

			}
, 			{
				"box" : 				{
					"maxclass" : "live.dial",
					"varname" : "live.dial[2]",
					"numoutlets" : 2,
					"fontface" : 0,
					"outlettype" : [ "", "float" ],
					"patching_rect" : [ -137.0, 635.0, 47.0, 36.0 ],
					"presentation" : 1,
					"appearance" : 1,
					"parameter_enable" : 1,
					"numinlets" : 1,
					"id" : "obj-71",
					"presentation_rect" : [ 95.0, 123.0, 47.0, 36.0 ],
					"saved_attribute_attributes" : 					{
						"valueof" : 						{
							"parameter_linknames" : 0,
							"parameter_modmode" : 0,
							"parameter_info" : "",
							"parameter_units" : "",
							"parameter_order" : 0,
							"parameter_defer" : 0,
							"parameter_speedlim" : 1.0,
							"parameter_steps" : 0,
							"parameter_invisible" : 0,
							"parameter_exponent" : 1.0,
							"parameter_annotation_name" : "",
							"parameter_unitstyle" : 4,
							"parameter_mmax" : 0.0,
							"parameter_mmin" : -70.0,
							"parameter_initial" : [ -12.0 ],
							"parameter_type" : 0,
							"parameter_initial_enable" : 1,
							"parameter_shortname" : "Level",
							"parameter_modmax" : 127.0,
							"parameter_longname" : "live.dial[4]",
							"parameter_modmin" : 0.0
						}

					}

				}

			}
, 			{
				"box" : 				{
					"maxclass" : "comment",
					"text" : "Free",
					"numoutlets" : 0,
					"fontsize" : 10.0,
					"patching_rect" : [ 41.0, 390.0, 37.0, 18.0 ],
					"presentation" : 1,
					"fontname" : "Arial",
					"numinlets" : 1,
					"id" : "obj-72",
					"presentation_rect" : [ 58.0, 120.0, 29.0, 18.0 ]
				}

			}
, 			{
				"box" : 				{
					"maxclass" : "newobj",
					"text" : "*~ 0.",
					"numoutlets" : 1,
					"fontsize" : 12.0,
					"outlettype" : [ "signal" ],
					"patching_rect" : [ -160.0, 703.0, 42.0, 20.0 ],
					"fontname" : "Arial",
					"numinlets" : 2,
					"id" : "obj-73"
				}

			}
, 			{
				"box" : 				{
					"maxclass" : "message",
					"text" : "0.",
					"numoutlets" : 1,
					"fontsize" : 12.0,
					"outlettype" : [ "" ],
					"patching_rect" : [ -14.0, 452.0, 32.5, 18.0 ],
					"fontname" : "Arial",
					"numinlets" : 2,
					"id" : "obj-74"
				}

			}
, 			{
				"box" : 				{
					"maxclass" : "newobj",
					"text" : "pfft~ harmonizer_child~ 4096 4",
					"numoutlets" : 1,
					"fontsize" : 12.0,
					"outlettype" : [ "signal" ],
					"patching_rect" : [ -160.0, 569.0, 176.0, 20.0 ],
					"fontname" : "Arial",
					"numinlets" : 2,
					"id" : "obj-75"
				}

			}
, 			{
				"box" : 				{
					"maxclass" : "message",
					"text" : "mode $1",
					"numoutlets" : 1,
					"fontsize" : 12.0,
					"outlettype" : [ "" ],
					"patching_rect" : [ -97.0, 534.0, 57.0, 18.0 ],
					"fontname" : "Arial",
					"numinlets" : 2,
					"id" : "obj-76"
				}

			}
, 			{
				"box" : 				{
					"maxclass" : "comment",
					"text" : "Selection logic for modulating frequency",
					"linecount" : 2,
					"numoutlets" : 0,
					"fontsize" : 12.0,
					"patching_rect" : [ 169.0, 429.0, 130.0, 34.0 ],
					"fontname" : "Arial",
					"numinlets" : 1,
					"id" : "obj-77"
				}

			}
, 			{
				"box" : 				{
					"maxclass" : "bpatcher",
					"varname" : "frequency_dial_switcher[1]",
					"name" : "frequency_dial_switcher.maxpat",
					"numoutlets" : 1,
					"embed" : 1,
					"outlettype" : [ "" ],
					"patching_rect" : [ -14.0, 497.0, 58.0, 38.0 ],
					"presentation" : 1,
					"numinlets" : 2,
					"args" : [  ],
					"id" : "obj-78",
					"presentation_rect" : [ 9.0, 121.0, 50.0, 38.0 ],
					"patcher" : 					{
						"fileversion" : 1,
						"rect" : [ -14.0, 497.0, 58.0, 38.0 ],
						"bgcolor" : [ 1.0, 1.0, 1.0, 0.0 ],
						"bglocked" : 0,
						"defrect" : [ -14.0, 497.0, 58.0, 38.0 ],
						"openrect" : [ 0.0, 0.0, 0.0, 0.0 ],
						"openinpresentation" : 1,
						"default_fontsize" : 11.595187,
						"default_fontface" : 0,
						"default_fontname" : "Arial",
						"gridonopen" : 0,
						"gridsize" : [ 15.0, 15.0 ],
						"gridsnaponopen" : 0,
						"toolbarvisible" : 1,
						"boxanimatetime" : 200,
						"imprint" : 0,
						"enablehscroll" : 1,
						"enablevscroll" : 1,
						"devicewidth" : 0.0,
						"boxes" : [ 							{
								"box" : 								{
									"maxclass" : "newobj",
									"varname" : "freqstate",
									"text" : "autopattr freqstate @autoname 1",
									"numoutlets" : 4,
									"fontsize" : 11.595187,
									"outlettype" : [ "", "", "", "" ],
									"patching_rect" : [ 41.0, 164.0, 181.0, 20.0 ],
									"fontname" : "Arial",
									"numinlets" : 1,
									"id" : "obj-2",
									"restore" : 									{
										"live.dial" : [ 0.0 ],
										"live.dial[12]" : [ 0.0 ]
									}

								}

							}
, 							{
								"box" : 								{
									"maxclass" : "inlet",
									"numoutlets" : 1,
									"outlettype" : [ "" ],
									"patching_rect" : [ 13.0, 34.0, 25.0, 25.0 ],
									"numinlets" : 0,
									"id" : "obj-11",
									"comment" : ""
								}

							}
, 							{
								"box" : 								{
									"maxclass" : "live.dial",
									"varname" : "live.dial",
									"numoutlets" : 2,
									"fontface" : 0,
									"outlettype" : [ "", "float" ],
									"patching_rect" : [ 13.0, 81.0, 47.0, 36.0 ],
									"presentation" : 1,
									"appearance" : 1,
									"parameter_enable" : 1,
									"triangle" : 1,
									"numinlets" : 1,
									"id" : "obj-15",
									"presentation_rect" : [ 1.0, 36.0, 52.0, 36.0 ],
									"saved_attribute_attributes" : 									{
										"valueof" : 										{
											"parameter_linknames" : 0,
											"parameter_modmode" : 0,
											"parameter_info" : "",
											"parameter_units" : "",
											"parameter_order" : 0,
											"parameter_defer" : 0,
											"parameter_speedlim" : 1.0,
											"parameter_steps" : 0,
											"parameter_invisible" : 0,
											"parameter_exponent" : 1.0,
											"parameter_annotation_name" : "",
											"parameter_unitstyle" : 3,
											"parameter_mmax" : 500.0,
											"parameter_mmin" : -500.0,
											"parameter_initial" : [ 0.0 ],
											"parameter_type" : 0,
											"parameter_initial_enable" : 1,
											"parameter_shortname" : "Freq",
											"parameter_modmax" : 127.0,
											"parameter_longname" : "live.dial[2]",
											"parameter_modmin" : 0.0
										}

									}

								}

							}
, 							{
								"box" : 								{
									"maxclass" : "comment",
									"text" : "Controls for frequency shifting",
									"linecount" : 2,
									"numoutlets" : 0,
									"fontsize" : 11.595187,
									"patching_rect" : [ 133.0, 81.0, 134.0, 33.0 ],
									"fontname" : "Arial",
									"numinlets" : 1,
									"id" : "obj-5"
								}

							}
, 							{
								"box" : 								{
									"maxclass" : "comment",
									"text" : "input for bpatcher",
									"numoutlets" : 0,
									"fontsize" : 11.595187,
									"patching_rect" : [ 169.0, 11.0, 104.0, 20.0 ],
									"fontname" : "Arial",
									"numinlets" : 1,
									"id" : "obj-4"
								}

							}
, 							{
								"box" : 								{
									"maxclass" : "outlet",
									"numoutlets" : 0,
									"patching_rect" : [ 13.0, 161.0, 25.0, 25.0 ],
									"numinlets" : 1,
									"id" : "obj-1",
									"comment" : ""
								}

							}
, 							{
								"box" : 								{
									"maxclass" : "inlet",
									"numoutlets" : 1,
									"outlettype" : [ "" ],
									"patching_rect" : [ 142.0, 11.0, 25.0, 25.0 ],
									"numinlets" : 0,
									"id" : "obj-7",
									"comment" : ""
								}

							}
, 							{
								"box" : 								{
									"maxclass" : "newobj",
									"text" : "thispatcher",
									"numoutlets" : 2,
									"fontsize" : 11.595187,
									"outlettype" : [ "", "" ],
									"patching_rect" : [ 142.0, 42.0, 67.0, 20.0 ],
									"fontname" : "Arial",
									"numinlets" : 1,
									"id" : "obj-8",
									"save" : [ "#N", "thispatcher", ";", "#Q", "end", ";" ]
								}

							}
, 							{
								"box" : 								{
									"maxclass" : "live.dial",
									"varname" : "live.dial[12]",
									"numoutlets" : 2,
									"fontface" : 0,
									"outlettype" : [ "", "float" ],
									"patching_rect" : [ 75.0, 80.0, 47.0, 36.0 ],
									"presentation" : 1,
									"appearance" : 1,
									"parameter_enable" : 1,
									"triangle" : 1,
									"numinlets" : 1,
									"id" : "obj-84",
									"presentation_rect" : [ 1.0, 0.0, 47.0, 36.0 ],
									"saved_attribute_attributes" : 									{
										"valueof" : 										{
											"parameter_linknames" : 0,
											"parameter_modmode" : 0,
											"parameter_info" : "",
											"parameter_units" : "",
											"parameter_order" : 0,
											"parameter_defer" : 0,
											"parameter_speedlim" : 1.0,
											"parameter_steps" : 0,
											"parameter_invisible" : 0,
											"parameter_exponent" : 1.0,
											"parameter_annotation_name" : "",
											"parameter_unitstyle" : 7,
											"parameter_mmax" : 24.0,
											"parameter_mmin" : -24.0,
											"parameter_initial" : [ 0 ],
											"parameter_type" : 1,
											"parameter_initial_enable" : 1,
											"parameter_shortname" : "Semi",
											"parameter_modmax" : 127.0,
											"parameter_longname" : "live.dial[3]",
											"parameter_modmin" : 0.0
										}

									}

								}

							}
 ],
						"lines" : [ 							{
								"patchline" : 								{
									"source" : [ "obj-84", 0 ],
									"destination" : [ "obj-1", 0 ],
									"hidden" : 0,
									"midpoints" : [ 84.5, 142.5, 22.5, 142.5 ]
								}

							}
, 							{
								"patchline" : 								{
									"source" : [ "obj-7", 0 ],
									"destination" : [ "obj-8", 0 ],
									"hidden" : 0,
									"midpoints" : [  ]
								}

							}
, 							{
								"patchline" : 								{
									"source" : [ "obj-15", 0 ],
									"destination" : [ "obj-1", 0 ],
									"hidden" : 0,
									"midpoints" : [  ]
								}

							}
, 							{
								"patchline" : 								{
									"source" : [ "obj-11", 0 ],
									"destination" : [ "obj-84", 0 ],
									"hidden" : 0,
									"midpoints" : [ 22.5, 70.0, 84.5, 70.0 ]
								}

							}
, 							{
								"patchline" : 								{
									"source" : [ "obj-11", 0 ],
									"destination" : [ "obj-15", 0 ],
									"hidden" : 0,
									"midpoints" : [  ]
								}

							}
 ]
					}

				}

			}
, 			{
				"box" : 				{
					"maxclass" : "comment",
					"text" : "Follow note frequency or use a fixed value",
					"linecount" : 3,
					"numoutlets" : 0,
					"fontsize" : 12.0,
					"patching_rect" : [ 51.0, 501.0, 113.0, 48.0 ],
					"fontname" : "Arial",
					"numinlets" : 1,
					"id" : "obj-79"
				}

			}
, 			{
				"box" : 				{
					"maxclass" : "message",
					"text" : "offset 0 -36",
					"numoutlets" : 1,
					"fontsize" : 12.0,
					"outlettype" : [ "" ],
					"patching_rect" : [ 86.0, 452.0, 70.0, 18.0 ],
					"fontname" : "Arial",
					"numinlets" : 2,
					"id" : "obj-80"
				}

			}
, 			{
				"box" : 				{
					"maxclass" : "message",
					"text" : "offset 0 0",
					"numoutlets" : 1,
					"fontsize" : 12.0,
					"outlettype" : [ "" ],
					"patching_rect" : [ 25.0, 452.0, 60.0, 18.0 ],
					"fontname" : "Arial",
					"numinlets" : 2,
					"id" : "obj-81"
				}

			}
, 			{
				"box" : 				{
					"maxclass" : "newobj",
					"text" : "sel 0 1",
					"numoutlets" : 3,
					"fontsize" : 12.0,
					"outlettype" : [ "bang", "bang", "" ],
					"patching_rect" : [ 25.0, 427.0, 143.0, 20.0 ],
					"fontname" : "Arial",
					"numinlets" : 1,
					"id" : "obj-82"
				}

			}
, 			{
				"box" : 				{
					"maxclass" : "live.toggle",
					"varname" : "live.toggle[2]",
					"numoutlets" : 1,
					"outlettype" : [ "" ],
					"patching_rect" : [ 25.0, 390.0, 15.0, 15.0 ],
					"presentation" : 1,
					"parameter_enable" : 1,
					"numinlets" : 1,
					"id" : "obj-83",
					"presentation_rect" : [ 69.0, 138.0, 10.0, 10.0 ],
					"saved_attribute_attributes" : 					{
						"valueof" : 						{
							"parameter_linknames" : 0,
							"parameter_modmode" : 0,
							"parameter_info" : "",
							"parameter_units" : "",
							"parameter_order" : 0,
							"parameter_defer" : 0,
							"parameter_speedlim" : 1.0,
							"parameter_steps" : 0,
							"parameter_invisible" : 0,
							"parameter_enum" : [ "off", "on" ],
							"parameter_exponent" : 1.0,
							"parameter_annotation_name" : "",
							"parameter_unitstyle" : 10,
							"parameter_mmax" : 1.0,
							"parameter_mmin" : 0.0,
							"parameter_type" : 2,
							"parameter_initial_enable" : 0,
							"parameter_shortname" : "live.toggle[2]",
							"parameter_modmax" : 127.0,
							"parameter_longname" : "live.toggle[3]",
							"parameter_modmin" : 0.0
						}

					}

				}

			}
, 			{
				"box" : 				{
					"maxclass" : "newobj",
					"text" : "dbtoa",
					"numoutlets" : 1,
					"fontsize" : 12.0,
					"outlettype" : [ "" ],
					"patching_rect" : [ 430.0, 676.0, 41.0, 20.0 ],
					"fontname" : "Arial",
					"numinlets" : 1,
					"id" : "obj-52"
				}

			}
, 			{
				"box" : 				{
					"maxclass" : "newobj",
					"text" : "gate~",
					"numoutlets" : 1,
					"fontsize" : 12.0,
					"outlettype" : [ "signal" ],
					"patching_rect" : [ 385.0, 727.0, 41.0, 20.0 ],
					"fontname" : "Arial",
					"numinlets" : 2,
					"id" : "obj-53"
				}

			}
, 			{
				"box" : 				{
					"maxclass" : "live.text",
					"varname" : "live.text[1]",
					"numoutlets" : 2,
					"fontface" : 0,
					"outlettype" : [ "", "" ],
					"patching_rect" : [ 313.0, 611.0, 33.923077, 32.0 ],
					"presentation" : 1,
					"text" : "B",
					"parameter_enable" : 1,
					"activebgoncolor" : [ 0.372549, 0.878431, 0.0, 1.0 ],
					"numinlets" : 1,
					"id" : "obj-54",
					"presentation_rect" : [ 160.0, 97.0, 15.0, 15.0 ],
					"saved_attribute_attributes" : 					{
						"valueof" : 						{
							"parameter_linknames" : 0,
							"parameter_modmode" : 0,
							"parameter_info" : "",
							"parameter_units" : "",
							"parameter_order" : 0,
							"parameter_defer" : 0,
							"parameter_speedlim" : 1.0,
							"parameter_steps" : 0,
							"parameter_invisible" : 0,
							"parameter_enum" : [ "val1", "val2" ],
							"parameter_exponent" : 1.0,
							"parameter_annotation_name" : "",
							"parameter_unitstyle" : 10,
							"parameter_mmax" : 1.0,
							"parameter_mmin" : 0.0,
							"parameter_type" : 2,
							"parameter_initial_enable" : 0,
							"parameter_shortname" : "live.text",
							"parameter_modmax" : 127.0,
							"parameter_longname" : "live.text[4]",
							"parameter_modmin" : 0.0
						}

					}

				}

			}
, 			{
				"box" : 				{
					"maxclass" : "live.dial",
					"varname" : "live.dial[1]",
					"numoutlets" : 2,
					"fontface" : 0,
					"outlettype" : [ "", "float" ],
					"patching_rect" : [ 430.0, 626.0, 47.0, 36.0 ],
					"presentation" : 1,
					"appearance" : 1,
					"parameter_enable" : 1,
					"numinlets" : 1,
					"id" : "obj-55",
					"presentation_rect" : [ 95.0, 84.0, 47.0, 36.0 ],
					"saved_attribute_attributes" : 					{
						"valueof" : 						{
							"parameter_linknames" : 0,
							"parameter_modmode" : 0,
							"parameter_info" : "",
							"parameter_units" : "",
							"parameter_order" : 0,
							"parameter_defer" : 0,
							"parameter_speedlim" : 1.0,
							"parameter_steps" : 0,
							"parameter_invisible" : 0,
							"parameter_exponent" : 1.0,
							"parameter_annotation_name" : "",
							"parameter_unitstyle" : 4,
							"parameter_mmax" : 0.0,
							"parameter_mmin" : -70.0,
							"parameter_initial" : [ -12.0 ],
							"parameter_type" : 0,
							"parameter_initial_enable" : 1,
							"parameter_shortname" : "Level",
							"parameter_modmax" : 127.0,
							"parameter_longname" : "live.dial[21]",
							"parameter_modmin" : 0.0
						}

					}

				}

			}
, 			{
				"box" : 				{
					"maxclass" : "comment",
					"text" : "Free",
					"numoutlets" : 0,
					"fontsize" : 10.0,
					"patching_rect" : [ 603.0, 390.0, 37.0, 18.0 ],
					"presentation" : 1,
					"fontname" : "Arial",
					"numinlets" : 1,
					"id" : "obj-56",
					"presentation_rect" : [ 58.0, 80.0, 29.0, 18.0 ]
				}

			}
, 			{
				"box" : 				{
					"maxclass" : "newobj",
					"text" : "*~ 0.",
					"numoutlets" : 1,
					"fontsize" : 12.0,
					"outlettype" : [ "signal" ],
					"patching_rect" : [ 407.0, 703.0, 42.0, 20.0 ],
					"fontname" : "Arial",
					"numinlets" : 2,
					"id" : "obj-57"
				}

			}
, 			{
				"box" : 				{
					"maxclass" : "message",
					"text" : "0.",
					"numoutlets" : 1,
					"fontsize" : 12.0,
					"outlettype" : [ "" ],
					"patching_rect" : [ 548.0, 450.0, 32.5, 18.0 ],
					"fontname" : "Arial",
					"numinlets" : 2,
					"id" : "obj-58"
				}

			}
, 			{
				"box" : 				{
					"maxclass" : "newobj",
					"text" : "pfft~ harmonizer_child~ 4096 4",
					"numoutlets" : 1,
					"fontsize" : 12.0,
					"outlettype" : [ "signal" ],
					"patching_rect" : [ 407.0, 567.0, 176.0, 20.0 ],
					"fontname" : "Arial",
					"numinlets" : 2,
					"id" : "obj-59"
				}

			}
, 			{
				"box" : 				{
					"maxclass" : "message",
					"text" : "mode $1",
					"numoutlets" : 1,
					"fontsize" : 12.0,
					"outlettype" : [ "" ],
					"patching_rect" : [ 470.0, 533.0, 57.0, 18.0 ],
					"fontname" : "Arial",
					"numinlets" : 2,
					"id" : "obj-60"
				}

			}
, 			{
				"box" : 				{
					"maxclass" : "comment",
					"text" : "Selection logic for modulating frequency",
					"linecount" : 2,
					"numoutlets" : 0,
					"fontsize" : 12.0,
					"patching_rect" : [ 731.0, 427.0, 130.0, 34.0 ],
					"fontname" : "Arial",
					"numinlets" : 1,
					"id" : "obj-61"
				}

			}
, 			{
				"box" : 				{
					"maxclass" : "bpatcher",
					"varname" : "frequency_dial_switcher[2]",
					"name" : "frequency_dial_switcher.maxpat",
					"numoutlets" : 1,
					"embed" : 1,
					"outlettype" : [ "" ],
					"patching_rect" : [ 548.0, 495.0, 58.0, 38.0 ],
					"presentation" : 1,
					"numinlets" : 2,
					"args" : [  ],
					"id" : "obj-62",
					"presentation_rect" : [ 9.0, 84.0, 50.0, 38.0 ],
					"patcher" : 					{
						"fileversion" : 1,
						"rect" : [ 548.0, 495.0, 58.0, 38.0 ],
						"bgcolor" : [ 1.0, 1.0, 1.0, 0.0 ],
						"bglocked" : 0,
						"defrect" : [ 548.0, 495.0, 58.0, 38.0 ],
						"openrect" : [ 0.0, 0.0, 0.0, 0.0 ],
						"openinpresentation" : 1,
						"default_fontsize" : 11.595187,
						"default_fontface" : 0,
						"default_fontname" : "Arial",
						"gridonopen" : 0,
						"gridsize" : [ 15.0, 15.0 ],
						"gridsnaponopen" : 0,
						"toolbarvisible" : 1,
						"boxanimatetime" : 200,
						"imprint" : 0,
						"enablehscroll" : 1,
						"enablevscroll" : 1,
						"devicewidth" : 0.0,
						"boxes" : [ 							{
								"box" : 								{
									"maxclass" : "newobj",
									"varname" : "freqstate",
									"text" : "autopattr freqstate @autoname 1",
									"numoutlets" : 4,
									"fontsize" : 11.595187,
									"outlettype" : [ "", "", "", "" ],
									"patching_rect" : [ 41.0, 164.0, 181.0, 20.0 ],
									"fontname" : "Arial",
									"numinlets" : 1,
									"id" : "obj-2",
									"restore" : 									{
										"live.dial" : [ 0.0 ],
										"live.dial[12]" : [ 0.0 ]
									}

								}

							}
, 							{
								"box" : 								{
									"maxclass" : "inlet",
									"numoutlets" : 1,
									"outlettype" : [ "" ],
									"patching_rect" : [ 13.0, 34.0, 25.0, 25.0 ],
									"numinlets" : 0,
									"id" : "obj-11",
									"comment" : ""
								}

							}
, 							{
								"box" : 								{
									"maxclass" : "live.dial",
									"varname" : "live.dial",
									"numoutlets" : 2,
									"fontface" : 0,
									"outlettype" : [ "", "float" ],
									"patching_rect" : [ 13.0, 81.0, 47.0, 36.0 ],
									"presentation" : 1,
									"appearance" : 1,
									"parameter_enable" : 1,
									"triangle" : 1,
									"numinlets" : 1,
									"id" : "obj-15",
									"presentation_rect" : [ 1.0, 36.0, 52.0, 36.0 ],
									"saved_attribute_attributes" : 									{
										"valueof" : 										{
											"parameter_linknames" : 0,
											"parameter_modmode" : 0,
											"parameter_info" : "",
											"parameter_units" : "",
											"parameter_order" : 0,
											"parameter_defer" : 0,
											"parameter_speedlim" : 1.0,
											"parameter_steps" : 0,
											"parameter_invisible" : 0,
											"parameter_exponent" : 1.0,
											"parameter_annotation_name" : "",
											"parameter_unitstyle" : 3,
											"parameter_mmax" : 500.0,
											"parameter_mmin" : -500.0,
											"parameter_initial" : [ 0.0 ],
											"parameter_type" : 0,
											"parameter_initial_enable" : 1,
											"parameter_shortname" : "Freq",
											"parameter_modmax" : 127.0,
											"parameter_longname" : "live.dial[19]",
											"parameter_modmin" : 0.0
										}

									}

								}

							}
, 							{
								"box" : 								{
									"maxclass" : "comment",
									"text" : "Controls for frequency shifting",
									"linecount" : 2,
									"numoutlets" : 0,
									"fontsize" : 11.595187,
									"patching_rect" : [ 133.0, 81.0, 134.0, 33.0 ],
									"fontname" : "Arial",
									"numinlets" : 1,
									"id" : "obj-5"
								}

							}
, 							{
								"box" : 								{
									"maxclass" : "comment",
									"text" : "input for bpatcher",
									"numoutlets" : 0,
									"fontsize" : 11.595187,
									"patching_rect" : [ 169.0, 11.0, 104.0, 20.0 ],
									"fontname" : "Arial",
									"numinlets" : 1,
									"id" : "obj-4"
								}

							}
, 							{
								"box" : 								{
									"maxclass" : "outlet",
									"numoutlets" : 0,
									"patching_rect" : [ 13.0, 161.0, 25.0, 25.0 ],
									"numinlets" : 1,
									"id" : "obj-1",
									"comment" : ""
								}

							}
, 							{
								"box" : 								{
									"maxclass" : "inlet",
									"numoutlets" : 1,
									"outlettype" : [ "" ],
									"patching_rect" : [ 142.0, 11.0, 25.0, 25.0 ],
									"numinlets" : 0,
									"id" : "obj-7",
									"comment" : ""
								}

							}
, 							{
								"box" : 								{
									"maxclass" : "newobj",
									"text" : "thispatcher",
									"numoutlets" : 2,
									"fontsize" : 11.595187,
									"outlettype" : [ "", "" ],
									"patching_rect" : [ 142.0, 42.0, 67.0, 20.0 ],
									"fontname" : "Arial",
									"numinlets" : 1,
									"id" : "obj-8",
									"save" : [ "#N", "thispatcher", ";", "#Q", "end", ";" ]
								}

							}
, 							{
								"box" : 								{
									"maxclass" : "live.dial",
									"varname" : "live.dial[12]",
									"numoutlets" : 2,
									"fontface" : 0,
									"outlettype" : [ "", "float" ],
									"patching_rect" : [ 75.0, 80.0, 47.0, 36.0 ],
									"presentation" : 1,
									"appearance" : 1,
									"parameter_enable" : 1,
									"triangle" : 1,
									"numinlets" : 1,
									"id" : "obj-84",
									"presentation_rect" : [ 1.0, 0.0, 47.0, 36.0 ],
									"saved_attribute_attributes" : 									{
										"valueof" : 										{
											"parameter_linknames" : 0,
											"parameter_modmode" : 0,
											"parameter_info" : "",
											"parameter_units" : "",
											"parameter_order" : 0,
											"parameter_defer" : 0,
											"parameter_speedlim" : 1.0,
											"parameter_steps" : 0,
											"parameter_invisible" : 0,
											"parameter_exponent" : 1.0,
											"parameter_annotation_name" : "",
											"parameter_unitstyle" : 7,
											"parameter_mmax" : 24.0,
											"parameter_mmin" : -24.0,
											"parameter_initial" : [ 0 ],
											"parameter_type" : 1,
											"parameter_initial_enable" : 1,
											"parameter_shortname" : "Semi",
											"parameter_modmax" : 127.0,
											"parameter_longname" : "live.dial[20]",
											"parameter_modmin" : 0.0
										}

									}

								}

							}
 ],
						"lines" : [ 							{
								"patchline" : 								{
									"source" : [ "obj-84", 0 ],
									"destination" : [ "obj-1", 0 ],
									"hidden" : 0,
									"midpoints" : [ 84.5, 142.5, 22.5, 142.5 ]
								}

							}
, 							{
								"patchline" : 								{
									"source" : [ "obj-7", 0 ],
									"destination" : [ "obj-8", 0 ],
									"hidden" : 0,
									"midpoints" : [  ]
								}

							}
, 							{
								"patchline" : 								{
									"source" : [ "obj-15", 0 ],
									"destination" : [ "obj-1", 0 ],
									"hidden" : 0,
									"midpoints" : [  ]
								}

							}
, 							{
								"patchline" : 								{
									"source" : [ "obj-11", 0 ],
									"destination" : [ "obj-84", 0 ],
									"hidden" : 0,
									"midpoints" : [ 22.5, 70.0, 84.5, 70.0 ]
								}

							}
, 							{
								"patchline" : 								{
									"source" : [ "obj-11", 0 ],
									"destination" : [ "obj-15", 0 ],
									"hidden" : 0,
									"midpoints" : [  ]
								}

							}
 ]
					}

				}

			}
, 			{
				"box" : 				{
					"maxclass" : "comment",
					"text" : "Follow note frequency or use a fixed value",
					"linecount" : 3,
					"numoutlets" : 0,
					"fontsize" : 12.0,
					"patching_rect" : [ 613.0, 499.0, 113.0, 48.0 ],
					"fontname" : "Arial",
					"numinlets" : 1,
					"id" : "obj-63"
				}

			}
, 			{
				"box" : 				{
					"maxclass" : "message",
					"text" : "offset 0 -36",
					"numoutlets" : 1,
					"fontsize" : 12.0,
					"outlettype" : [ "" ],
					"patching_rect" : [ 648.0, 450.0, 70.0, 18.0 ],
					"fontname" : "Arial",
					"numinlets" : 2,
					"id" : "obj-64"
				}

			}
, 			{
				"box" : 				{
					"maxclass" : "message",
					"text" : "offset 0 0",
					"numoutlets" : 1,
					"fontsize" : 12.0,
					"outlettype" : [ "" ],
					"patching_rect" : [ 587.0, 450.0, 60.0, 18.0 ],
					"fontname" : "Arial",
					"numinlets" : 2,
					"id" : "obj-65"
				}

			}
, 			{
				"box" : 				{
					"maxclass" : "newobj",
					"text" : "sel 0 1",
					"numoutlets" : 3,
					"fontsize" : 12.0,
					"outlettype" : [ "bang", "bang", "" ],
					"patching_rect" : [ 587.0, 425.0, 143.0, 20.0 ],
					"fontname" : "Arial",
					"numinlets" : 1,
					"id" : "obj-66"
				}

			}
, 			{
				"box" : 				{
					"maxclass" : "live.toggle",
					"varname" : "live.toggle[1]",
					"numoutlets" : 1,
					"outlettype" : [ "" ],
					"patching_rect" : [ 587.0, 390.0, 15.0, 15.0 ],
					"presentation" : 1,
					"parameter_enable" : 1,
					"numinlets" : 1,
					"id" : "obj-67",
					"presentation_rect" : [ 69.0, 97.0, 10.0, 10.0 ],
					"saved_attribute_attributes" : 					{
						"valueof" : 						{
							"parameter_linknames" : 0,
							"parameter_modmode" : 0,
							"parameter_info" : "",
							"parameter_units" : "",
							"parameter_order" : 0,
							"parameter_defer" : 0,
							"parameter_speedlim" : 1.0,
							"parameter_steps" : 0,
							"parameter_invisible" : 0,
							"parameter_enum" : [ "off", "on" ],
							"parameter_exponent" : 1.0,
							"parameter_annotation_name" : "",
							"parameter_unitstyle" : 10,
							"parameter_mmax" : 1.0,
							"parameter_mmin" : 0.0,
							"parameter_type" : 2,
							"parameter_initial_enable" : 0,
							"parameter_shortname" : "live.toggle[2]",
							"parameter_modmax" : 127.0,
							"parameter_longname" : "live.toggle[6]",
							"parameter_modmin" : 0.0
						}

					}

				}

			}
, 			{
				"box" : 				{
					"maxclass" : "newobj",
					"text" : "dbtoa",
					"numoutlets" : 1,
					"fontsize" : 12.0,
					"outlettype" : [ "" ],
					"patching_rect" : [ 1005.0, 676.0, 41.0, 20.0 ],
					"fontname" : "Arial",
					"numinlets" : 1,
					"id" : "obj-46"
				}

			}
, 			{
				"box" : 				{
					"maxclass" : "newobj",
					"text" : "gate~",
					"numoutlets" : 1,
					"fontsize" : 12.0,
					"outlettype" : [ "signal" ],
					"patching_rect" : [ 960.0, 727.0, 41.0, 20.0 ],
					"fontname" : "Arial",
					"numinlets" : 2,
					"id" : "obj-43"
				}

			}
, 			{
				"box" : 				{
					"maxclass" : "live.dial",
					"varname" : "live.dial[5]",
					"numoutlets" : 2,
					"fontface" : 0,
					"outlettype" : [ "", "float" ],
					"patching_rect" : [ 1054.0, 994.0, 44.0, 47.0 ],
					"presentation" : 1,
					"parameter_enable" : 1,
					"numinlets" : 1,
					"id" : "obj-42",
					"presentation_rect" : [ 189.0, 25.0, 44.0, 47.0 ],
					"saved_attribute_attributes" : 					{
						"valueof" : 						{
							"parameter_linknames" : 0,
							"parameter_modmode" : 0,
							"parameter_info" : "",
							"parameter_units" : "",
							"parameter_order" : 0,
							"parameter_defer" : 0,
							"parameter_speedlim" : 1.0,
							"parameter_steps" : 0,
							"parameter_invisible" : 0,
							"parameter_exponent" : 1.0,
							"parameter_annotation_name" : "",
							"parameter_unitstyle" : 4,
							"parameter_mmax" : 0.0,
							"parameter_mmin" : -70.0,
							"parameter_initial" : [ -6.0 ],
							"parameter_type" : 0,
							"parameter_initial_enable" : 1,
							"parameter_shortname" : "Volume",
							"parameter_modmax" : 127.0,
							"parameter_longname" : "live.dial[18]",
							"parameter_modmin" : 0.0
						}

					}

				}

			}
, 			{
				"box" : 				{
					"maxclass" : "live.text",
					"varname" : "live.text[2]",
					"numoutlets" : 2,
					"fontface" : 0,
					"outlettype" : [ "", "" ],
					"patching_rect" : [ 908.0, 623.0, 33.0, 28.0 ],
					"presentation" : 1,
					"text" : "C",
					"parameter_enable" : 1,
					"texton" : "C",
					"activebgoncolor" : [ 0.352941, 1.0, 0.627451, 1.0 ],
					"numinlets" : 1,
					"id" : "obj-34",
					"presentation_rect" : [ 160.0, 61.0, 15.0, 15.0 ],
					"saved_attribute_attributes" : 					{
						"valueof" : 						{
							"parameter_linknames" : 0,
							"parameter_modmode" : 0,
							"parameter_info" : "",
							"parameter_units" : "",
							"parameter_order" : 0,
							"parameter_defer" : 0,
							"parameter_speedlim" : 1.0,
							"parameter_steps" : 0,
							"parameter_invisible" : 0,
							"parameter_enum" : [ "val1", "val2" ],
							"parameter_exponent" : 1.0,
							"parameter_annotation_name" : "",
							"parameter_unitstyle" : 10,
							"parameter_mmax" : 1.0,
							"parameter_mmin" : 0.0,
							"parameter_type" : 2,
							"parameter_initial_enable" : 0,
							"parameter_shortname" : "live.text",
							"parameter_modmax" : 127.0,
							"parameter_longname" : "live.text[2]",
							"parameter_modmin" : 0.0
						}

					}

				}

			}
, 			{
				"box" : 				{
					"maxclass" : "live.dial",
					"varname" : "live.dial[3]",
					"numoutlets" : 2,
					"fontface" : 0,
					"outlettype" : [ "", "float" ],
					"patching_rect" : [ 980.0, 776.0, 44.0, 47.0 ],
					"presentation" : 1,
					"parameter_enable" : 1,
					"numinlets" : 1,
					"id" : "obj-22",
					"presentation_rect" : [ 189.0, 100.0, 44.0, 47.0 ],
					"saved_attribute_attributes" : 					{
						"valueof" : 						{
							"parameter_linknames" : 0,
							"parameter_modmode" : 0,
							"parameter_info" : "",
							"parameter_units" : "",
							"parameter_order" : 0,
							"parameter_defer" : 0,
							"parameter_speedlim" : 1.0,
							"parameter_steps" : 0,
							"parameter_invisible" : 0,
							"parameter_exponent" : 1.0,
							"parameter_annotation_name" : "",
							"parameter_unitstyle" : 5,
							"parameter_mmax" : 100.0,
							"parameter_mmin" : 0.0,
							"parameter_type" : 0,
							"parameter_initial_enable" : 0,
							"parameter_shortname" : "Dry/Wet",
							"parameter_modmax" : 127.0,
							"parameter_longname" : "live.dial[14]",
							"parameter_modmin" : 0.0
						}

					}

				}

			}
, 			{
				"box" : 				{
					"maxclass" : "live.dial",
					"varname" : "live.dial",
					"numoutlets" : 2,
					"fontface" : 0,
					"outlettype" : [ "", "float" ],
					"patching_rect" : [ 1005.0, 626.0, 47.0, 36.0 ],
					"presentation" : 1,
					"appearance" : 1,
					"parameter_enable" : 1,
					"numinlets" : 1,
					"id" : "obj-9",
					"presentation_rect" : [ 95.0, 47.0, 47.0, 36.0 ],
					"saved_attribute_attributes" : 					{
						"valueof" : 						{
							"parameter_linknames" : 0,
							"parameter_modmode" : 0,
							"parameter_info" : "",
							"parameter_units" : "",
							"parameter_order" : 0,
							"parameter_defer" : 0,
							"parameter_speedlim" : 1.0,
							"parameter_steps" : 0,
							"parameter_invisible" : 0,
							"parameter_exponent" : 1.0,
							"parameter_annotation_name" : "",
							"parameter_unitstyle" : 4,
							"parameter_mmax" : 0.0,
							"parameter_mmin" : -70.0,
							"parameter_initial" : [ -12.0 ],
							"parameter_type" : 0,
							"parameter_initial_enable" : 1,
							"parameter_shortname" : "Level",
							"parameter_modmax" : 127.0,
							"parameter_longname" : "live.dial[1]",
							"parameter_modmin" : 0.0
						}

					}

				}

			}
, 			{
				"box" : 				{
					"maxclass" : "comment",
					"text" : "Free",
					"numoutlets" : 0,
					"fontsize" : 10.0,
					"patching_rect" : [ 1189.0, 390.0, 37.0, 18.0 ],
					"presentation" : 1,
					"fontname" : "Arial",
					"numinlets" : 1,
					"id" : "obj-8",
					"presentation_rect" : [ 58.0, 44.0, 29.0, 18.0 ]
				}

			}
, 			{
				"box" : 				{
					"maxclass" : "newobj",
					"text" : "*~ 0.",
					"numoutlets" : 1,
					"fontsize" : 12.0,
					"outlettype" : [ "signal" ],
					"patching_rect" : [ 982.0, 703.0, 42.0, 20.0 ],
					"fontname" : "Arial",
					"numinlets" : 2,
					"id" : "obj-40"
				}

			}
, 			{
				"box" : 				{
					"maxclass" : "message",
					"text" : "0.",
					"numoutlets" : 1,
					"fontsize" : 12.0,
					"outlettype" : [ "" ],
					"patching_rect" : [ 1134.0, 441.0, 32.5, 18.0 ],
					"fontname" : "Arial",
					"numinlets" : 2,
					"id" : "obj-38"
				}

			}
, 			{
				"box" : 				{
					"maxclass" : "outlet",
					"numoutlets" : 0,
					"patching_rect" : [ 960.0, 1112.0, 25.0, 25.0 ],
					"numinlets" : 1,
					"id" : "obj-24",
					"comment" : ""
				}

			}
, 			{
				"box" : 				{
					"maxclass" : "inlet",
					"numoutlets" : 1,
					"outlettype" : [ "" ],
					"patching_rect" : [ 982.0, 259.0, 25.0, 25.0 ],
					"numinlets" : 0,
					"id" : "obj-30",
					"comment" : ""
				}

			}
, 			{
				"box" : 				{
					"maxclass" : "newobj",
					"text" : "pfft~ harmonizer_child~ 4096 4",
					"numoutlets" : 1,
					"fontsize" : 12.0,
					"outlettype" : [ "signal" ],
					"patching_rect" : [ 982.0, 558.0, 176.0, 20.0 ],
					"fontname" : "Arial",
					"numinlets" : 2,
					"id" : "obj-3"
				}

			}
, 			{
				"box" : 				{
					"maxclass" : "message",
					"text" : "mode $1",
					"numoutlets" : 1,
					"fontsize" : 12.0,
					"outlettype" : [ "" ],
					"patching_rect" : [ 1056.0, 524.0, 57.0, 18.0 ],
					"fontname" : "Arial",
					"numinlets" : 2,
					"id" : "obj-11"
				}

			}
, 			{
				"box" : 				{
					"maxclass" : "comment",
					"text" : "Selection logic for modulating frequency",
					"linecount" : 2,
					"numoutlets" : 0,
					"fontsize" : 12.0,
					"patching_rect" : [ 1317.0, 418.0, 130.0, 34.0 ],
					"fontname" : "Arial",
					"numinlets" : 1,
					"id" : "obj-198"
				}

			}
, 			{
				"box" : 				{
					"maxclass" : "bpatcher",
					"varname" : "frequency_dial_switcher[3]",
					"name" : "frequency_dial_switcher.maxpat",
					"numoutlets" : 1,
					"embed" : 1,
					"outlettype" : [ "" ],
					"patching_rect" : [ 1134.0, 486.0, 58.0, 38.0 ],
					"presentation" : 1,
					"numinlets" : 2,
					"args" : [  ],
					"id" : "obj-154",
					"presentation_rect" : [ 9.0, 47.0, 50.0, 38.0 ],
					"patcher" : 					{
						"fileversion" : 1,
						"rect" : [ 1134.0, 486.0, 58.0, 38.0 ],
						"bgcolor" : [ 1.0, 1.0, 1.0, 0.0 ],
						"bglocked" : 0,
						"defrect" : [ 1134.0, 486.0, 58.0, 38.0 ],
						"openrect" : [ 0.0, 0.0, 0.0, 0.0 ],
						"openinpresentation" : 1,
						"default_fontsize" : 11.595187,
						"default_fontface" : 0,
						"default_fontname" : "Arial",
						"gridonopen" : 0,
						"gridsize" : [ 15.0, 15.0 ],
						"gridsnaponopen" : 0,
						"toolbarvisible" : 1,
						"boxanimatetime" : 200,
						"imprint" : 0,
						"enablehscroll" : 1,
						"enablevscroll" : 1,
						"devicewidth" : 0.0,
						"boxes" : [ 							{
								"box" : 								{
									"maxclass" : "newobj",
									"varname" : "freqstate",
									"text" : "autopattr freqstate @autoname 1",
									"numoutlets" : 4,
									"fontsize" : 11.595187,
									"outlettype" : [ "", "", "", "" ],
									"patching_rect" : [ 41.0, 164.0, 181.0, 20.0 ],
									"fontname" : "Arial",
									"numinlets" : 1,
									"id" : "obj-2",
									"restore" : 									{
										"live.dial" : [ 0.0 ],
										"live.dial[12]" : [ 0.0 ]
									}

								}

							}
, 							{
								"box" : 								{
									"maxclass" : "inlet",
									"numoutlets" : 1,
									"outlettype" : [ "" ],
									"patching_rect" : [ 13.0, 34.0, 25.0, 25.0 ],
									"numinlets" : 0,
									"id" : "obj-11",
									"comment" : ""
								}

							}
, 							{
								"box" : 								{
									"maxclass" : "live.dial",
									"varname" : "live.dial",
									"numoutlets" : 2,
									"fontface" : 0,
									"outlettype" : [ "", "float" ],
									"patching_rect" : [ 13.0, 81.0, 47.0, 36.0 ],
									"presentation" : 1,
									"appearance" : 1,
									"parameter_enable" : 1,
									"triangle" : 1,
									"numinlets" : 1,
									"id" : "obj-15",
									"presentation_rect" : [ 1.0, 36.0, 52.0, 36.0 ],
									"saved_attribute_attributes" : 									{
										"valueof" : 										{
											"parameter_linknames" : 0,
											"parameter_modmode" : 0,
											"parameter_info" : "",
											"parameter_units" : "",
											"parameter_order" : 0,
											"parameter_defer" : 0,
											"parameter_speedlim" : 1.0,
											"parameter_steps" : 0,
											"parameter_invisible" : 0,
											"parameter_exponent" : 1.0,
											"parameter_annotation_name" : "",
											"parameter_unitstyle" : 3,
											"parameter_mmax" : 500.0,
											"parameter_mmin" : -500.0,
											"parameter_initial" : [ 0.0 ],
											"parameter_type" : 0,
											"parameter_initial_enable" : 1,
											"parameter_shortname" : "Freq",
											"parameter_modmax" : 127.0,
											"parameter_longname" : "live.dial",
											"parameter_modmin" : 0.0
										}

									}

								}

							}
, 							{
								"box" : 								{
									"maxclass" : "comment",
									"text" : "Controls for frequency shifting",
									"linecount" : 2,
									"numoutlets" : 0,
									"fontsize" : 11.595187,
									"patching_rect" : [ 133.0, 81.0, 134.0, 33.0 ],
									"fontname" : "Arial",
									"numinlets" : 1,
									"id" : "obj-5"
								}

							}
, 							{
								"box" : 								{
									"maxclass" : "comment",
									"text" : "input for bpatcher",
									"numoutlets" : 0,
									"fontsize" : 11.595187,
									"patching_rect" : [ 169.0, 11.0, 104.0, 20.0 ],
									"fontname" : "Arial",
									"numinlets" : 1,
									"id" : "obj-4"
								}

							}
, 							{
								"box" : 								{
									"maxclass" : "outlet",
									"numoutlets" : 0,
									"patching_rect" : [ 13.0, 161.0, 25.0, 25.0 ],
									"numinlets" : 1,
									"id" : "obj-1",
									"comment" : ""
								}

							}
, 							{
								"box" : 								{
									"maxclass" : "inlet",
									"numoutlets" : 1,
									"outlettype" : [ "" ],
									"patching_rect" : [ 142.0, 11.0, 25.0, 25.0 ],
									"numinlets" : 0,
									"id" : "obj-7",
									"comment" : ""
								}

							}
, 							{
								"box" : 								{
									"maxclass" : "newobj",
									"text" : "thispatcher",
									"numoutlets" : 2,
									"fontsize" : 11.595187,
									"outlettype" : [ "", "" ],
									"patching_rect" : [ 142.0, 42.0, 67.0, 20.0 ],
									"fontname" : "Arial",
									"numinlets" : 1,
									"id" : "obj-8",
									"save" : [ "#N", "thispatcher", ";", "#Q", "end", ";" ]
								}

							}
, 							{
								"box" : 								{
									"maxclass" : "live.dial",
									"varname" : "live.dial[12]",
									"numoutlets" : 2,
									"fontface" : 0,
									"outlettype" : [ "", "float" ],
									"patching_rect" : [ 75.0, 80.0, 47.0, 36.0 ],
									"presentation" : 1,
									"appearance" : 1,
									"parameter_enable" : 1,
									"triangle" : 1,
									"numinlets" : 1,
									"id" : "obj-84",
									"presentation_rect" : [ 1.0, 0.0, 47.0, 36.0 ],
									"saved_attribute_attributes" : 									{
										"valueof" : 										{
											"parameter_linknames" : 0,
											"parameter_modmode" : 0,
											"parameter_info" : "",
											"parameter_units" : "",
											"parameter_order" : 0,
											"parameter_defer" : 0,
											"parameter_speedlim" : 1.0,
											"parameter_steps" : 0,
											"parameter_invisible" : 0,
											"parameter_exponent" : 1.0,
											"parameter_annotation_name" : "",
											"parameter_unitstyle" : 7,
											"parameter_mmax" : 24.0,
											"parameter_mmin" : -24.0,
											"parameter_initial" : [ 0 ],
											"parameter_type" : 1,
											"parameter_initial_enable" : 1,
											"parameter_shortname" : "Semi",
											"parameter_modmax" : 127.0,
											"parameter_longname" : "live.dial[9]",
											"parameter_modmin" : 0.0
										}

									}

								}

							}
 ],
						"lines" : [ 							{
								"patchline" : 								{
									"source" : [ "obj-84", 0 ],
									"destination" : [ "obj-1", 0 ],
									"hidden" : 0,
									"midpoints" : [ 84.5, 142.5, 22.5, 142.5 ]
								}

							}
, 							{
								"patchline" : 								{
									"source" : [ "obj-7", 0 ],
									"destination" : [ "obj-8", 0 ],
									"hidden" : 0,
									"midpoints" : [  ]
								}

							}
, 							{
								"patchline" : 								{
									"source" : [ "obj-15", 0 ],
									"destination" : [ "obj-1", 0 ],
									"hidden" : 0,
									"midpoints" : [  ]
								}

							}
, 							{
								"patchline" : 								{
									"source" : [ "obj-11", 0 ],
									"destination" : [ "obj-84", 0 ],
									"hidden" : 0,
									"midpoints" : [ 22.5, 70.0, 84.5, 70.0 ]
								}

							}
, 							{
								"patchline" : 								{
									"source" : [ "obj-11", 0 ],
									"destination" : [ "obj-15", 0 ],
									"hidden" : 0,
									"midpoints" : [  ]
								}

							}
 ]
					}

				}

			}
, 			{
				"box" : 				{
					"maxclass" : "comment",
					"text" : "Follow note frequency or use a fixed value",
					"linecount" : 3,
					"numoutlets" : 0,
					"fontsize" : 12.0,
					"patching_rect" : [ 1199.0, 490.0, 113.0, 48.0 ],
					"fontname" : "Arial",
					"numinlets" : 1,
					"id" : "obj-123"
				}

			}
, 			{
				"box" : 				{
					"maxclass" : "message",
					"text" : "offset 0 -36",
					"numoutlets" : 1,
					"fontsize" : 12.0,
					"outlettype" : [ "" ],
					"patching_rect" : [ 1234.0, 441.0, 70.0, 18.0 ],
					"fontname" : "Arial",
					"numinlets" : 2,
					"id" : "obj-112"
				}

			}
, 			{
				"box" : 				{
					"maxclass" : "message",
					"text" : "offset 0 0",
					"numoutlets" : 1,
					"fontsize" : 12.0,
					"outlettype" : [ "" ],
					"patching_rect" : [ 1173.0, 441.0, 60.0, 18.0 ],
					"fontname" : "Arial",
					"numinlets" : 2,
					"id" : "obj-111"
				}

			}
, 			{
				"box" : 				{
					"maxclass" : "newobj",
					"text" : "sel 0 1",
					"numoutlets" : 3,
					"fontsize" : 12.0,
					"outlettype" : [ "bang", "bang", "" ],
					"patching_rect" : [ 1173.0, 416.0, 143.0, 20.0 ],
					"fontname" : "Arial",
					"numinlets" : 1,
					"id" : "obj-109"
				}

			}
, 			{
				"box" : 				{
					"maxclass" : "live.toggle",
					"varname" : "live.toggle",
					"numoutlets" : 1,
					"outlettype" : [ "" ],
					"patching_rect" : [ 1173.0, 390.0, 15.0, 15.0 ],
					"presentation" : 1,
					"parameter_enable" : 1,
					"numinlets" : 1,
					"id" : "obj-98",
					"presentation_rect" : [ 69.0, 61.0, 10.0, 10.0 ],
					"saved_attribute_attributes" : 					{
						"valueof" : 						{
							"parameter_linknames" : 0,
							"parameter_modmode" : 0,
							"parameter_info" : "",
							"parameter_units" : "",
							"parameter_order" : 0,
							"parameter_defer" : 0,
							"parameter_speedlim" : 1.0,
							"parameter_steps" : 0,
							"parameter_invisible" : 0,
							"parameter_enum" : [ "off", "on" ],
							"parameter_exponent" : 1.0,
							"parameter_annotation_name" : "",
							"parameter_unitstyle" : 10,
							"parameter_mmax" : 1.0,
							"parameter_mmin" : 0.0,
							"parameter_type" : 2,
							"parameter_initial_enable" : 0,
							"parameter_shortname" : "live.toggle[2]",
							"parameter_modmax" : 127.0,
							"parameter_longname" : "live.toggle[2]",
							"parameter_modmin" : 0.0
						}

					}

				}

			}
, 			{
				"box" : 				{
					"maxclass" : "panel",
					"numoutlets" : 0,
					"bgcolor" : [ 0.784314, 0.784314, 0.784314, 1.0 ],
					"patching_rect" : [ 1281.0, 1397.0, 30.0, 26.0 ],
					"presentation" : 1,
					"rounded" : 10,
					"numinlets" : 1,
					"id" : "obj-10",
					"presentation_rect" : [ 1.0, 1.0, 243.0, 166.0 ]
				}

			}
 ],
		"lines" : [ 			{
				"patchline" : 				{
					"source" : [ "obj-154", 0 ],
					"destination" : [ "obj-3", 1 ],
					"hidden" : 0,
					"midpoints" : [  ]
				}

			}
, 			{
				"patchline" : 				{
					"source" : [ "obj-38", 0 ],
					"destination" : [ "obj-154", 0 ],
					"hidden" : 0,
					"midpoints" : [  ]
				}

			}
, 			{
				"patchline" : 				{
					"source" : [ "obj-112", 0 ],
					"destination" : [ "obj-154", 1 ],
					"hidden" : 0,
					"midpoints" : [ 1243.5, 482.5, 1182.5, 482.5 ]
				}

			}
, 			{
				"patchline" : 				{
					"source" : [ "obj-111", 0 ],
					"destination" : [ "obj-154", 1 ],
					"hidden" : 0,
					"midpoints" : [  ]
				}

			}
, 			{
				"patchline" : 				{
					"source" : [ "obj-25", 0 ],
					"destination" : [ "obj-154", 0 ],
					"hidden" : 0,
					"midpoints" : [ 1074.5, 473.5, 1143.5, 473.5 ]
				}

			}
, 			{
				"patchline" : 				{
					"source" : [ "obj-62", 0 ],
					"destination" : [ "obj-59", 1 ],
					"hidden" : 0,
					"midpoints" : [  ]
				}

			}
, 			{
				"patchline" : 				{
					"source" : [ "obj-58", 0 ],
					"destination" : [ "obj-62", 0 ],
					"hidden" : 0,
					"midpoints" : [  ]
				}

			}
, 			{
				"patchline" : 				{
					"source" : [ "obj-64", 0 ],
					"destination" : [ "obj-62", 1 ],
					"hidden" : 0,
					"midpoints" : [ 657.5, 491.5, 596.5, 491.5 ]
				}

			}
, 			{
				"patchline" : 				{
					"source" : [ "obj-65", 0 ],
					"destination" : [ "obj-62", 1 ],
					"hidden" : 0,
					"midpoints" : [  ]
				}

			}
, 			{
				"patchline" : 				{
					"source" : [ "obj-23", 0 ],
					"destination" : [ "obj-62", 0 ],
					"hidden" : 0,
					"midpoints" : [ 488.5, 486.5, 557.5, 486.5 ]
				}

			}
, 			{
				"patchline" : 				{
					"source" : [ "obj-78", 0 ],
					"destination" : [ "obj-75", 1 ],
					"hidden" : 0,
					"midpoints" : [  ]
				}

			}
, 			{
				"patchline" : 				{
					"source" : [ "obj-74", 0 ],
					"destination" : [ "obj-78", 0 ],
					"hidden" : 0,
					"midpoints" : [  ]
				}

			}
, 			{
				"patchline" : 				{
					"source" : [ "obj-81", 0 ],
					"destination" : [ "obj-78", 1 ],
					"hidden" : 0,
					"midpoints" : [  ]
				}

			}
, 			{
				"patchline" : 				{
					"source" : [ "obj-80", 0 ],
					"destination" : [ "obj-78", 1 ],
					"hidden" : 0,
					"midpoints" : [ 95.5, 493.5, 34.5, 493.5 ]
				}

			}
, 			{
				"patchline" : 				{
					"source" : [ "obj-21", 0 ],
					"destination" : [ "obj-78", 0 ],
					"hidden" : 0,
					"midpoints" : [ -75.5, 483.5, -4.5, 483.5 ]
				}

			}
, 			{
				"patchline" : 				{
					"source" : [ "obj-94", 0 ],
					"destination" : [ "obj-91", 1 ],
					"hidden" : 0,
					"midpoints" : [  ]
				}

			}
, 			{
				"patchline" : 				{
					"source" : [ "obj-90", 0 ],
					"destination" : [ "obj-94", 0 ],
					"hidden" : 0,
					"midpoints" : [  ]
				}

			}
, 			{
				"patchline" : 				{
					"source" : [ "obj-97", 0 ],
					"destination" : [ "obj-94", 1 ],
					"hidden" : 0,
					"midpoints" : [  ]
				}

			}
, 			{
				"patchline" : 				{
					"source" : [ "obj-96", 0 ],
					"destination" : [ "obj-94", 1 ],
					"hidden" : 0,
					"midpoints" : [ 1768.5, 497.5, 1707.5, 497.5 ]
				}

			}
, 			{
				"patchline" : 				{
					"source" : [ "obj-26", 0 ],
					"destination" : [ "obj-94", 0 ],
					"hidden" : 0,
					"midpoints" : [ 1589.5, 487.5, 1668.5, 487.5 ]
				}

			}
, 			{
				"patchline" : 				{
					"source" : [ "obj-27", 0 ],
					"destination" : [ "obj-87", 0 ],
					"hidden" : 0,
					"midpoints" : [  ]
				}

			}
, 			{
				"patchline" : 				{
					"source" : [ "obj-16", 0 ],
					"destination" : [ "obj-15", 0 ],
					"hidden" : 0,
					"midpoints" : [  ]
				}

			}
, 			{
				"patchline" : 				{
					"source" : [ "obj-120", 0 ],
					"destination" : [ "obj-118", 0 ],
					"hidden" : 0,
					"midpoints" : [  ]
				}

			}
, 			{
				"patchline" : 				{
					"source" : [ "obj-30", 0 ],
					"destination" : [ "obj-45", 0 ],
					"hidden" : 0,
					"midpoints" : [ 991.5, 293.5, 1030.5, 293.5 ]
				}

			}
, 			{
				"patchline" : 				{
					"source" : [ "obj-28", 0 ],
					"destination" : [ "obj-9", 0 ],
					"hidden" : 0,
					"midpoints" : [  ]
				}

			}
, 			{
				"patchline" : 				{
					"source" : [ "obj-14", 0 ],
					"destination" : [ "obj-13", 0 ],
					"hidden" : 0,
					"midpoints" : [  ]
				}

			}
, 			{
				"patchline" : 				{
					"source" : [ "obj-29", 0 ],
					"destination" : [ "obj-55", 0 ],
					"hidden" : 0,
					"midpoints" : [  ]
				}

			}
, 			{
				"patchline" : 				{
					"source" : [ "obj-12", 0 ],
					"destination" : [ "obj-7", 0 ],
					"hidden" : 0,
					"midpoints" : [  ]
				}

			}
, 			{
				"patchline" : 				{
					"source" : [ "obj-5", 0 ],
					"destination" : [ "obj-6", 0 ],
					"hidden" : 0,
					"midpoints" : [  ]
				}

			}
, 			{
				"patchline" : 				{
					"source" : [ "obj-19", 0 ],
					"destination" : [ "obj-71", 0 ],
					"hidden" : 0,
					"midpoints" : [  ]
				}

			}
, 			{
				"patchline" : 				{
					"source" : [ "obj-17", 0 ],
					"destination" : [ "obj-86", 0 ],
					"hidden" : 0,
					"midpoints" : [  ]
				}

			}
, 			{
				"patchline" : 				{
					"source" : [ "obj-4", 0 ],
					"destination" : [ "obj-34", 0 ],
					"hidden" : 0,
					"midpoints" : [  ]
				}

			}
, 			{
				"patchline" : 				{
					"source" : [ "obj-2", 0 ],
					"destination" : [ "obj-54", 0 ],
					"hidden" : 0,
					"midpoints" : [  ]
				}

			}
, 			{
				"patchline" : 				{
					"source" : [ "obj-1", 0 ],
					"destination" : [ "obj-70", 0 ],
					"hidden" : 0,
					"midpoints" : [  ]
				}

			}
, 			{
				"patchline" : 				{
					"source" : [ "obj-109", 1 ],
					"destination" : [ "obj-112", 0 ],
					"hidden" : 0,
					"midpoints" : [  ]
				}

			}
, 			{
				"patchline" : 				{
					"source" : [ "obj-109", 0 ],
					"destination" : [ "obj-111", 0 ],
					"hidden" : 0,
					"midpoints" : [  ]
				}

			}
, 			{
				"patchline" : 				{
					"source" : [ "obj-98", 0 ],
					"destination" : [ "obj-109", 0 ],
					"hidden" : 0,
					"midpoints" : [  ]
				}

			}
, 			{
				"patchline" : 				{
					"source" : [ "obj-98", 0 ],
					"destination" : [ "obj-11", 0 ],
					"hidden" : 0,
					"midpoints" : [ 1182.0, 413.5, 1065.5, 413.5 ]
				}

			}
, 			{
				"patchline" : 				{
					"source" : [ "obj-34", 0 ],
					"destination" : [ "obj-43", 0 ],
					"hidden" : 0,
					"midpoints" : [ 917.5, 717.5, 969.5, 717.5 ]
				}

			}
, 			{
				"patchline" : 				{
					"source" : [ "obj-9", 0 ],
					"destination" : [ "obj-46", 0 ],
					"hidden" : 0,
					"midpoints" : [  ]
				}

			}
, 			{
				"patchline" : 				{
					"source" : [ "obj-46", 0 ],
					"destination" : [ "obj-40", 1 ],
					"hidden" : 0,
					"midpoints" : [  ]
				}

			}
, 			{
				"patchline" : 				{
					"source" : [ "obj-40", 0 ],
					"destination" : [ "obj-43", 1 ],
					"hidden" : 0,
					"midpoints" : [  ]
				}

			}
, 			{
				"patchline" : 				{
					"source" : [ "obj-57", 0 ],
					"destination" : [ "obj-53", 1 ],
					"hidden" : 0,
					"midpoints" : [  ]
				}

			}
, 			{
				"patchline" : 				{
					"source" : [ "obj-52", 0 ],
					"destination" : [ "obj-57", 1 ],
					"hidden" : 0,
					"midpoints" : [  ]
				}

			}
, 			{
				"patchline" : 				{
					"source" : [ "obj-66", 0 ],
					"destination" : [ "obj-65", 0 ],
					"hidden" : 0,
					"midpoints" : [  ]
				}

			}
, 			{
				"patchline" : 				{
					"source" : [ "obj-66", 1 ],
					"destination" : [ "obj-64", 0 ],
					"hidden" : 0,
					"midpoints" : [  ]
				}

			}
, 			{
				"patchline" : 				{
					"source" : [ "obj-54", 0 ],
					"destination" : [ "obj-53", 0 ],
					"hidden" : 0,
					"midpoints" : [ 322.5, 701.5, 394.5, 701.5 ]
				}

			}
, 			{
				"patchline" : 				{
					"source" : [ "obj-55", 0 ],
					"destination" : [ "obj-52", 0 ],
					"hidden" : 0,
					"midpoints" : [  ]
				}

			}
, 			{
				"patchline" : 				{
					"source" : [ "obj-67", 0 ],
					"destination" : [ "obj-66", 0 ],
					"hidden" : 0,
					"midpoints" : [  ]
				}

			}
, 			{
				"patchline" : 				{
					"source" : [ "obj-67", 0 ],
					"destination" : [ "obj-60", 0 ],
					"hidden" : 0,
					"midpoints" : [ 596.0, 422.5, 479.5, 422.5 ]
				}

			}
, 			{
				"patchline" : 				{
					"source" : [ "obj-83", 0 ],
					"destination" : [ "obj-76", 0 ],
					"hidden" : 0,
					"midpoints" : [ 34.0, 424.5, -87.5, 424.5 ]
				}

			}
, 			{
				"patchline" : 				{
					"source" : [ "obj-83", 0 ],
					"destination" : [ "obj-82", 0 ],
					"hidden" : 0,
					"midpoints" : [  ]
				}

			}
, 			{
				"patchline" : 				{
					"source" : [ "obj-71", 0 ],
					"destination" : [ "obj-68", 0 ],
					"hidden" : 0,
					"midpoints" : [  ]
				}

			}
, 			{
				"patchline" : 				{
					"source" : [ "obj-70", 0 ],
					"destination" : [ "obj-69", 0 ],
					"hidden" : 0,
					"midpoints" : [ -247.5, 722.0, -172.5, 722.0 ]
				}

			}
, 			{
				"patchline" : 				{
					"source" : [ "obj-82", 1 ],
					"destination" : [ "obj-80", 0 ],
					"hidden" : 0,
					"midpoints" : [  ]
				}

			}
, 			{
				"patchline" : 				{
					"source" : [ "obj-82", 0 ],
					"destination" : [ "obj-81", 0 ],
					"hidden" : 0,
					"midpoints" : [  ]
				}

			}
, 			{
				"patchline" : 				{
					"source" : [ "obj-68", 0 ],
					"destination" : [ "obj-73", 1 ],
					"hidden" : 0,
					"midpoints" : [  ]
				}

			}
, 			{
				"patchline" : 				{
					"source" : [ "obj-73", 0 ],
					"destination" : [ "obj-69", 1 ],
					"hidden" : 0,
					"midpoints" : [  ]
				}

			}
, 			{
				"patchline" : 				{
					"source" : [ "obj-89", 0 ],
					"destination" : [ "obj-85", 1 ],
					"hidden" : 0,
					"midpoints" : [  ]
				}

			}
, 			{
				"patchline" : 				{
					"source" : [ "obj-84", 0 ],
					"destination" : [ "obj-89", 1 ],
					"hidden" : 0,
					"midpoints" : [  ]
				}

			}
, 			{
				"patchline" : 				{
					"source" : [ "obj-87", 0 ],
					"destination" : [ "obj-84", 0 ],
					"hidden" : 0,
					"midpoints" : [  ]
				}

			}
, 			{
				"patchline" : 				{
					"source" : [ "obj-86", 0 ],
					"destination" : [ "obj-85", 0 ],
					"hidden" : 0,
					"midpoints" : [ 1386.5, 718.5, 1469.5, 718.5 ]
				}

			}
, 			{
				"patchline" : 				{
					"source" : [ "obj-100", 0 ],
					"destination" : [ "obj-92", 0 ],
					"hidden" : 0,
					"midpoints" : [ 1707.0, 428.5, 1527.5, 428.5 ]
				}

			}
, 			{
				"patchline" : 				{
					"source" : [ "obj-100", 0 ],
					"destination" : [ "obj-99", 0 ],
					"hidden" : 0,
					"midpoints" : [  ]
				}

			}
, 			{
				"patchline" : 				{
					"source" : [ "obj-99", 0 ],
					"destination" : [ "obj-97", 0 ],
					"hidden" : 0,
					"midpoints" : [  ]
				}

			}
, 			{
				"patchline" : 				{
					"source" : [ "obj-99", 1 ],
					"destination" : [ "obj-96", 0 ],
					"hidden" : 0,
					"midpoints" : [  ]
				}

			}
, 			{
				"patchline" : 				{
					"source" : [ "obj-69", 0 ],
					"destination" : [ "obj-102", 0 ],
					"hidden" : 0,
					"midpoints" : [ -172.5, 756.0, 969.5, 756.0 ]
				}

			}
, 			{
				"patchline" : 				{
					"source" : [ "obj-53", 0 ],
					"destination" : [ "obj-102", 0 ],
					"hidden" : 0,
					"midpoints" : [ 394.5, 756.0, 969.5, 756.0 ]
				}

			}
, 			{
				"patchline" : 				{
					"source" : [ "obj-85", 0 ],
					"destination" : [ "obj-102", 0 ],
					"hidden" : 0,
					"midpoints" : [ 1469.5, 756.0, 969.5, 756.0 ]
				}

			}
, 			{
				"patchline" : 				{
					"source" : [ "obj-43", 0 ],
					"destination" : [ "obj-102", 0 ],
					"hidden" : 0,
					"midpoints" : [  ]
				}

			}
, 			{
				"patchline" : 				{
					"source" : [ "obj-42", 0 ],
					"destination" : [ "obj-104", 0 ],
					"hidden" : 0,
					"midpoints" : [  ]
				}

			}
, 			{
				"patchline" : 				{
					"source" : [ "obj-104", 0 ],
					"destination" : [ "obj-108", 1 ],
					"hidden" : 0,
					"midpoints" : [  ]
				}

			}
, 			{
				"patchline" : 				{
					"source" : [ "obj-102", 0 ],
					"destination" : [ "obj-108", 0 ],
					"hidden" : 0,
					"midpoints" : [  ]
				}

			}
, 			{
				"patchline" : 				{
					"source" : [ "obj-22", 0 ],
					"destination" : [ "obj-110", 0 ],
					"hidden" : 0,
					"midpoints" : [  ]
				}

			}
, 			{
				"patchline" : 				{
					"source" : [ "obj-110", 0 ],
					"destination" : [ "obj-114", 0 ],
					"hidden" : 0,
					"midpoints" : [  ]
				}

			}
, 			{
				"patchline" : 				{
					"source" : [ "obj-114", 0 ],
					"destination" : [ "obj-115", 0 ],
					"hidden" : 0,
					"midpoints" : [  ]
				}

			}
, 			{
				"patchline" : 				{
					"source" : [ "obj-115", 0 ],
					"destination" : [ "obj-117", 0 ],
					"hidden" : 0,
					"midpoints" : [ 989.5, 903.5, 1123.5, 903.5 ]
				}

			}
, 			{
				"patchline" : 				{
					"source" : [ "obj-117", 0 ],
					"destination" : [ "obj-118", 1 ],
					"hidden" : 0,
					"midpoints" : [  ]
				}

			}
, 			{
				"patchline" : 				{
					"source" : [ "obj-118", 0 ],
					"destination" : [ "obj-108", 0 ],
					"hidden" : 0,
					"midpoints" : [ 1015.5, 1032.0, 969.5, 1032.0 ]
				}

			}
, 			{
				"patchline" : 				{
					"source" : [ "obj-115", 0 ],
					"destination" : [ "obj-102", 1 ],
					"hidden" : 0,
					"midpoints" : [  ]
				}

			}
, 			{
				"patchline" : 				{
					"source" : [ "obj-70", 0 ],
					"destination" : [ "obj-5", 0 ],
					"hidden" : 0,
					"midpoints" : [ -247.5, 672.5, -236.5, 672.5 ]
				}

			}
, 			{
				"patchline" : 				{
					"source" : [ "obj-54", 0 ],
					"destination" : [ "obj-12", 0 ],
					"hidden" : 0,
					"midpoints" : [ 322.5, 647.0, 334.5, 647.0 ]
				}

			}
, 			{
				"patchline" : 				{
					"source" : [ "obj-34", 0 ],
					"destination" : [ "obj-14", 0 ],
					"hidden" : 0,
					"midpoints" : [ 917.5, 659.0, 929.5, 659.0 ]
				}

			}
, 			{
				"patchline" : 				{
					"source" : [ "obj-86", 0 ],
					"destination" : [ "obj-16", 0 ],
					"hidden" : 0,
					"midpoints" : [ 1386.5, 660.5, 1399.5, 660.5 ]
				}

			}
, 			{
				"patchline" : 				{
					"source" : [ "obj-83", 0 ],
					"destination" : [ "obj-74", 0 ],
					"hidden" : 0,
					"midpoints" : [ 34.0, 424.0, -4.5, 424.0 ]
				}

			}
, 			{
				"patchline" : 				{
					"source" : [ "obj-67", 0 ],
					"destination" : [ "obj-58", 0 ],
					"hidden" : 0,
					"midpoints" : [ 596.0, 422.0, 557.5, 422.0 ]
				}

			}
, 			{
				"patchline" : 				{
					"source" : [ "obj-98", 0 ],
					"destination" : [ "obj-38", 0 ],
					"hidden" : 0,
					"midpoints" : [ 1182.0, 413.0, 1143.5, 413.0 ]
				}

			}
, 			{
				"patchline" : 				{
					"source" : [ "obj-100", 0 ],
					"destination" : [ "obj-90", 0 ],
					"hidden" : 0,
					"midpoints" : [ 1707.0, 428.0, 1668.5, 428.0 ]
				}

			}
, 			{
				"patchline" : 				{
					"source" : [ "obj-108", 0 ],
					"destination" : [ "obj-24", 0 ],
					"hidden" : 0,
					"midpoints" : [  ]
				}

			}
, 			{
				"patchline" : 				{
					"source" : [ "obj-30", 0 ],
					"destination" : [ "obj-3", 0 ],
					"hidden" : 0,
					"midpoints" : [  ]
				}

			}
, 			{
				"patchline" : 				{
					"source" : [ "obj-3", 0 ],
					"destination" : [ "obj-40", 0 ],
					"hidden" : 0,
					"midpoints" : [  ]
				}

			}
, 			{
				"patchline" : 				{
					"source" : [ "obj-11", 0 ],
					"destination" : [ "obj-3", 1 ],
					"hidden" : 0,
					"midpoints" : [ 1065.5, 549.5, 1148.5, 549.5 ]
				}

			}
, 			{
				"patchline" : 				{
					"source" : [ "obj-30", 0 ],
					"destination" : [ "obj-91", 0 ],
					"hidden" : 0,
					"midpoints" : [ 991.5, 382.5, 1491.5, 382.5 ]
				}

			}
, 			{
				"patchline" : 				{
					"source" : [ "obj-92", 0 ],
					"destination" : [ "obj-91", 1 ],
					"hidden" : 0,
					"midpoints" : [ 1527.5, 564.5, 1648.5, 564.5 ]
				}

			}
, 			{
				"patchline" : 				{
					"source" : [ "obj-91", 0 ],
					"destination" : [ "obj-89", 0 ],
					"hidden" : 0,
					"midpoints" : [  ]
				}

			}
, 			{
				"patchline" : 				{
					"source" : [ "obj-30", 0 ],
					"destination" : [ "obj-59", 0 ],
					"hidden" : 0,
					"midpoints" : [ 991.5, 381.5, 416.5, 381.5 ]
				}

			}
, 			{
				"patchline" : 				{
					"source" : [ "obj-60", 0 ],
					"destination" : [ "obj-59", 1 ],
					"hidden" : 0,
					"midpoints" : [ 479.5, 558.5, 573.5, 558.5 ]
				}

			}
, 			{
				"patchline" : 				{
					"source" : [ "obj-59", 0 ],
					"destination" : [ "obj-57", 0 ],
					"hidden" : 0,
					"midpoints" : [  ]
				}

			}
, 			{
				"patchline" : 				{
					"source" : [ "obj-30", 0 ],
					"destination" : [ "obj-75", 0 ],
					"hidden" : 0,
					"midpoints" : [ 991.5, 381.5, -150.5, 381.5 ]
				}

			}
, 			{
				"patchline" : 				{
					"source" : [ "obj-75", 0 ],
					"destination" : [ "obj-73", 0 ],
					"hidden" : 0,
					"midpoints" : [  ]
				}

			}
, 			{
				"patchline" : 				{
					"source" : [ "obj-76", 0 ],
					"destination" : [ "obj-75", 1 ],
					"hidden" : 0,
					"midpoints" : [ -87.5, 560.5, 6.5, 560.5 ]
				}

			}
 ],
		"parameters" : 		{
			"obj-94::obj-84" : [ "live.dial[5]", "Semi", 0 ],
			"obj-62::obj-84" : [ "live.dial[20]", "Semi", 0 ],
			"obj-62::obj-15" : [ "live.dial[19]", "Freq", 0 ],
			"obj-22" : [ "live.dial[14]", "Dry/Wet", 0 ],
			"obj-154::obj-84" : [ "live.dial[9]", "Semi", 0 ],
			"obj-67" : [ "live.toggle[6]", "live.toggle[2]", 0 ],
			"obj-87" : [ "live.dial[6]", "Level", 0 ],
			"obj-78::obj-84" : [ "live.dial[3]", "Semi", 0 ],
			"obj-9" : [ "live.dial[1]", "Level", 0 ],
			"obj-42" : [ "live.dial[18]", "Volume", 0 ],
			"obj-100" : [ "live.toggle[4]", "live.toggle[2]", 0 ],
			"obj-34" : [ "live.text[2]", "live.text", 0 ],
			"obj-94::obj-15" : [ "live.dial[22]", "Freq", 0 ],
			"obj-154::obj-15" : [ "live.dial", "Freq", 0 ],
			"obj-54" : [ "live.text[4]", "live.text", 0 ],
			"obj-83" : [ "live.toggle[3]", "live.toggle[2]", 0 ],
			"obj-78::obj-15" : [ "live.dial[2]", "Freq", 0 ],
			"obj-98" : [ "live.toggle[2]", "live.toggle[2]", 0 ],
			"obj-55" : [ "live.dial[21]", "Level", 0 ],
			"obj-70" : [ "live.text[5]", "live.text", 0 ],
			"obj-71" : [ "live.dial[4]", "Level", 0 ],
			"obj-86" : [ "live.text[6]", "live.text", 0 ]
		}

	}

}
