{
	"patcher" : 	{
		"fileversion" : 1,
		"appversion" : 		{
			"major" : 5,
			"minor" : 1,
			"revision" : 9
		}
,
		"rect" : [ 53.0, 210.0, 685.0, 380.0 ],
		"bglocked" : 0,
		"defrect" : [ 53.0, 210.0, 685.0, 380.0 ],
		"openrect" : [ 0.0, 0.0, 0.0, 0.0 ],
		"openinpresentation" : 1,
		"default_fontsize" : 12.0,
		"default_fontface" : 0,
		"default_fontname" : "Arial",
		"gridonopen" : 0,
		"gridsize" : [ 15.0, 15.0 ],
		"gridsnaponopen" : 0,
		"toolbarvisible" : 1,
		"boxanimatetime" : 200,
		"imprint" : 0,
		"enablehscroll" : 1,
		"enablevscroll" : 1,
		"devicewidth" : 0.0,
		"boxes" : [ 			{
				"box" : 				{
					"maxclass" : "newobj",
					"varname" : "numharm",
					"text" : "pattr numharm @bindto numberharmonics",
					"outlettype" : [ "", "", "" ],
					"fontsize" : 12.0,
					"patching_rect" : [ 125.0, 330.0, 236.0, 20.0 ],
					"numinlets" : 1,
					"id" : "obj-1",
					"fontname" : "Arial",
					"numoutlets" : 3,
					"restore" : [ 0.0 ],
					"saved_object_attributes" : 					{
						"parameter_enable" : 0
					}

				}

			}
, 			{
				"box" : 				{
					"maxclass" : "comment",
					"text" : "Distribution",
					"linecount" : 2,
					"fontsize" : 10.0,
					"presentation_rect" : [ -1.0, 40.0, 61.0, 18.0 ],
					"patching_rect" : [ -1.0, 38.0, 58.0, 29.0 ],
					"numinlets" : 1,
					"presentation" : 1,
					"id" : "obj-4",
					"fontname" : "Arial",
					"numoutlets" : 0
				}

			}
, 			{
				"box" : 				{
					"maxclass" : "comment",
					"text" : "# of Harm.",
					"fontsize" : 10.0,
					"presentation_rect" : [ 1.0, 4.0, 58.0, 18.0 ],
					"patching_rect" : [ 235.0, 92.0, 58.0, 18.0 ],
					"numinlets" : 1,
					"presentation" : 1,
					"id" : "obj-3",
					"fontname" : "Arial",
					"numoutlets" : 0
				}

			}
, 			{
				"box" : 				{
					"maxclass" : "live.menu",
					"varname" : "numberharmonics",
					"outlettype" : [ "", "", "float" ],
					"fontface" : 0,
					"presentation_rect" : [ 2.0, 19.0, 70.0, 15.0 ],
					"patching_rect" : [ 235.0, 110.0, 100.0, 15.0 ],
					"numinlets" : 1,
					"presentation" : 1,
					"id" : "obj-2",
					"pictures" : [  ],
					"parameter_enable" : 1,
					"numoutlets" : 3,
					"saved_attribute_attributes" : 					{
						"valueof" : 						{
							"parameter_modmax" : 127.0,
							"parameter_longname" : "live.menu",
							"parameter_modmin" : 0.0,
							"parameter_linknames" : 0,
							"parameter_modmode" : 0,
							"parameter_info" : "",
							"parameter_units" : "",
							"parameter_order" : 0,
							"parameter_defer" : 0,
							"parameter_speedlim" : 1.0,
							"parameter_steps" : 0,
							"parameter_invisible" : 0,
							"parameter_enum" : [ "0", "1", "2", "3", "4", "5", "6", "7", "8", "9", "10", "11", "12" ],
							"parameter_exponent" : 1.0,
							"parameter_annotation_name" : "",
							"parameter_unitstyle" : 10,
							"parameter_mmax" : 127.0,
							"parameter_mmin" : 0.0,
							"parameter_type" : 2,
							"parameter_initial_enable" : 0,
							"parameter_shortname" : "live.menu"
						}

					}

				}

			}
, 			{
				"box" : 				{
					"maxclass" : "comment",
					"text" : "Input MIDI Note",
					"fontsize" : 12.0,
					"patching_rect" : [ 259.0, 206.0, 95.0, 20.0 ],
					"numinlets" : 1,
					"id" : "obj-86",
					"fontname" : "Arial",
					"numoutlets" : 0
				}

			}
, 			{
				"box" : 				{
					"maxclass" : "outlet",
					"patching_rect" : [ 81.0, 273.0, 25.0, 25.0 ],
					"numinlets" : 1,
					"id" : "obj-82",
					"numoutlets" : 0,
					"comment" : "Generated Harmonic MIDI Note Number"
				}

			}
, 			{
				"box" : 				{
					"maxclass" : "comment",
					"text" : "Choose one of the harmonics according to a distribution.",
					"linecount" : 3,
					"fontsize" : 12.0,
					"patching_rect" : [ 202.0, 18.0, 150.0, 48.0 ],
					"numinlets" : 1,
					"id" : "obj-67",
					"fontname" : "Arial",
					"numoutlets" : 0
				}

			}
, 			{
				"box" : 				{
					"maxclass" : "comment",
					"text" : "Approximation of harmonic series in MIDI",
					"linecount" : 2,
					"fontsize" : 12.0,
					"patching_rect" : [ 10.0, 100.0, 150.0, 34.0 ],
					"numinlets" : 1,
					"id" : "obj-66",
					"fontname" : "Arial",
					"numoutlets" : 0
				}

			}
, 			{
				"box" : 				{
					"maxclass" : "button",
					"outlettype" : [ "bang" ],
					"patching_rect" : [ 177.0, 37.0, 20.0, 20.0 ],
					"numinlets" : 1,
					"id" : "obj-64",
					"numoutlets" : 1
				}

			}
, 			{
				"box" : 				{
					"maxclass" : "inlet",
					"outlettype" : [ "" ],
					"patching_rect" : [ 230.0, 204.0, 25.0, 25.0 ],
					"numinlets" : 0,
					"id" : "obj-61",
					"numoutlets" : 1,
					"comment" : "MIDI Note Number"
				}

			}
, 			{
				"box" : 				{
					"maxclass" : "newobj",
					"text" : "+",
					"outlettype" : [ "int" ],
					"fontsize" : 12.0,
					"patching_rect" : [ 81.0, 246.0, 167.5, 20.0 ],
					"numinlets" : 2,
					"id" : "obj-58",
					"fontname" : "Arial",
					"numoutlets" : 1
				}

			}
, 			{
				"box" : 				{
					"maxclass" : "newobj",
					"text" : "delay 1",
					"outlettype" : [ "bang" ],
					"fontsize" : 12.0,
					"patching_rect" : [ 81.0, 186.0, 49.0, 20.0 ],
					"numinlets" : 2,
					"id" : "obj-55",
					"fontname" : "Arial",
					"numoutlets" : 1
				}

			}
, 			{
				"box" : 				{
					"maxclass" : "newobj",
					"text" : "scale 0. 1. 0 13",
					"outlettype" : [ "" ],
					"fontsize" : 12.0,
					"patching_rect" : [ 177.0, 134.0, 92.0, 20.0 ],
					"numinlets" : 6,
					"id" : "obj-50",
					"fontname" : "Arial",
					"numoutlets" : 1
				}

			}
, 			{
				"box" : 				{
					"maxclass" : "bpatcher",
					"outlettype" : [ "float" ],
					"presentation_rect" : [ 2.0, 55.0, 70.0, 15.0 ],
					"patching_rect" : [ 177.0, 69.0, 70.0, 15.0 ],
					"numinlets" : 1,
					"presentation" : 1,
					"id" : "obj-51",
					"name" : "distributions.maxpat",
					"numoutlets" : 1,
					"embed" : 1,
					"args" : [  ],
					"patcher" : 					{
						"fileversion" : 1,
						"appversion" : 						{
							"major" : 5,
							"minor" : 1,
							"revision" : 9
						}
,
						"rect" : [ 177.0, 69.0, 70.0, 15.0 ],
						"bgcolor" : [ 1.0, 1.0, 1.0, 0.0 ],
						"bglocked" : 0,
						"defrect" : [ 177.0, 69.0, 70.0, 15.0 ],
						"openrect" : [ 0.0, 0.0, 0.0, 0.0 ],
						"openinpresentation" : 1,
						"default_fontsize" : 12.0,
						"default_fontface" : 0,
						"default_fontname" : "Arial",
						"gridonopen" : 0,
						"gridsize" : [ 15.0, 15.0 ],
						"gridsnaponopen" : 0,
						"toolbarvisible" : 1,
						"boxanimatetime" : 200,
						"imprint" : 0,
						"enablehscroll" : 1,
						"enablevscroll" : 1,
						"devicewidth" : 0.0,
						"boxes" : [ 							{
								"box" : 								{
									"maxclass" : "comment",
									"text" : "restore state of menu",
									"fontsize" : 12.0,
									"patching_rect" : [ 530.0, 331.0, 150.0, 20.0 ],
									"numinlets" : 1,
									"id" : "obj-14",
									"fontname" : "Arial",
									"numoutlets" : 0
								}

							}
, 							{
								"box" : 								{
									"maxclass" : "newobj",
									"varname" : "menu",
									"text" : "pattr menu @bindto distmenu",
									"outlettype" : [ "", "", "" ],
									"fontsize" : 12.0,
									"patching_rect" : [ 528.0, 351.0, 168.0, 20.0 ],
									"numinlets" : 1,
									"id" : "obj-17",
									"fontname" : "Arial",
									"numoutlets" : 3,
									"restore" : [ 5.0 ],
									"saved_object_attributes" : 									{
										"parameter_enable" : 0
									}

								}

							}
, 							{
								"box" : 								{
									"maxclass" : "flonum",
									"outlettype" : [ "float", "bang" ],
									"fontsize" : 12.0,
									"patching_rect" : [ 560.0, 166.0, 50.0, 20.0 ],
									"numinlets" : 1,
									"id" : "obj-13",
									"fontname" : "Arial",
									"numoutlets" : 2
								}

							}
, 							{
								"box" : 								{
									"maxclass" : "newobj",
									"text" : "/ 100.",
									"outlettype" : [ "float" ],
									"fontsize" : 12.0,
									"patching_rect" : [ 560.0, 140.0, 41.0, 20.0 ],
									"numinlets" : 2,
									"id" : "obj-12",
									"fontname" : "Arial",
									"numoutlets" : 1
								}

							}
, 							{
								"box" : 								{
									"maxclass" : "newobj",
									"text" : "random 101",
									"outlettype" : [ "int" ],
									"fontsize" : 12.0,
									"patching_rect" : [ 560.0, 117.0, 75.0, 20.0 ],
									"numinlets" : 2,
									"id" : "obj-10",
									"fontname" : "Arial",
									"numoutlets" : 1
								}

							}
, 							{
								"box" : 								{
									"maxclass" : "comment",
									"text" : "Bang produces output [0., 1.] of selected distribution.",
									"linecount" : 2,
									"fontsize" : 12.0,
									"patching_rect" : [ 43.0, 14.0, 260.0, 34.0 ],
									"numinlets" : 1,
									"id" : "obj-25",
									"fontname" : "Arial",
									"numoutlets" : 0
								}

							}
, 							{
								"box" : 								{
									"maxclass" : "inlet",
									"outlettype" : [ "bang" ],
									"patching_rect" : [ 15.0, 6.0, 25.0, 25.0 ],
									"numinlets" : 0,
									"id" : "obj-23",
									"numoutlets" : 1,
									"comment" : ""
								}

							}
, 							{
								"box" : 								{
									"maxclass" : "button",
									"outlettype" : [ "bang" ],
									"patching_rect" : [ 15.0, 36.0, 20.0, 20.0 ],
									"numinlets" : 1,
									"id" : "obj-20",
									"numoutlets" : 1
								}

							}
, 							{
								"box" : 								{
									"maxclass" : "live.menu",
									"varname" : "distmenu",
									"outlettype" : [ "", "", "float" ],
									"fontface" : 0,
									"presentation_rect" : [ 0.0, 0.0, 71.0, 15.0 ],
									"patching_rect" : [ 15.0, 66.0, 100.0, 15.0 ],
									"numinlets" : 1,
									"presentation" : 1,
									"id" : "obj-15",
									"pictures" : [  ],
									"parameter_enable" : 1,
									"numoutlets" : 3,
									"saved_attribute_attributes" : 									{
										"valueof" : 										{
											"parameter_modmax" : 127.0,
											"parameter_longname" : "live.menu[1]",
											"parameter_modmin" : 0.0,
											"parameter_linknames" : 0,
											"parameter_modmode" : 0,
											"parameter_info" : "",
											"parameter_units" : "",
											"parameter_order" : 0,
											"parameter_defer" : 0,
											"parameter_speedlim" : 1.0,
											"parameter_steps" : 0,
											"parameter_invisible" : 0,
											"parameter_enum" : [ "Gaussian", "Triangular", "Beta", "Linear High", "Linear Low", "Uniform" ],
											"parameter_exponent" : 1.0,
											"parameter_annotation_name" : "",
											"parameter_unitstyle" : 10,
											"parameter_mmax" : 127.0,
											"parameter_mmin" : 0.0,
											"parameter_type" : 2,
											"parameter_initial_enable" : 0,
											"parameter_shortname" : "live.menu"
										}

									}

								}

							}
, 							{
								"box" : 								{
									"maxclass" : "outlet",
									"patching_rect" : [ 15.0, 204.0, 25.0, 25.0 ],
									"numinlets" : 1,
									"id" : "obj-3",
									"numoutlets" : 0,
									"comment" : "0-1 Float Output"
								}

							}
, 							{
								"box" : 								{
									"maxclass" : "flonum",
									"outlettype" : [ "float", "bang" ],
									"fontsize" : 12.0,
									"patching_rect" : [ 451.0, 156.0, 50.0, 20.0 ],
									"numinlets" : 1,
									"id" : "obj-9",
									"fontname" : "Arial",
									"numoutlets" : 2
								}

							}
, 							{
								"box" : 								{
									"maxclass" : "flonum",
									"outlettype" : [ "float", "bang" ],
									"fontsize" : 12.0,
									"patching_rect" : [ 342.0, 156.0, 74.0, 20.0 ],
									"numinlets" : 1,
									"id" : "obj-8",
									"fontname" : "Arial",
									"numoutlets" : 2
								}

							}
, 							{
								"box" : 								{
									"maxclass" : "flonum",
									"outlettype" : [ "float", "bang" ],
									"fontsize" : 12.0,
									"patching_rect" : [ 233.0, 156.0, 50.0, 20.0 ],
									"numinlets" : 1,
									"id" : "obj-7",
									"fontname" : "Arial",
									"numoutlets" : 2
								}

							}
, 							{
								"box" : 								{
									"maxclass" : "flonum",
									"outlettype" : [ "float", "bang" ],
									"fontsize" : 12.0,
									"patching_rect" : [ 124.0, 156.0, 50.0, 20.0 ],
									"numinlets" : 1,
									"id" : "obj-6",
									"fontname" : "Arial",
									"numoutlets" : 2
								}

							}
, 							{
								"box" : 								{
									"maxclass" : "flonum",
									"outlettype" : [ "float", "bang" ],
									"fontsize" : 12.0,
									"patching_rect" : [ 15.0, 156.0, 50.0, 20.0 ],
									"numinlets" : 1,
									"id" : "obj-4",
									"fontname" : "Arial",
									"numoutlets" : 2
								}

							}
, 							{
								"box" : 								{
									"maxclass" : "newobj",
									"text" : "select 0 1 2 3 4 5",
									"outlettype" : [ "bang", "bang", "bang", "bang", "bang", "bang", "" ],
									"fontsize" : 12.0,
									"patching_rect" : [ 15.0, 89.0, 673.0, 20.0 ],
									"numinlets" : 1,
									"id" : "obj-2",
									"fontname" : "Arial",
									"numoutlets" : 7
								}

							}
, 							{
								"box" : 								{
									"maxclass" : "newobj",
									"text" : "js lineardist.js high",
									"linecount" : 2,
									"outlettype" : [ "" ],
									"fontsize" : 12.0,
									"patching_rect" : [ 342.0, 116.0, 92.0, 34.0 ],
									"numinlets" : 1,
									"id" : "obj-128",
									"fontname" : "Arial",
									"numoutlets" : 1
								}

							}
, 							{
								"box" : 								{
									"maxclass" : "newobj",
									"text" : "js betadist.js 1 0.4 0.3",
									"linecount" : 2,
									"outlettype" : [ "" ],
									"fontsize" : 12.0,
									"patching_rect" : [ 233.0, 116.0, 81.0, 34.0 ],
									"numinlets" : 1,
									"id" : "obj-5",
									"fontname" : "Arial",
									"numoutlets" : 1
								}

							}
, 							{
								"box" : 								{
									"maxclass" : "newobj",
									"text" : "js tridist.js 1",
									"outlettype" : [ "" ],
									"fontsize" : 12.0,
									"patching_rect" : [ 124.0, 116.0, 73.0, 20.0 ],
									"numinlets" : 1,
									"id" : "obj-34",
									"fontname" : "Arial",
									"numoutlets" : 1
								}

							}
, 							{
								"box" : 								{
									"maxclass" : "newobj",
									"text" : "js gaussdist.js 1 5",
									"outlettype" : [ "" ],
									"fontsize" : 12.0,
									"patching_rect" : [ 15.0, 116.0, 105.0, 20.0 ],
									"numinlets" : 1,
									"id" : "obj-45",
									"fontname" : "Arial",
									"numoutlets" : 1
								}

							}
, 							{
								"box" : 								{
									"maxclass" : "newobj",
									"text" : "js lineardist.js low",
									"linecount" : 2,
									"outlettype" : [ "" ],
									"fontsize" : 12.0,
									"patching_rect" : [ 451.0, 116.0, 89.0, 34.0 ],
									"numinlets" : 1,
									"id" : "obj-11",
									"fontname" : "Arial",
									"numoutlets" : 1
								}

							}
 ],
						"lines" : [ 							{
								"patchline" : 								{
									"source" : [ "obj-4", 0 ],
									"destination" : [ "obj-3", 0 ],
									"hidden" : 0,
									"midpoints" : [  ]
								}

							}
, 							{
								"patchline" : 								{
									"source" : [ "obj-6", 0 ],
									"destination" : [ "obj-3", 0 ],
									"hidden" : 0,
									"midpoints" : [ 133.5, 193.5, 24.5, 193.5 ]
								}

							}
, 							{
								"patchline" : 								{
									"source" : [ "obj-7", 0 ],
									"destination" : [ "obj-3", 0 ],
									"hidden" : 0,
									"midpoints" : [ 242.5, 193.5, 24.5, 193.5 ]
								}

							}
, 							{
								"patchline" : 								{
									"source" : [ "obj-8", 0 ],
									"destination" : [ "obj-3", 0 ],
									"hidden" : 0,
									"midpoints" : [ 351.5, 193.5, 24.5, 193.5 ]
								}

							}
, 							{
								"patchline" : 								{
									"source" : [ "obj-9", 0 ],
									"destination" : [ "obj-3", 0 ],
									"hidden" : 0,
									"midpoints" : [ 460.5, 193.5, 24.5, 193.5 ]
								}

							}
, 							{
								"patchline" : 								{
									"source" : [ "obj-45", 0 ],
									"destination" : [ "obj-4", 0 ],
									"hidden" : 0,
									"midpoints" : [  ]
								}

							}
, 							{
								"patchline" : 								{
									"source" : [ "obj-34", 0 ],
									"destination" : [ "obj-6", 0 ],
									"hidden" : 0,
									"midpoints" : [  ]
								}

							}
, 							{
								"patchline" : 								{
									"source" : [ "obj-5", 0 ],
									"destination" : [ "obj-7", 0 ],
									"hidden" : 0,
									"midpoints" : [  ]
								}

							}
, 							{
								"patchline" : 								{
									"source" : [ "obj-128", 0 ],
									"destination" : [ "obj-8", 0 ],
									"hidden" : 0,
									"midpoints" : [  ]
								}

							}
, 							{
								"patchline" : 								{
									"source" : [ "obj-11", 0 ],
									"destination" : [ "obj-9", 0 ],
									"hidden" : 0,
									"midpoints" : [  ]
								}

							}
, 							{
								"patchline" : 								{
									"source" : [ "obj-20", 0 ],
									"destination" : [ "obj-15", 0 ],
									"hidden" : 0,
									"midpoints" : [  ]
								}

							}
, 							{
								"patchline" : 								{
									"source" : [ "obj-23", 0 ],
									"destination" : [ "obj-20", 0 ],
									"hidden" : 0,
									"midpoints" : [  ]
								}

							}
, 							{
								"patchline" : 								{
									"source" : [ "obj-10", 0 ],
									"destination" : [ "obj-12", 0 ],
									"hidden" : 0,
									"midpoints" : [  ]
								}

							}
, 							{
								"patchline" : 								{
									"source" : [ "obj-12", 0 ],
									"destination" : [ "obj-13", 0 ],
									"hidden" : 0,
									"midpoints" : [  ]
								}

							}
, 							{
								"patchline" : 								{
									"source" : [ "obj-13", 0 ],
									"destination" : [ "obj-3", 0 ],
									"hidden" : 0,
									"midpoints" : [ 569.5, 193.5, 24.5, 193.5 ]
								}

							}
, 							{
								"patchline" : 								{
									"source" : [ "obj-2", 5 ],
									"destination" : [ "obj-10", 0 ],
									"hidden" : 0,
									"midpoints" : [  ]
								}

							}
, 							{
								"patchline" : 								{
									"source" : [ "obj-15", 0 ],
									"destination" : [ "obj-2", 0 ],
									"hidden" : 0,
									"midpoints" : [  ]
								}

							}
, 							{
								"patchline" : 								{
									"source" : [ "obj-2", 4 ],
									"destination" : [ "obj-11", 0 ],
									"hidden" : 0,
									"midpoints" : [  ]
								}

							}
, 							{
								"patchline" : 								{
									"source" : [ "obj-2", 3 ],
									"destination" : [ "obj-128", 0 ],
									"hidden" : 0,
									"midpoints" : [  ]
								}

							}
, 							{
								"patchline" : 								{
									"source" : [ "obj-2", 2 ],
									"destination" : [ "obj-5", 0 ],
									"hidden" : 0,
									"midpoints" : [  ]
								}

							}
, 							{
								"patchline" : 								{
									"source" : [ "obj-2", 1 ],
									"destination" : [ "obj-34", 0 ],
									"hidden" : 0,
									"midpoints" : [  ]
								}

							}
, 							{
								"patchline" : 								{
									"source" : [ "obj-2", 0 ],
									"destination" : [ "obj-45", 0 ],
									"hidden" : 0,
									"midpoints" : [  ]
								}

							}
 ]
					}

				}

			}
, 			{
				"box" : 				{
					"maxclass" : "number",
					"outlettype" : [ "int", "bang" ],
					"fontsize" : 12.0,
					"patching_rect" : [ 177.0, 158.0, 50.0, 20.0 ],
					"numinlets" : 1,
					"id" : "obj-52",
					"fontname" : "Arial",
					"numoutlets" : 2
				}

			}
, 			{
				"box" : 				{
					"maxclass" : "newobj",
					"text" : "loadmess 0 12 19 24 28 31 34 36 38 40 41 43 44 46",
					"linecount" : 2,
					"outlettype" : [ "" ],
					"fontsize" : 12.0,
					"patching_rect" : [ 7.0, 136.0, 161.0, 34.0 ],
					"numinlets" : 1,
					"id" : "obj-9",
					"fontname" : "Arial",
					"numoutlets" : 1
				}

			}
, 			{
				"box" : 				{
					"maxclass" : "newobj",
					"text" : "zl mth",
					"outlettype" : [ "", "" ],
					"fontsize" : 12.0,
					"patching_rect" : [ 81.0, 215.0, 115.0, 20.0 ],
					"numinlets" : 2,
					"id" : "obj-6",
					"fontname" : "Arial",
					"numoutlets" : 2
				}

			}
 ],
		"lines" : [ 			{
				"patchline" : 				{
					"source" : [ "obj-64", 0 ],
					"destination" : [ "obj-51", 0 ],
					"hidden" : 0,
					"midpoints" : [  ]
				}

			}
, 			{
				"patchline" : 				{
					"source" : [ "obj-51", 0 ],
					"destination" : [ "obj-50", 0 ],
					"hidden" : 0,
					"midpoints" : [  ]
				}

			}
, 			{
				"patchline" : 				{
					"source" : [ "obj-2", 0 ],
					"destination" : [ "obj-50", 4 ],
					"hidden" : 0,
					"midpoints" : [  ]
				}

			}
, 			{
				"patchline" : 				{
					"source" : [ "obj-50", 0 ],
					"destination" : [ "obj-52", 0 ],
					"hidden" : 0,
					"midpoints" : [  ]
				}

			}
, 			{
				"patchline" : 				{
					"source" : [ "obj-9", 0 ],
					"destination" : [ "obj-6", 0 ],
					"hidden" : 0,
					"midpoints" : [ 16.5, 207.5, 90.5, 207.5 ]
				}

			}
, 			{
				"patchline" : 				{
					"source" : [ "obj-52", 0 ],
					"destination" : [ "obj-6", 1 ],
					"hidden" : 0,
					"midpoints" : [  ]
				}

			}
, 			{
				"patchline" : 				{
					"source" : [ "obj-52", 0 ],
					"destination" : [ "obj-55", 0 ],
					"hidden" : 0,
					"midpoints" : [ 186.5, 181.5, 90.5, 181.5 ]
				}

			}
, 			{
				"patchline" : 				{
					"source" : [ "obj-55", 0 ],
					"destination" : [ "obj-6", 0 ],
					"hidden" : 0,
					"midpoints" : [  ]
				}

			}
, 			{
				"patchline" : 				{
					"source" : [ "obj-61", 0 ],
					"destination" : [ "obj-64", 0 ],
					"hidden" : 0,
					"midpoints" : [ 239.5, 242.0, 359.5, 242.0, 359.5, 12.0, 186.5, 12.0 ]
				}

			}
, 			{
				"patchline" : 				{
					"source" : [ "obj-6", 0 ],
					"destination" : [ "obj-58", 0 ],
					"hidden" : 0,
					"midpoints" : [  ]
				}

			}
, 			{
				"patchline" : 				{
					"source" : [ "obj-61", 0 ],
					"destination" : [ "obj-58", 1 ],
					"hidden" : 0,
					"midpoints" : [  ]
				}

			}
, 			{
				"patchline" : 				{
					"source" : [ "obj-58", 0 ],
					"destination" : [ "obj-82", 0 ],
					"hidden" : 0,
					"midpoints" : [  ]
				}

			}
 ],
		"parameters" : 		{
			"obj-51::obj-15" : [ "live.menu[1]", "live.menu", 0 ],
			"obj-2" : [ "live.menu", "live.menu", 0 ]
		}

	}

}
