{
	"patcher" : 	{
		"fileversion" : 1,
		"rect" : [ 489.0, 139.0, 126.0, 24.0 ],
		"bglocked" : 0,
		"defrect" : [ 489.0, 139.0, 126.0, 24.0 ],
		"openrect" : [ 0.0, 0.0, 0.0, 0.0 ],
		"openinpresentation" : 1,
		"default_fontsize" : 12.0,
		"default_fontface" : 0,
		"default_fontname" : "Arial",
		"gridonopen" : 0,
		"gridsize" : [ 15.0, 15.0 ],
		"gridsnaponopen" : 0,
		"toolbarvisible" : 1,
		"boxanimatetime" : 200,
		"imprint" : 0,
		"enablehscroll" : 1,
		"enablevscroll" : 1,
		"devicewidth" : 0.0,
		"boxes" : [ 			{
				"box" : 				{
					"maxclass" : "newobj",
					"varname" : "selectstate",
					"text" : "autopattr selectstate @autoname 1",
					"fontsize" : 12.0,
					"numinlets" : 1,
					"patching_rect" : [ 86.0, 192.0, 197.0, 20.0 ],
					"numoutlets" : 4,
					"id" : "obj-57",
					"fontname" : "Arial",
					"outlettype" : [ "", "", "", "" ],
					"restore" : 					{
						"umenu" : [ 0 ]
					}

				}

			}
, 			{
				"box" : 				{
					"maxclass" : "outlet",
					"numinlets" : 1,
					"patching_rect" : [ 324.0, 164.0, 25.0, 25.0 ],
					"numoutlets" : 0,
					"id" : "obj-10",
					"comment" : "MIDI Channel"
				}

			}
, 			{
				"box" : 				{
					"maxclass" : "outlet",
					"numinlets" : 1,
					"patching_rect" : [ 284.0, 164.0, 25.0, 25.0 ],
					"numoutlets" : 0,
					"id" : "obj-9",
					"comment" : "Pitch Bend"
				}

			}
, 			{
				"box" : 				{
					"maxclass" : "outlet",
					"numinlets" : 1,
					"patching_rect" : [ 245.0, 164.0, 25.0, 25.0 ],
					"numoutlets" : 0,
					"id" : "obj-8",
					"comment" : "Aftertouch"
				}

			}
, 			{
				"box" : 				{
					"maxclass" : "outlet",
					"numinlets" : 1,
					"patching_rect" : [ 205.0, 164.0, 25.0, 25.0 ],
					"numoutlets" : 0,
					"id" : "obj-7",
					"comment" : "Program Change"
				}

			}
, 			{
				"box" : 				{
					"maxclass" : "outlet",
					"numinlets" : 1,
					"patching_rect" : [ 165.0, 164.0, 25.0, 25.0 ],
					"numoutlets" : 0,
					"id" : "obj-6",
					"comment" : "Controller Number, Value"
				}

			}
, 			{
				"box" : 				{
					"maxclass" : "outlet",
					"numinlets" : 1,
					"patching_rect" : [ 126.0, 164.0, 25.0, 25.0 ],
					"numoutlets" : 0,
					"id" : "obj-5",
					"comment" : "Poly Key Pressure"
				}

			}
, 			{
				"box" : 				{
					"maxclass" : "outlet",
					"numinlets" : 1,
					"patching_rect" : [ 86.0, 164.0, 25.0, 25.0 ],
					"numoutlets" : 0,
					"id" : "obj-4",
					"comment" : "Pitch, Velocity"
				}

			}
, 			{
				"box" : 				{
					"maxclass" : "button",
					"numinlets" : 1,
					"patching_rect" : [ 68.0, 36.0, 20.0, 20.0 ],
					"numoutlets" : 1,
					"id" : "obj-3",
					"outlettype" : [ "bang" ]
				}

			}
, 			{
				"box" : 				{
					"maxclass" : "inlet",
					"numinlets" : 0,
					"patching_rect" : [ 68.0, 9.0, 25.0, 25.0 ],
					"numoutlets" : 1,
					"id" : "obj-1",
					"outlettype" : [ "" ],
					"comment" : "Refresh List"
				}

			}
, 			{
				"box" : 				{
					"maxclass" : "newobj",
					"text" : "midiparse",
					"fontsize" : 12.0,
					"numinlets" : 1,
					"patching_rect" : [ 86.0, 139.0, 257.0, 20.0 ],
					"numoutlets" : 7,
					"id" : "obj-24",
					"fontname" : "Arial",
					"outlettype" : [ "", "", "", "int", "int", "int", "int" ]
				}

			}
, 			{
				"box" : 				{
					"maxclass" : "newobj",
					"text" : "loadbang",
					"fontsize" : 12.0,
					"numinlets" : 1,
					"patching_rect" : [ 5.0, 36.0, 60.0, 20.0 ],
					"numoutlets" : 1,
					"id" : "obj-20",
					"fontname" : "Arial",
					"outlettype" : [ "bang" ]
				}

			}
, 			{
				"box" : 				{
					"maxclass" : "umenu",
					"varname" : "umenu",
					"fontsize" : 11.595187,
					"presentation_rect" : [ 0.0, 0.0, 120.0, 20.0 ],
					"items" : [ "AU DLS Synth 1", ",", "IAC Driver IAC Bus 1", ",", "IAC Driver IAC Bus 2", ",", "from MaxMSP 1", ",", "from MaxMSP 2" ],
					"numinlets" : 1,
					"types" : [  ],
					"patching_rect" : [ 5.0, 92.0, 180.0, 20.0 ],
					"numoutlets" : 3,
					"presentation" : 1,
					"id" : "obj-19",
					"fontname" : "Arial",
					"outlettype" : [ "int", "", "" ]
				}

			}
, 			{
				"box" : 				{
					"maxclass" : "newobj",
					"text" : "midiinfo",
					"fontsize" : 12.0,
					"numinlets" : 2,
					"patching_rect" : [ 5.0, 66.0, 52.0, 20.0 ],
					"numoutlets" : 1,
					"id" : "obj-12",
					"fontname" : "Arial",
					"outlettype" : [ "" ]
				}

			}
, 			{
				"box" : 				{
					"maxclass" : "newobj",
					"text" : "midiin",
					"fontsize" : 12.0,
					"numinlets" : 1,
					"patching_rect" : [ 86.0, 116.0, 42.0, 20.0 ],
					"numoutlets" : 1,
					"id" : "obj-11",
					"fontname" : "Arial",
					"outlettype" : [ "int" ]
				}

			}
 ],
		"lines" : [ 			{
				"patchline" : 				{
					"source" : [ "obj-24", 6 ],
					"destination" : [ "obj-10", 0 ],
					"hidden" : 0,
					"midpoints" : [  ]
				}

			}
, 			{
				"patchline" : 				{
					"source" : [ "obj-24", 5 ],
					"destination" : [ "obj-9", 0 ],
					"hidden" : 0,
					"midpoints" : [  ]
				}

			}
, 			{
				"patchline" : 				{
					"source" : [ "obj-24", 4 ],
					"destination" : [ "obj-8", 0 ],
					"hidden" : 0,
					"midpoints" : [  ]
				}

			}
, 			{
				"patchline" : 				{
					"source" : [ "obj-24", 3 ],
					"destination" : [ "obj-7", 0 ],
					"hidden" : 0,
					"midpoints" : [  ]
				}

			}
, 			{
				"patchline" : 				{
					"source" : [ "obj-24", 2 ],
					"destination" : [ "obj-6", 0 ],
					"hidden" : 0,
					"midpoints" : [  ]
				}

			}
, 			{
				"patchline" : 				{
					"source" : [ "obj-24", 1 ],
					"destination" : [ "obj-5", 0 ],
					"hidden" : 0,
					"midpoints" : [  ]
				}

			}
, 			{
				"patchline" : 				{
					"source" : [ "obj-24", 0 ],
					"destination" : [ "obj-4", 0 ],
					"hidden" : 0,
					"midpoints" : [  ]
				}

			}
, 			{
				"patchline" : 				{
					"source" : [ "obj-1", 0 ],
					"destination" : [ "obj-3", 0 ],
					"hidden" : 0,
					"midpoints" : [  ]
				}

			}
, 			{
				"patchline" : 				{
					"source" : [ "obj-3", 0 ],
					"destination" : [ "obj-12", 0 ],
					"hidden" : 0,
					"midpoints" : [ 77.5, 60.5, 14.5, 60.5 ]
				}

			}
, 			{
				"patchline" : 				{
					"source" : [ "obj-12", 0 ],
					"destination" : [ "obj-19", 0 ],
					"hidden" : 0,
					"midpoints" : [  ]
				}

			}
, 			{
				"patchline" : 				{
					"source" : [ "obj-19", 1 ],
					"destination" : [ "obj-11", 0 ],
					"hidden" : 0,
					"midpoints" : [  ]
				}

			}
, 			{
				"patchline" : 				{
					"source" : [ "obj-20", 0 ],
					"destination" : [ "obj-12", 0 ],
					"hidden" : 0,
					"midpoints" : [  ]
				}

			}
, 			{
				"patchline" : 				{
					"source" : [ "obj-11", 0 ],
					"destination" : [ "obj-24", 0 ],
					"hidden" : 0,
					"midpoints" : [  ]
				}

			}
 ]
	}

}
